<?xml version="1.0" encoding="UTF-8" standalone="no"?>
<!DOCTYPE svg PUBLIC "-//W3C//DTD SVG 1.1//EN" "http://www.w3.org/Graphics/SVG/1.1/DTD/svg11.dtd">
<svg width="15px" height="15px" version="1.1" xmlns="http://www.w3.org/2000/svg" xmlns:xlink="http://www.w3.org/1999/xlink" xml:space="preserve" xmlns:serif="http://www.serif.com/" style="fill-rule:evenodd;clip-rule:evenodd;stroke-linejoin:round;stroke-miterlimit:2;">
    <g transform="matrix(0.75,0,0,0.75,-2.25,-2.25311)">
        <rect x="18.712" y="12.66" width="0.712" height="0.712" style="fill:rgb(22,41,72);"/>
    </g>
    <g transform="matrix(0.75,0,0,0.75,-2.25,-2.25311)">
        <path d="M21.792,8.879C21.792,8.545 21.721,8.243 21.573,7.991C21.43,7.739 21.216,7.531 20.932,7.367C18.564,6.002 16.192,4.638 13.825,3.273C13.184,2.906 12.57,2.917 11.934,3.29C10.992,3.843 6.268,6.55 4.866,7.367C4.285,7.701 4,8.21 4,8.879L4,17.12C4,17.449 4.071,17.739 4.208,17.991C4.351,18.249 4.57,18.468 4.86,18.638C6.268,19.454 10.986,22.156 11.929,22.715C12.564,23.087 13.184,23.104 13.819,22.731C16.186,21.361 18.559,20.002 20.926,18.638C21.222,18.468 21.436,18.254 21.578,17.991C21.715,17.739 21.786,17.449 21.786,17.12C21.797,17.12 21.797,11.624 21.792,8.879ZM12.899,18.906C10.707,18.906 8.789,17.712 7.77,15.936C7.271,15.071 6.986,14.068 6.986,12.994C6.986,9.728 9.633,7.087 12.893,7.087C15.08,7.087 16.986,8.276 18.011,10.041L15.441,11.52C14.932,10.643 13.984,10.052 12.899,10.052C11.271,10.052 9.956,11.367 9.956,12.994C9.956,13.525 10.099,14.024 10.345,14.451C10.855,15.339 11.808,15.936 12.899,15.936C14,15.936 14.959,15.334 15.463,14.435L18.027,15.931C17.014,17.712 15.096,18.906 12.899,18.906ZM20.482,12.66L20.006,12.66L20.006,13.372L20.482,13.372L20.482,13.958L20.006,13.958L20.006,14.435L19.419,14.435L19.419,13.958L18.707,13.958L18.707,14.435L18.121,14.435L18.121,13.958L17.644,13.958L17.644,13.372L18.121,13.372L18.121,12.66L17.644,12.66L17.644,12.073L18.121,12.073L18.121,11.602L18.707,11.602L18.707,12.079L19.419,12.079L19.419,11.602L20.006,11.602L20.006,12.079L20.482,12.079L20.482,12.66Z" style="fill:rgb(22,41,72);fill-rule:nonzero;"/>
    </g>
</svg>
