<?xml version="1.0" encoding="UTF-8" standalone="no"?>
<!DOCTYPE svg PUBLIC "-//W3C//DTD SVG 1.1//EN" "http://www.w3.org/Graphics/SVG/1.1/DTD/svg11.dtd">
<svg width="15px" height="15px" version="1.1" xmlns="http://www.w3.org/2000/svg" xmlns:xlink="http://www.w3.org/1999/xlink" xml:space="preserve" xmlns:serif="http://www.serif.com/" style="fill-rule:evenodd;clip-rule:evenodd;stroke-linejoin:round;stroke-miterlimit:2;">
    <g transform="matrix(0.625,0,0,0.625,-0.625,-0.9375)">
        <path d="M25,13.247C25,16.696 19.627,19.493 13,19.493C6.373,19.493 1,16.696 1,13.247C1,9.797 6.373,7 13,7C19.627,7 25,9.797 25,13.247ZM5.685,10.288L4.37,16.945L5.932,16.945L6.26,15.219L7.74,15.219C9.137,15.301 10.699,14.151 10.699,12.178C10.699,11.027 10.041,10.37 8.726,10.288L5.685,10.288ZM7,11.521L6.589,13.986L7.575,13.986C8.315,13.904 8.973,13.658 9.055,12.26C9.055,11.767 8.644,11.521 8.069,11.521L7,11.521ZM11.708,8.562L10.393,15.219L11.955,15.219L12.694,11.521L13.927,11.521C14.503,11.521 14.503,11.767 14.42,12.178L13.845,15.219L15.489,15.219L16.064,11.849C16.229,11.027 15.736,10.37 14.42,10.288L12.941,10.288L13.27,8.562L11.708,8.562ZM16.699,10.288L15.384,16.945L16.945,16.945L17.274,15.219L18.754,15.219C20.151,15.301 21.712,14.151 21.712,12.178C21.712,11.027 21.055,10.37 19.74,10.288L16.699,10.288ZM18.014,11.521L17.603,13.986L18.589,13.986C19.329,13.904 19.986,13.658 20.069,12.26C20.069,11.767 19.658,11.521 19.082,11.521L18.014,11.521Z" style="fill:rgb(22,41,72);"/>
    </g>
</svg>
