<?xml version="1.0" encoding="UTF-8" standalone="no"?>
<!DOCTYPE svg PUBLIC "-//W3C//DTD SVG 1.1//EN" "http://www.w3.org/Graphics/SVG/1.1/DTD/svg11.dtd">
<svg width="100%" height="100%" viewBox="0 0 15 15" version="1.1" xmlns="http://www.w3.org/2000/svg" xmlns:xlink="http://www.w3.org/1999/xlink" xml:space="preserve" xmlns:serif="http://www.serif.com/" style="fill-rule:evenodd;clip-rule:evenodd;stroke-linejoin:round;stroke-miterlimit:2;">
    <g transform="matrix(0.375,0,0,0.416667,0.0572034,0.108959)">
        <path d="M29.9,33C25.2,35.7 18.8,36 12.4,33.2C7.1,31 2.8,27.1 0,22.7C1.3,23.8 2.9,24.7 4.6,25.5C11.3,28.6 17.9,28.4 22.6,25.5C15.9,20.4 10.2,13.7 6,8.2C5.1,7.3 4.4,6.2 3.8,5.2C8.9,9.9 17,15.8 19.9,17.5C13.8,11 8.3,3 8.6,3.2C18.3,13 27.3,18.5 27.3,18.5C27.6,18.7 27.8,18.8 28,18.9C28.2,18.4 28.4,17.9 28.5,17.4C30,11.8 28.2,5.3 24.4,0C33.4,5.4 38.7,15.7 36.5,24.2C36.4,24.4 36.4,24.7 36.3,24.9L36.4,25C40.8,30.6 39.6,36.5 39.1,35.3C36.6,30.6 32.2,32.1 29.9,33Z" style="fill:rgb(22,41,72);fill-rule:nonzero;"/>
    </g>
</svg>
