<?xml version="1.0" encoding="iso-8859-1"?>
<!-- Generator: Adobe Illustrator 19.0.0, SVG Export Plug-In . SVG Version: 6.00 Build 0)  -->
<svg version="1.1" id="Layer_1" xmlns="http://www.w3.org/2000/svg" xmlns:xlink="http://www.w3.org/1999/xlink" x="0px" y="0px"
	 viewBox="0 0 506.487 506.487" style="enable-background:new 0 0 506.487 506.487;" xml:space="preserve">
<g>
	<g>
		<g>
			<path d="M113.392,355.644c-9.421,0-17.067,7.646-17.067,17.067s7.646,17.067,17.067,17.067c9.421,0,17.067-7.646,17.067-17.067
				S122.813,355.644,113.392,355.644z"/>
			<path d="M404.087,355.644c-9.421,0-17.067,7.646-17.067,17.067s7.646,17.067,17.067,17.067c9.421,0,17.067-7.646,17.067-17.067
				S413.508,355.644,404.087,355.644z"/>
			<path d="M498.389,278.844h-91.998c-15.386,0-27.904-12.518-27.904-27.904v-40.363c0-4.71,3.823-8.533,8.533-8.533
				c4.71,0,8.533,3.823,8.533,8.533v40.363c0,5.973,4.864,10.837,10.837,10.837h55.56l-20.753-83.012
				c-2.85-11.409-13.065-19.388-24.841-19.388H371.2c11.128-34.389,15.343-64.179,15.744-67.123c0.333-2.441-0.41-4.898-2.031-6.758
				c-1.621-1.852-3.959-2.918-6.426-2.918H70.724c-4.139,0-7.672,2.97-8.397,7.04l-4.83,27.093h-30.72
				c-4.71,0-8.533,3.823-8.533,8.533s3.823,8.533,8.533,8.533H54.46l-3.038,17.067h-30.72c-4.71,0-8.533,3.823-8.533,8.533
				c0,4.71,3.823,8.533,8.533,8.533h27.674l-3.038,17.067h-30.72c-4.71,0-8.533,3.823-8.533,8.533s3.823,8.533,8.533,8.533H42.3
				l-3.038,17.067H8.533c-4.71,0-8.533,3.823-8.533,8.533c0,4.71,3.823,8.533,8.533,8.533h27.682l-4.275,24.021v0.009L11.136,371.14
				c-0.469,2.492,0.205,5.069,1.826,7.023c1.613,1.954,4.028,3.081,6.562,3.081h43.435c4.087,24.175,25.114,42.667,50.432,42.667
				c25.318,0,46.344-18.492,50.432-42.667h189.833c4.087,24.175,25.114,42.667,50.432,42.667c25.318,0,46.345-18.492,50.432-42.667
				h34.901c9.412,0,17.067-7.654,17.067-17.067v-71.023C506.487,287.172,503.322,281.924,498.389,278.844z M113.391,406.844
				c-18.816,0-34.133-15.309-34.133-34.133s15.317-34.133,34.133-34.133c18.825,0,34.133,15.309,34.133,34.133
				S132.215,406.844,113.391,406.844z M351.13,165.018c-12.629,35.038-34.176,75.895-67.763,85.897
				c-0.375,0.111-0.751,0.222-1.135,0.324c-1.86,0.512-3.763,0.896-5.692,1.212c-0.572,0.094-1.126,0.213-1.698,0.282
				c-2.372,0.316-4.779,0.512-7.262,0.512H50.509l3.046-17.067h95.249c4.71,0,8.533-3.823,8.533-8.533
				c0-4.71-3.823-8.533-8.533-8.533H56.593l3.038-17.067h95.258c4.71,0,8.533-3.823,8.533-8.533s-3.823-8.533-8.533-8.533h-92.22
				l3.046-17.067h95.249c4.719,0,8.533-3.823,8.533-8.533c0-4.71-3.814-8.533-8.533-8.533H68.753l3.038-17.067h95.258
				c4.71,0,8.533-3.823,8.533-8.533s-3.823-8.533-8.533-8.533h-92.22l3.038-17.067h290.569c-2.423,13.363-7.774,38.81-17.203,65.195
				C351.206,164.907,351.155,164.958,351.13,165.018z M361.421,312.977c-4.71,0-8.533-3.823-8.533-8.533s3.823-8.533,8.533-8.533
				h17.067c4.71,0,8.533,3.823,8.533,8.533s-3.823,8.533-8.533,8.533H361.421z M404.087,406.844
				c-18.825,0-34.133-15.309-34.133-34.133s15.309-34.133,34.133-34.133c18.825,0,34.133,15.309,34.133,34.133
				S422.912,406.844,404.087,406.844z"/>
		</g>
	</g>
</g>
<g>
</g>
<g>
</g>
<g>
</g>
<g>
</g>
<g>
</g>
<g>
</g>
<g>
</g>
<g>
</g>
<g>
</g>
<g>
</g>
<g>
</g>
<g>
</g>
<g>
</g>
<g>
</g>
<g>
</g>
</svg>
