<?xml version="1.0" encoding="UTF-8" standalone="no"?>
<!DOCTYPE svg PUBLIC "-//W3C//DTD SVG 1.1//EN" "http://www.w3.org/Graphics/SVG/1.1/DTD/svg11.dtd">
<svg width="100%" height="100%" viewBox="0 0 640 415" version="1.1" xmlns="http://www.w3.org/2000/svg" xmlns:xlink="http://www.w3.org/1999/xlink" xml:space="preserve" xmlns:serif="http://www.serif.com/" style="fill-rule:evenodd;clip-rule:evenodd;">
    <g transform="matrix(1,0,0,1,-420,-160)">
        <rect x="0" y="0" width="1760" height="1360" style="fill:white;fill-opacity:0;fill-rule:nonzero;"/>
        <rect x="620" y="180" width="260" height="80" style="fill:rgb(178,214,239);fill-rule:nonzero;stroke:black;stroke-width:2px;"/>
        <g id="a" transform="matrix(1,0,0,1,716.204,224.653)">
            <g id="g" transform="matrix(0.0617284,0,0,0.0617284,0,0)">
                <path d="M212,-179C202,-207 177,-224 139,-224C80,-224 52,-184 52,-125C52,-65 81,-24 141,-24C184,-24 203,-48 219,-76L246,-62C228,-24 195,4 139,4C59,4 22,-46 18,-125C12,-229 117,-278 205,-236C224,-227 236,-210 244,-190" style="fill-rule:nonzero;"/>
            </g>
            <g id="h" transform="matrix(0.0617284,0,0,0.0617284,15.9877,0)">
                <path d="M141,-36C126,-15 110,5 73,4C37,3 15,-17 15,-53C14,-117 78,-116 140,-116C143,-151 131,-170 99,-170C75,-169 58,-163 57,-139L24,-142C29,-179 57,-194 100,-194C145,-194 172,-174 172,-130L172,-48C171,-28 179,-16 200,-21L200,-1C169,8 139,-3 141,-36ZM48,-53C48,-33 60,-20 80,-20C121,-23 143,-49 140,-94C97,-92 48,-99 48,-53" style="fill-rule:nonzero;"/>
            </g>
            <g id="i" transform="matrix(0.0617284,0,0,0.0617284,28.3333,0)">
                <path d="M114,-163C36,-179 61,-72 57,0L25,0L24,-190L54,-190C55,-178 53,-161 56,-151C62,-178 79,-200 114,-192L114,-163" style="fill-rule:nonzero;"/>
            </g>
            <g id="i1" serif:id="i" transform="matrix(0.0617284,0,0,0.0617284,35.679,0)">
                <path d="M114,-163C36,-179 61,-72 57,0L25,0L24,-190L54,-190C55,-178 53,-161 56,-151C62,-178 79,-200 114,-192L114,-163" style="fill-rule:nonzero;"/>
            </g>
            <g id="j" transform="matrix(0.0617284,0,0,0.0617284,43.0247,0)">
                <path d="M24,-231L24,-261L56,-261L56,-231L24,-231ZM24,0L24,-190L56,-190L56,0L24,0" style="fill-rule:nonzero;"/>
            </g>
            <g id="k" transform="matrix(0.0617284,0,0,0.0617284,47.9012,0)">
                <path d="M100,-194C163,-194 186,-152 184,-88L49,-88C49,-48 63,-21 102,-20C128,-19 145,-32 151,-49L179,-41C168,-13 142,4 102,4C44,4 14,-33 15,-96C16,-157 41,-194 100,-194ZM152,-113C158,-173 76,-190 55,-141C52,-134 49,-124 49,-113L152,-113" style="fill-rule:nonzero;"/>
            </g>
            <g id="i2" serif:id="i" transform="matrix(0.0617284,0,0,0.0617284,60.2469,0)">
                <path d="M114,-163C36,-179 61,-72 57,0L25,0L24,-190L54,-190C55,-178 53,-161 56,-151C62,-178 79,-200 114,-192L114,-163" style="fill-rule:nonzero;"/>
            </g>
        </g>
        <rect x="780" y="320" width="247" height="76" style="fill:rgb(178,214,239);fill-rule:nonzero;stroke:black;stroke-width:2px;"/>
        <rect x="793" y="324" width="247" height="76" style="fill:rgb(178,214,239);fill-rule:nonzero;stroke:black;stroke-width:2px;"/>
        <g id="b" transform="matrix(1,0,0,1,838.636,364.444)">
            <g id="l" transform="matrix(0.0617284,0,0,0.0617284,0,0)">
                <path d="M30,-248C117,-247 221,-263 221,-173C221,-95 144,-93 63,-97L63,0L30,0L30,-248ZM63,-123C120,-123 187,-112 187,-173C187,-232 119,-220 63,-221L63,-123" style="fill-rule:nonzero;"/>
            </g>
            <g id="j1" serif:id="j" transform="matrix(0.0617284,0,0,0.0617284,14.8148,0)">
                <path d="M24,-231L24,-261L56,-261L56,-231L24,-231ZM24,0L24,-190L56,-190L56,0L24,0" style="fill-rule:nonzero;"/>
            </g>
            <g id="m" transform="matrix(0.0617284,0,0,0.0617284,19.6914,0)">
                <path d="M96,-169C56,-169 48,-136 48,-96C48,-56 57,-21 96,-21C120,-21 137,-35 139,-59L171,-57C165,-20 140,4 97,4C38,4 21,-37 15,-95C5,-188 116,-226 162,-159C166,-152 167,-145 169,-137L137,-134C133,-155 121,-169 96,-169" style="fill-rule:nonzero;"/>
            </g>
            <g id="n" transform="matrix(0.0617284,0,0,0.0617284,30.8025,0)">
                <path d="M143,0L79,-87L56,-68L56,0L24,0L24,-261L56,-261L56,-98L139,-190L176,-190L99,-108L181,0L143,0" style="fill-rule:nonzero;"/>
            </g>
            <g id="o" transform="matrix(0.0617284,0,0,0.0617284,41.9136,0)">
                <path d="M84,4C-5,8 30,-112 23,-190L55,-190L55,-70C55,-39 62,-20 94,-21C166,-23 139,-122 144,-190L175,-190L176,0L146,0C145,-10 147,-25 144,-33C133,-11 116,3 84,4" style="fill-rule:nonzero;"/>
            </g>
            <g id="p" transform="matrix(0.0617284,0,0,0.0617284,54.2593,0)">
                <path d="M115,-194C170,-193 185,-153 185,-96C185,-39 169,2 115,4C84,4 66,-9 55,-30L56,75L24,75L23,-190L54,-190L56,-160C66,-181 84,-194 115,-194ZM107,-20C147,-20 152,-54 152,-95C152,-136 146,-168 107,-169C65,-169 56,-137 56,-93C56,-50 66,-20 107,-20" style="fill-rule:nonzero;"/>
            </g>
        </g>
        <g id="c" transform="matrix(1,0,0,1,911.414,364.444)">
            <g id="q" transform="matrix(0.0617284,0,0,0.0617284,0,0)">
                <path d="M185,-189C180,-237 62,-243 61,-187C75,-112 219,-173 224,-68C227,10 103,19 49,-13C32,-23 21,-39 16,-59L49,-66C54,-10 190,-3 190,-67C190,-145 35,-81 28,-185C23,-267 173,-269 207,-219C212,-212 215,-203 218,-194" style="fill-rule:nonzero;"/>
            </g>
            <g id="k1" serif:id="k" transform="matrix(0.0617284,0,0,0.0617284,14.8148,0)">
                <path d="M100,-194C163,-194 186,-152 184,-88L49,-88C49,-48 63,-21 102,-20C128,-19 145,-32 151,-49L179,-41C168,-13 142,4 102,4C44,4 14,-33 15,-96C16,-157 41,-194 100,-194ZM152,-113C158,-173 76,-190 55,-141C52,-134 49,-124 49,-113L152,-113" style="fill-rule:nonzero;"/>
            </g>
            <g id="i3" serif:id="i" transform="matrix(0.0617284,0,0,0.0617284,27.1605,0)">
                <path d="M114,-163C36,-179 61,-72 57,0L25,0L24,-190L54,-190C55,-178 53,-161 56,-151C62,-178 79,-200 114,-192L114,-163" style="fill-rule:nonzero;"/>
            </g>
            <g id="r" transform="matrix(0.0617284,0,0,0.0617284,34.5062,0)">
                <path d="M108,0L70,0L1,-190L35,-190L89,-25L145,-190L179,-190" style="fill-rule:nonzero;"/>
            </g>
            <g id="j2" serif:id="j" transform="matrix(0.0617284,0,0,0.0617284,45.6173,0)">
                <path d="M24,-231L24,-261L56,-261L56,-231L24,-231ZM24,0L24,-190L56,-190L56,0L24,0" style="fill-rule:nonzero;"/>
            </g>
            <g id="m1" serif:id="m" transform="matrix(0.0617284,0,0,0.0617284,50.4938,0)">
                <path d="M96,-169C56,-169 48,-136 48,-96C48,-56 57,-21 96,-21C120,-21 137,-35 139,-59L171,-57C165,-20 140,4 97,4C38,4 21,-37 15,-95C5,-188 116,-226 162,-159C166,-152 167,-145 169,-137L137,-134C133,-155 121,-169 96,-169" style="fill-rule:nonzero;"/>
            </g>
            <g id="k2" serif:id="k" transform="matrix(0.0617284,0,0,0.0617284,61.6049,0)">
                <path d="M100,-194C163,-194 186,-152 184,-88L49,-88C49,-48 63,-21 102,-20C128,-19 145,-32 151,-49L179,-41C168,-13 142,4 102,4C44,4 14,-33 15,-96C16,-157 41,-194 100,-194ZM152,-113C158,-173 76,-190 55,-141C52,-134 49,-124 49,-113L152,-113" style="fill-rule:nonzero;"/>
            </g>
        </g>
        <path d="M750.06,262L750.11,262.3L750.18,262.6L750.25,262.94L750.35,263.26L750.45,263.59L750.57,263.91L750.72,264.24L750.89,264.59L751.07,264.94L751.27,265.3L751.52,265.7L751.79,266.08L752.09,266.48L752.45,266.91L752.85,267.37L753.32,267.84L753.86,268.34L754.49,268.89L755.22,269.47L756.1,270.1L757.14,270.8L758.4,271.55L759.96,272.4L761.91,273.37L764.39,274.47L767.66,275.77L772.14,277.32L778.61,279.26L788.91,281.89L811.11,286.49L871.11,298.09L881.41,300.73L887.88,302.67L892.36,304.22L895.63,305.52L898.13,306.62L900.07,307.59L901.63,308.44L902.89,309.2L903.93,309.9L904.81,310.54L905.54,311.12L906.17,311.66L906.71,312.16L907.17,312.64L907.57,313.09L907.93,313.51L908.23,313.91L908.51,314.31L908.75,314.68L909.15,315.38L909.3,315.73L909.44,316.06L909.56,316.39L909.66,316.73L909.76,317.05L909.83,317.38L909.89,317.68L909.93,317.98" style="fill:none;fill-rule:nonzero;stroke:black;stroke-width:2px;"/>
        <path d="M751.02,262L749.02,262.05L749,261L751,261L751.02,262ZM911,319L909,319L909,318.1L911,318.1L911,319Z" style="fill-rule:nonzero;"/>
        <rect x="440" y="320" width="266" height="76" style="fill:rgb(178,214,239);fill-rule:nonzero;stroke:black;stroke-width:2px;"/>
        <rect x="454" y="324" width="266" height="76" style="fill:rgb(178,214,239);fill-rule:nonzero;stroke:black;stroke-width:2px;"/>
        <g id="d" transform="matrix(1,0,0,1,501.938,364.444)">
            <g id="s" transform="matrix(0.0617284,0,0,0.0617284,0,0)">
                <path d="M30,-248C148,-255 246,-240 243,-126C240,-48 200,0 122,0L30,0L30,-248ZM63,-27C152,-19 209,-43 209,-126C209,-209 149,-227 63,-221L63,-27" style="fill-rule:nonzero;"/>
            </g>
            <g id="k3" serif:id="k" transform="matrix(0.0617284,0,0,0.0617284,15.9877,0)">
                <path d="M100,-194C163,-194 186,-152 184,-88L49,-88C49,-48 63,-21 102,-20C128,-19 145,-32 151,-49L179,-41C168,-13 142,4 102,4C44,4 14,-33 15,-96C16,-157 41,-194 100,-194ZM152,-113C158,-173 76,-190 55,-141C52,-134 49,-124 49,-113L152,-113" style="fill-rule:nonzero;"/>
            </g>
            <g id="t" transform="matrix(0.0617284,0,0,0.0617284,28.3333,0)">
                <path d="M24,0L24,-261L56,-261L56,0L24,0" style="fill-rule:nonzero;"/>
            </g>
            <g id="j3" serif:id="j" transform="matrix(0.0617284,0,0,0.0617284,33.2099,0)">
                <path d="M24,-231L24,-261L56,-261L56,-231L24,-231ZM24,0L24,-190L56,-190L56,0L24,0" style="fill-rule:nonzero;"/>
            </g>
            <g id="r1" serif:id="r" transform="matrix(0.0617284,0,0,0.0617284,38.0864,0)">
                <path d="M108,0L70,0L1,-190L35,-190L89,-25L145,-190L179,-190" style="fill-rule:nonzero;"/>
            </g>
            <g id="k4" serif:id="k" transform="matrix(0.0617284,0,0,0.0617284,49.1975,0)">
                <path d="M100,-194C163,-194 186,-152 184,-88L49,-88C49,-48 63,-21 102,-20C128,-19 145,-32 151,-49L179,-41C168,-13 142,4 102,4C44,4 14,-33 15,-96C16,-157 41,-194 100,-194ZM152,-113C158,-173 76,-190 55,-141C52,-134 49,-124 49,-113L152,-113" style="fill-rule:nonzero;"/>
            </g>
            <g id="i4" serif:id="i" transform="matrix(0.0617284,0,0,0.0617284,61.5432,0)">
                <path d="M114,-163C36,-179 61,-72 57,0L25,0L24,-190L54,-190C55,-178 53,-161 56,-151C62,-178 79,-200 114,-192L114,-163" style="fill-rule:nonzero;"/>
            </g>
            <g id="u" transform="matrix(0.0617284,0,0,0.0617284,68.8889,0)">
                <path d="M179,-190L93,31C79,59 56,82 12,73L12,49C51,55 65,29 76,-1L1,-190L35,-190L92,-34L146,-190L179,-190" style="fill-rule:nonzero;"/>
            </g>
        </g>
        <g id="c1" serif:id="c" transform="matrix(1,0,0,1,588.111,364.444)">
            <g id="q1" serif:id="q" transform="matrix(0.0617284,0,0,0.0617284,0,0)">
                <path d="M185,-189C180,-237 62,-243 61,-187C75,-112 219,-173 224,-68C227,10 103,19 49,-13C32,-23 21,-39 16,-59L49,-66C54,-10 190,-3 190,-67C190,-145 35,-81 28,-185C23,-267 173,-269 207,-219C212,-212 215,-203 218,-194" style="fill-rule:nonzero;"/>
            </g>
            <g id="k5" serif:id="k" transform="matrix(0.0617284,0,0,0.0617284,14.8148,0)">
                <path d="M100,-194C163,-194 186,-152 184,-88L49,-88C49,-48 63,-21 102,-20C128,-19 145,-32 151,-49L179,-41C168,-13 142,4 102,4C44,4 14,-33 15,-96C16,-157 41,-194 100,-194ZM152,-113C158,-173 76,-190 55,-141C52,-134 49,-124 49,-113L152,-113" style="fill-rule:nonzero;"/>
            </g>
            <g id="i5" serif:id="i" transform="matrix(0.0617284,0,0,0.0617284,27.1605,0)">
                <path d="M114,-163C36,-179 61,-72 57,0L25,0L24,-190L54,-190C55,-178 53,-161 56,-151C62,-178 79,-200 114,-192L114,-163" style="fill-rule:nonzero;"/>
            </g>
            <g id="r2" serif:id="r" transform="matrix(0.0617284,0,0,0.0617284,34.5062,0)">
                <path d="M108,0L70,0L1,-190L35,-190L89,-25L145,-190L179,-190" style="fill-rule:nonzero;"/>
            </g>
            <g id="j4" serif:id="j" transform="matrix(0.0617284,0,0,0.0617284,45.6173,0)">
                <path d="M24,-231L24,-261L56,-261L56,-231L24,-231ZM24,0L24,-190L56,-190L56,0L24,0" style="fill-rule:nonzero;"/>
            </g>
            <g id="m2" serif:id="m" transform="matrix(0.0617284,0,0,0.0617284,50.4938,0)">
                <path d="M96,-169C56,-169 48,-136 48,-96C48,-56 57,-21 96,-21C120,-21 137,-35 139,-59L171,-57C165,-20 140,4 97,4C38,4 21,-37 15,-95C5,-188 116,-226 162,-159C166,-152 167,-145 169,-137L137,-134C133,-155 121,-169 96,-169" style="fill-rule:nonzero;"/>
            </g>
            <g id="k6" serif:id="k" transform="matrix(0.0617284,0,0,0.0617284,61.6049,0)">
                <path d="M100,-194C163,-194 186,-152 184,-88L49,-88C49,-48 63,-21 102,-20C128,-19 145,-32 151,-49L179,-41C168,-13 142,4 102,4C44,4 14,-33 15,-96C16,-157 41,-194 100,-194ZM152,-113C158,-173 76,-190 55,-141C52,-134 49,-124 49,-113L152,-113" style="fill-rule:nonzero;"/>
            </g>
        </g>
        <rect x="440" y="475" width="266" height="76" style="fill:rgb(178,214,239);fill-rule:nonzero;stroke:black;stroke-width:2px;"/>
        <rect x="454" y="479" width="266" height="76" style="fill:rgb(178,214,239);fill-rule:nonzero;stroke:black;stroke-width:2px;"/>
        <g id="e" transform="matrix(1,0,0,1,530.179,519.444)">
            <g id="l1" serif:id="l" transform="matrix(0.0617284,0,0,0.0617284,0,0)">
                <path d="M30,-248C117,-247 221,-263 221,-173C221,-95 144,-93 63,-97L63,0L30,0L30,-248ZM63,-123C120,-123 187,-112 187,-173C187,-232 119,-220 63,-221L63,-123" style="fill-rule:nonzero;"/>
            </g>
            <g id="h1" serif:id="h" transform="matrix(0.0617284,0,0,0.0617284,14.8148,0)">
                <path d="M141,-36C126,-15 110,5 73,4C37,3 15,-17 15,-53C14,-117 78,-116 140,-116C143,-151 131,-170 99,-170C75,-169 58,-163 57,-139L24,-142C29,-179 57,-194 100,-194C145,-194 172,-174 172,-130L172,-48C171,-28 179,-16 200,-21L200,-1C169,8 139,-3 141,-36ZM48,-53C48,-33 60,-20 80,-20C121,-23 143,-49 140,-94C97,-92 48,-99 48,-53" style="fill-rule:nonzero;"/>
            </g>
            <g id="m3" serif:id="m" transform="matrix(0.0617284,0,0,0.0617284,27.1605,0)">
                <path d="M96,-169C56,-169 48,-136 48,-96C48,-56 57,-21 96,-21C120,-21 137,-35 139,-59L171,-57C165,-20 140,4 97,4C38,4 21,-37 15,-95C5,-188 116,-226 162,-159C166,-152 167,-145 169,-137L137,-134C133,-155 121,-169 96,-169" style="fill-rule:nonzero;"/>
            </g>
            <g id="n1" serif:id="n" transform="matrix(0.0617284,0,0,0.0617284,38.2716,0)">
                <path d="M143,0L79,-87L56,-68L56,0L24,0L24,-261L56,-261L56,-98L139,-190L176,-190L99,-108L181,0L143,0" style="fill-rule:nonzero;"/>
            </g>
            <g id="h2" serif:id="h" transform="matrix(0.0617284,0,0,0.0617284,49.3827,0)">
                <path d="M141,-36C126,-15 110,5 73,4C37,3 15,-17 15,-53C14,-117 78,-116 140,-116C143,-151 131,-170 99,-170C75,-169 58,-163 57,-139L24,-142C29,-179 57,-194 100,-194C145,-194 172,-174 172,-130L172,-48C171,-28 179,-16 200,-21L200,-1C169,8 139,-3 141,-36ZM48,-53C48,-33 60,-20 80,-20C121,-23 143,-49 140,-94C97,-92 48,-99 48,-53" style="fill-rule:nonzero;"/>
            </g>
            <g id="v" transform="matrix(0.0617284,0,0,0.0617284,61.7284,0)">
                <path d="M177,-190C167,-65 218,103 67,71C44,65 29,51 23,28L55,23C70,70 155,55 144,-5L144,-35C133,-14 115,1 83,1C29,1 15,-40 15,-95C15,-151 31,-192 86,-193C115,-194 134,-177 145,-158C146,-168 145,-181 147,-190L177,-190ZM94,-22C130,-22 144,-54 144,-95C144,-137 130,-170 94,-170C55,-170 48,-136 48,-95C48,-54 54,-22 94,-22" style="fill-rule:nonzero;"/>
            </g>
            <g id="j5" serif:id="j" transform="matrix(0.0617284,0,0,0.0617284,74.0741,0)">
                <path d="M24,-231L24,-261L56,-261L56,-231L24,-231ZM24,0L24,-190L56,-190L56,0L24,0" style="fill-rule:nonzero;"/>
            </g>
            <g id="w" transform="matrix(0.0617284,0,0,0.0617284,78.9506,0)">
                <path d="M117,-194C206,-198 170,-78 177,0L145,0L145,-121C145,-152 137,-170 106,-169C34,-167 62,-67 57,0L25,0L24,-190L54,-190C55,-180 53,-166 56,-158C67,-180 85,-193 117,-194" style="fill-rule:nonzero;"/>
            </g>
            <g id="v1" serif:id="v" transform="matrix(0.0617284,0,0,0.0617284,91.2963,0)">
                <path d="M177,-190C167,-65 218,103 67,71C44,65 29,51 23,28L55,23C70,70 155,55 144,-5L144,-35C133,-14 115,1 83,1C29,1 15,-40 15,-95C15,-151 31,-192 86,-193C115,-194 134,-177 145,-158C146,-168 145,-181 147,-190L177,-190ZM94,-22C130,-22 144,-54 144,-95C144,-137 130,-170 94,-170C55,-170 48,-136 48,-95C48,-54 54,-22 94,-22" style="fill-rule:nonzero;"/>
            </g>
        </g>
        <rect x="780" y="475" width="247" height="76" style="fill:rgb(178,214,239);fill-rule:nonzero;stroke:black;stroke-width:2px;"/>
        <rect x="793" y="479" width="247" height="76" style="fill:rgb(178,214,239);fill-rule:nonzero;stroke:black;stroke-width:2px;"/>
        <g id="d1" serif:id="d" transform="matrix(1,0,0,1,806.105,519.444)">
            <g id="s1" serif:id="s" transform="matrix(0.0617284,0,0,0.0617284,0,0)">
                <path d="M30,-248C148,-255 246,-240 243,-126C240,-48 200,0 122,0L30,0L30,-248ZM63,-27C152,-19 209,-43 209,-126C209,-209 149,-227 63,-221L63,-27" style="fill-rule:nonzero;"/>
            </g>
            <g id="k7" serif:id="k" transform="matrix(0.0617284,0,0,0.0617284,15.9877,0)">
                <path d="M100,-194C163,-194 186,-152 184,-88L49,-88C49,-48 63,-21 102,-20C128,-19 145,-32 151,-49L179,-41C168,-13 142,4 102,4C44,4 14,-33 15,-96C16,-157 41,-194 100,-194ZM152,-113C158,-173 76,-190 55,-141C52,-134 49,-124 49,-113L152,-113" style="fill-rule:nonzero;"/>
            </g>
            <g id="t1" serif:id="t" transform="matrix(0.0617284,0,0,0.0617284,28.3333,0)">
                <path d="M24,0L24,-261L56,-261L56,0L24,0" style="fill-rule:nonzero;"/>
            </g>
            <g id="j6" serif:id="j" transform="matrix(0.0617284,0,0,0.0617284,33.2099,0)">
                <path d="M24,-231L24,-261L56,-261L56,-231L24,-231ZM24,0L24,-190L56,-190L56,0L24,0" style="fill-rule:nonzero;"/>
            </g>
            <g id="r3" serif:id="r" transform="matrix(0.0617284,0,0,0.0617284,38.0864,0)">
                <path d="M108,0L70,0L1,-190L35,-190L89,-25L145,-190L179,-190" style="fill-rule:nonzero;"/>
            </g>
            <g id="k8" serif:id="k" transform="matrix(0.0617284,0,0,0.0617284,49.1975,0)">
                <path d="M100,-194C163,-194 186,-152 184,-88L49,-88C49,-48 63,-21 102,-20C128,-19 145,-32 151,-49L179,-41C168,-13 142,4 102,4C44,4 14,-33 15,-96C16,-157 41,-194 100,-194ZM152,-113C158,-173 76,-190 55,-141C52,-134 49,-124 49,-113L152,-113" style="fill-rule:nonzero;"/>
            </g>
            <g id="i6" serif:id="i" transform="matrix(0.0617284,0,0,0.0617284,61.5432,0)">
                <path d="M114,-163C36,-179 61,-72 57,0L25,0L24,-190L54,-190C55,-178 53,-161 56,-151C62,-178 79,-200 114,-192L114,-163" style="fill-rule:nonzero;"/>
            </g>
            <g id="u1" serif:id="u" transform="matrix(0.0617284,0,0,0.0617284,68.8889,0)">
                <path d="M179,-190L93,31C79,59 56,82 12,73L12,49C51,55 65,29 76,-1L1,-190L35,-190L92,-34L146,-190L179,-190" style="fill-rule:nonzero;"/>
            </g>
        </g>
        <g id="f" transform="matrix(1,0,0,1,892.278,519.444)">
            <g id="g1" serif:id="g" transform="matrix(0.0617284,0,0,0.0617284,0,0)">
                <path d="M212,-179C202,-207 177,-224 139,-224C80,-224 52,-184 52,-125C52,-65 81,-24 141,-24C184,-24 203,-48 219,-76L246,-62C228,-24 195,4 139,4C59,4 22,-46 18,-125C12,-229 117,-278 205,-236C224,-227 236,-210 244,-190" style="fill-rule:nonzero;"/>
            </g>
            <g id="x" transform="matrix(0.0617284,0,0,0.0617284,15.9877,0)">
                <path d="M100,-194C162,-195 185,-157 185,-95C186,-32 158,4 99,4C40,4 16,-35 15,-95C15,-161 43,-194 100,-194ZM99,-20C143,-19 152,-51 152,-95C152,-138 144,-170 101,-170C58,-170 48,-138 48,-95C48,-52 58,-21 99,-20" style="fill-rule:nonzero;"/>
            </g>
            <g id="w1" serif:id="w" transform="matrix(0.0617284,0,0,0.0617284,28.3333,0)">
                <path d="M117,-194C206,-198 170,-78 177,0L145,0L145,-121C145,-152 137,-170 106,-169C34,-167 62,-67 57,0L25,0L24,-190L54,-190C55,-180 53,-166 56,-158C67,-180 85,-193 117,-194" style="fill-rule:nonzero;"/>
            </g>
            <g id="y" transform="matrix(0.0617284,0,0,0.0617284,40.679,0)">
                <path d="M101,-234C70,-243 59,-224 63,-190L101,-190L101,-167L63,-167L63,0L32,0L32,-167L5,-167L5,-190L32,-190C25,-242 49,-272 101,-258L101,-234" style="fill-rule:nonzero;"/>
            </g>
            <g id="j7" serif:id="j" transform="matrix(0.0617284,0,0,0.0617284,46.8519,0)">
                <path d="M24,-231L24,-261L56,-261L56,-231L24,-231ZM24,0L24,-190L56,-190L56,0L24,0" style="fill-rule:nonzero;"/>
            </g>
            <g id="i7" serif:id="i" transform="matrix(0.0617284,0,0,0.0617284,51.7284,0)">
                <path d="M114,-163C36,-179 61,-72 57,0L25,0L24,-190L54,-190C55,-178 53,-161 56,-151C62,-178 79,-200 114,-192L114,-163" style="fill-rule:nonzero;"/>
            </g>
            <g id="z" transform="matrix(0.0617284,0,0,0.0617284,59.0741,0)">
                <path d="M210,-169C143,-166 172,-64 166,0L135,0L135,-121C135,-150 130,-171 100,-169C34,-165 62,-65 56,0L25,0L24,-190L54,-190C55,-180 53,-166 56,-158C66,-202 155,-208 163,-158C174,-179 190,-193 221,-194C306,-196 268,-75 276,0L245,0L245,-121C245,-150 240,-170 210,-169" style="fill-rule:nonzero;"/>
            </g>
            <g id="h3" serif:id="h" transform="matrix(0.0617284,0,0,0.0617284,77.5309,0)">
                <path d="M141,-36C126,-15 110,5 73,4C37,3 15,-17 15,-53C14,-117 78,-116 140,-116C143,-151 131,-170 99,-170C75,-169 58,-163 57,-139L24,-142C29,-179 57,-194 100,-194C145,-194 172,-174 172,-130L172,-48C171,-28 179,-16 200,-21L200,-1C169,8 139,-3 141,-36ZM48,-53C48,-33 60,-20 80,-20C121,-23 143,-49 140,-94C97,-92 48,-99 48,-53" style="fill-rule:nonzero;"/>
            </g>
            <g id="A" transform="matrix(0.0617284,0,0,0.0617284,89.8765,0)">
                <path d="M59,-47C57,-23 77,-18 97,-25L97,-1C64,9 27,4 27,-40L27,-167L5,-167L5,-190L29,-190L38,-233L59,-233L59,-190L94,-190L94,-167L59,-167L59,-47" style="fill-rule:nonzero;"/>
            </g>
            <g id="j8" serif:id="j" transform="matrix(0.0617284,0,0,0.0617284,96.0494,0)">
                <path d="M24,-231L24,-261L56,-261L56,-231L24,-231ZM24,0L24,-190L56,-190L56,0L24,0" style="fill-rule:nonzero;"/>
            </g>
            <g id="x1" serif:id="x" transform="matrix(0.0617284,0,0,0.0617284,100.926,0)">
                <path d="M100,-194C162,-195 185,-157 185,-95C186,-32 158,4 99,4C40,4 16,-35 15,-95C15,-161 43,-194 100,-194ZM99,-20C143,-19 152,-51 152,-95C152,-138 144,-170 101,-170C58,-170 48,-138 48,-95C48,-52 58,-21 99,-20" style="fill-rule:nonzero;"/>
            </g>
            <g id="w2" serif:id="w" transform="matrix(0.0617284,0,0,0.0617284,113.272,0)">
                <path d="M117,-194C206,-198 170,-78 177,0L145,0L145,-121C145,-152 137,-170 106,-169C34,-167 62,-67 57,0L25,0L24,-190L54,-190C55,-180 53,-166 56,-158C67,-180 85,-193 117,-194" style="fill-rule:nonzero;"/>
            </g>
        </g>
        <path d="M580.07,318L580.1,317.78L580.16,317.48L580.23,317.18L580.33,316.88L580.53,316.24L580.67,315.94L580.82,315.6L581,315.26L581.2,314.92L581.42,314.56L581.68,314.19L581.98,313.79L582.31,313.39L582.71,312.96L583.15,312.5L583.67,312.03L584.27,311.51L584.97,310.96L585.81,310.36L586.81,309.69L588.03,308.96L589.53,308.13L591.41,307.2L593.81,306.13L596.96,304.88L601.26,303.38L607.42,301.54L617.06,299.09L635.54,295.21L712.98,280.91L722.61,278.45L728.76,276.6L733.06,275.12L736.22,273.87L738.62,272.81L740.5,271.89L742,271.06L743.2,270.33L744.22,269.66L745.05,269.06L745.75,268.5L746.35,267.97L746.88,267.49L747.32,267.02L747.72,266.59L748.04,266.19L748.34,265.79L748.6,265.43L748.82,265.07L749.02,264.73L749.2,264.39L749.35,264.06L749.49,263.76L749.59,263.43L749.79,262.83L749.86,262.51L749.92,262.21L749.95,261.99" style="fill:none;fill-rule:nonzero;stroke:black;stroke-width:2px;"/>
        <path d="M581.02,318L581,319L579,319L579.02,317.95L581.02,318ZM751,261.9L749,261.9L749,261L751,261L751,261.9Z" style="fill-rule:nonzero;"/>
        <path d="M580,402L580,473" style="fill:none;fill-rule:nonzero;stroke:black;stroke-width:2px;"/>
        <path d="M581,402.03L579,402.03L579,401L581,401L581,402.03ZM581,474L579,474L579,472.97L581,472.97L581,474Z" style="fill-rule:nonzero;"/>
        <path d="M909.92,473L909.87,472.74L909.81,472.49L909.75,472.22L909.65,471.96L909.45,471.42L909.16,470.84L908.99,470.54L908.57,469.91L908.31,469.57L908.01,469.21L907.66,468.83L907.26,468.43L906.8,467.98L906.24,467.5L905.6,467L904.82,466.43L903.89,465.81L902.74,465.11L901.34,464.35L899.54,463.47L897.26,462.44L894.23,461.24L890.11,459.82L884.26,458.06L875.5,455.82L861.24,452.82L834.1,448.3L628.76,422.1L614.49,419.1L605.72,416.87L599.87,415.12L595.75,413.69L592.72,412.49L590.42,411.49L588.65,410.59L587.25,409.83L586.1,409.13L585.18,408.53L584.4,407.96L583.76,407.44L583.21,406.97L582.76,406.54L582.36,406.14L582.01,405.74L581.71,405.39L581.45,405.05L581.03,404.42L580.86,404.12L580.57,403.54L580.37,403L580.27,402.74L580.2,402.48L580.13,402.24L580.08,401.99" style="fill:none;fill-rule:nonzero;stroke:black;stroke-width:2px;"/>
        <path d="M911,474L909,474L908.98,473L910.98,472.95L911,474ZM581,402.03L579,402.03L579,401L581,401L581,402.03Z" style="fill-rule:nonzero;"/>
    </g>
</svg>
