<?xml version="1.0" encoding="UTF-8" standalone="no"?>
<!DOCTYPE svg PUBLIC "-//W3C//DTD SVG 1.1//EN" "http://www.w3.org/Graphics/SVG/1.1/DTD/svg11.dtd">
<svg width="100%" height="100%" viewBox="0 0 258 93" version="1.1" xmlns="http://www.w3.org/2000/svg" xmlns:xlink="http://www.w3.org/1999/xlink" xml:space="preserve" xmlns:serif="http://www.serif.com/" style="fill-rule:evenodd;clip-rule:evenodd;stroke-linejoin:round;stroke-miterlimit:2;">
    <g transform="matrix(0.268225,0,0,0.268225,-4.82299,-19.457)">
        <g transform="matrix(0.789063,0,0,0.645597,28.0929,80.5662)">
            <g id="market">
                <g>
                    <g>
                        <path d="M472,448L472,160L40,160L40,448" style="fill:rgb(213,206,194);fill-rule:nonzero;"/>
                        <rect x="40" y="256" width="240" height="128" style="fill:rgb(199,226,252);"/>
                        <path d="M40,256L40,384L200.416,384C238.424,352.936 264.24,307.512 269.552,256L40,256Z" style="fill:rgb(235,247,254);fill-rule:nonzero;"/>
                        <path d="M312,448L312,224L440,224L440,448" style="fill:rgb(250,223,178);fill-rule:nonzero;"/>
                        <g>
                            <rect x="312" y="224" width="128" height="32" style="fill:rgb(193,107,63);"/>
                            <rect x="40" y="384" width="240" height="64" style="fill:rgb(193,107,63);"/>
                            <rect x="40" y="224" width="240" height="32" style="fill:rgb(193,107,63);"/>
                        </g>
                        <path d="M16,128L16,80C16,71.16 23.16,64 32,64L480,64C488.84,64 496,71.16 496,80L496,128L16,128Z" style="fill:rgb(227,152,84);fill-rule:nonzero;"/>
                        <path d="M56,64L56,48C56,39.16 63.16,32 72,32L168,32L168,64L56,64Z" style="fill:rgb(193,107,63);fill-rule:nonzero;"/>
                        <path d="M456,64L456,48C456,39.16 448.84,32 440,32L344,32L344,64L456,64Z" style="fill:rgb(193,107,63);fill-rule:nonzero;"/>
                        <path d="M496,496L16,496L16,464C16,455.16 23.16,448 32,448L480,448C488.84,448 496,455.16 496,464L496,496Z" style="fill:rgb(227,152,84);fill-rule:nonzero;"/>
                        <path d="M40,192C26.744,192 16,181.256 16,168L16,128L64,128L64,168C64,181.256 53.256,192 40,192Z" style="fill:rgb(193,107,63);fill-rule:nonzero;"/>
                        <path d="M88,192C74.744,192 64,181.256 64,168L64,128L112,128L112,168C112,181.256 101.256,192 88,192Z" style="fill:rgb(231,228,221);fill-rule:nonzero;"/>
                        <path d="M136,192C122.744,192 112,181.256 112,168L112,128L160,128L160,168C160,181.256 149.256,192 136,192Z" style="fill:rgb(193,107,63);fill-rule:nonzero;"/>
                        <path d="M184,192C170.744,192 160,181.256 160,168L160,128L208,128L208,168C208,181.256 197.256,192 184,192Z" style="fill:rgb(231,228,221);fill-rule:nonzero;"/>
                        <path d="M232,192C218.744,192 208,181.256 208,168L208,128L256,128L256,168C256,181.256 245.256,192 232,192Z" style="fill:rgb(193,107,63);fill-rule:nonzero;"/>
                        <path d="M280,192C266.744,192 256,181.256 256,168L256,128L304,128L304,168C304,181.256 293.256,192 280,192Z" style="fill:rgb(231,228,221);fill-rule:nonzero;"/>
                        <path d="M328,192C314.744,192 304,181.256 304,168L304,128L352,128L352,168C352,181.256 341.256,192 328,192Z" style="fill:rgb(193,107,63);fill-rule:nonzero;"/>
                        <path d="M376,192C362.744,192 352,181.256 352,168L352,128L400,128L400,168C400,181.256 389.256,192 376,192Z" style="fill:rgb(231,228,221);fill-rule:nonzero;"/>
                        <path d="M424,192C410.744,192 400,181.256 400,168L400,128L448,128L448,168C448,181.256 437.256,192 424,192Z" style="fill:rgb(193,107,63);fill-rule:nonzero;"/>
                        <path d="M472,192C458.744,192 448,181.256 448,168L448,128L496,128L496,168C496,181.256 485.256,192 472,192Z" style="fill:rgb(231,228,221);fill-rule:nonzero;"/>
                        <path d="M336,96L176,96C171.584,96 168,92.416 168,88L168,24C168,19.584 171.584,16 176,16L336,16C340.416,16 344,19.584 344,24L344,88C344,92.416 340.416,96 336,96Z" style="fill:rgb(231,228,221);fill-rule:nonzero;"/>
                        <g transform="matrix(0.707,-0.707,0.707,0.707,-197.44,171.208)">
                            <rect x="68.4" y="315.984" width="79.192" height="16.008" style="fill:rgb(199,226,252);"/>
                        </g>
                        <g transform="matrix(0.707,-0.707,0.707,0.707,-176.36,222.112)">
                            <rect x="140.4" y="315.984" width="79.192" height="16.008" style="fill:rgb(199,226,252);"/>
                        </g>
                        <path d="M296,72L216,72C207.16,72 200,64.84 200,56C200,47.16 207.16,40 216,40L296,40C304.84,40 312,47.16 312,56C312,64.84 304.84,72 296,72Z" style="fill:rgb(193,107,63);fill-rule:nonzero;"/>
                        <g>
                            <path d="M344,351.984C335.176,351.984 328,344.816 328,335.992C328,327.16 335.176,319.992 344,319.992C352.824,319.992 360,327.16 360,335.992C359.992,344.816 352.816,351.984 344,351.984Z" style="fill:rgb(227,152,84);fill-rule:nonzero;"/>
                        </g>
                        <path d="M216,40C207.16,40 200,47.16 200,56C200,64.84 207.16,72 216,72L266.096,72C275.312,63.48 282.144,52.464 285.544,40L216,40Z" style="fill:rgb(227,152,84);fill-rule:nonzero;"/>
                        <g>
                            <path d="M504,79.592C504,66.36 493.232,55.592 480,55.592L464,55.592L464,47.592C464,34.36 453.232,23.592 440,23.592L352,23.592C352,14.76 344.824,7.592 336,7.592L176,7.592C167.176,7.592 160,14.76 160,23.592L72,23.592C58.768,23.592 48,34.36 48,47.592L48,55.592L32,55.592C18.768,55.592 8,66.36 8,79.592L8,167.584C8,182.456 18.232,194.872 32,198.448L32,439.584C18.768,439.584 8,450.36 8,463.584L8,495.592C8,500.008 11.584,503.592 16,503.592L496,503.592C500.416,503.592 504,500.008 504,495.592L504,463.584C504,450.36 493.232,439.584 480,439.584L479.992,439.584L479.992,198.456C493.76,194.88 503.992,182.464 503.992,167.592L503.992,127.592L504,127.592L504,79.592ZM439.992,39.592C444.408,39.592 447.992,43.176 447.992,47.592L447.992,55.592L352,55.592L352,39.592L439.992,39.592ZM176,23.592L336,23.592L336.008,87.584L176,87.584L176,23.592ZM64,47.592C64,43.176 67.584,39.592 72,39.592L160,39.592L160,55.592L64,55.592L64,47.592ZM32,71.592L160,71.592L160,87.584C160,96.416 167.176,103.584 176,103.584L336,103.584C344.824,103.584 352,96.416 352,87.584L352,71.592L480,71.592C484.408,71.592 488,75.176 488,79.592L488,119.592L24,119.592L24,79.592C24,75.176 27.584,71.592 32,71.592ZM440,135.592L440,167.584C440,176.416 432.824,183.584 424,183.584L423.992,183.584C415.176,183.584 408,176.416 408,167.584L408,135.592L440,135.592ZM392,135.592L392,167.584C392,176.416 384.824,183.584 376,183.584L375.992,183.584C367.176,183.584 360,176.416 360,167.584L360,135.592L392,135.592ZM344,135.592L344,167.584C344,176.416 336.824,183.584 328,183.584L327.992,183.584C319.176,183.584 312,176.416 312,167.584L312,135.592L344,135.592ZM296,135.592L296,167.584C296,176.416 288.824,183.584 280,183.584L279.992,183.584C271.176,183.584 264,176.416 264,167.584L264,135.592L296,135.592ZM248,135.592L248,167.584C248,176.416 240.824,183.584 232,183.584L231.992,183.584C223.176,183.584 216,176.416 216,167.584L216,135.592L248,135.592ZM200,135.592L200,167.584C200,176.416 192.824,183.584 184,183.584L183.992,183.584C175.176,183.584 168,176.416 168,167.584L168,135.592L200,135.592ZM120,135.592L152,135.592L152,167.584C152,176.416 144.824,183.584 136,183.584L135.992,183.584C127.176,183.584 120,176.416 120,167.584L120,135.592ZM72,135.592L104,135.592L104,167.584C104,176.416 96.824,183.584 88.008,183.584C79.184,183.584 72.008,176.416 72.008,167.584L72.008,135.592L72,135.592ZM24,167.584L24,135.592L56,135.592L56,167.584C56,176.416 48.824,183.584 40,183.584L39.992,183.584C31.176,183.584 24,176.416 24,167.584ZM47.992,263.584L271.992,263.584L271.992,375.592L47.992,375.592L47.992,263.584ZM272,247.592L48,247.592L48,231.592L272,231.592L272,247.592ZM47.992,391.584L271.992,391.584L271.992,439.584L47.992,439.584L47.992,391.584ZM488,463.584L488,487.592L24,487.592L24,463.584C24,459.176 27.592,455.584 32,455.584L480,455.584C484.408,455.584 488,459.176 488,463.584ZM432,247.592L320,247.592L320,231.592L432,231.592L432,247.592ZM320,263.584L432,263.584L432,439.584L320,439.584L320,263.584ZM448,439.584L448,223.592C448,219.168 444.424,215.592 440,215.592L312,215.592C307.576,215.592 304,219.168 304,223.592L304,439.584L288,439.584L288,223.592C288,219.168 284.424,215.592 280,215.592L48,215.592L48,198.448C54.32,196.808 59.832,193.304 64.008,188.528C69.88,195.248 78.408,199.584 88.008,199.584C97.608,199.584 106.136,195.248 112.008,188.528C117.88,195.248 126.408,199.584 136.008,199.584C145.608,199.584 154.136,195.248 160.008,188.528C165.88,195.248 174.408,199.584 184.008,199.584C193.608,199.584 202.136,195.248 208.008,188.528C213.88,195.248 222.408,199.584 232.008,199.584C241.608,199.584 250.136,195.248 256.008,188.528C261.88,195.248 270.408,199.584 280.008,199.584C289.608,199.584 298.136,195.248 304.008,188.528C309.88,195.248 318.408,199.584 328.008,199.584C337.608,199.584 346.136,195.248 352.008,188.528C357.88,195.248 366.408,199.584 376.008,199.584C385.608,199.584 394.136,195.248 400.008,188.528C405.88,195.248 414.408,199.584 424.008,199.584C433.608,199.584 442.136,195.248 448.008,188.528C452.176,193.304 457.688,196.808 464.008,198.448L464.008,439.584L448,439.584ZM488,167.584C488,176.416 480.824,183.584 472,183.584L471.992,183.584C463.176,183.584 456,176.416 456,167.584L456,135.592L488,135.592L488,167.584Z" style="fill-rule:nonzero;"/>
                            <g transform="matrix(0.707,-0.707,0.707,0.707,-197.152,171.088)">
                                <rect x="68.4" y="315.584" width="79.192" height="16.008"/>
                            </g>
                            <g transform="matrix(0.707,-0.707,0.707,0.707,-176.096,222.056)">
                                <rect x="140.4" y="315.584" width="79.192" height="16.008"/>
                            </g>
                            <path d="M296,31.592L216,31.592C202.768,31.592 192.008,42.36 192.008,55.592C192.008,68.816 202.768,79.584 216,79.584L296,79.584C309.232,79.584 320,68.816 320,55.592C320,42.36 309.232,31.592 296,31.592ZM296,63.584L216,63.584C211.584,63.584 208,60 208,55.592C208,51.176 211.584,47.592 215.992,47.592L295.992,47.592C300.408,47.592 303.992,51.176 303.992,55.592C304,60 300.408,63.584 296,63.584Z" style="fill-rule:nonzero;"/>
                            <path d="M344,319.592C335.176,319.592 328,326.76 328,335.592C328,344.416 335.176,351.584 344,351.584C352.824,351.584 360,344.416 360,335.592C360,326.768 352.824,319.592 344,319.592Z" style="fill-rule:nonzero;"/>
                        </g>
                    </g>
                </g>
            </g>
        </g>
        <g transform="matrix(4.78478,0,0,4.78478,-89.1997,66.5098)">
            <g transform="matrix(22.0636,0,0,22.0636,135.146,32.0867)">
                <path d="M0.072,-0.589L0.072,-0.716L0.209,-0.716L0.209,-0.589L0.072,-0.589ZM0.072,0L0.072,-0.519L0.209,-0.519L0.209,0L0.072,0Z" style="fill:rgb(227,152,84);fill-rule:nonzero;"/>
            </g>
            <g transform="matrix(22.0636,0,0,22.0636,141.276,32.0867)">
                <path d="M0.073,-0.716L0.359,-0.716C0.416,-0.716 0.458,-0.713 0.486,-0.709C0.514,-0.704 0.539,-0.694 0.561,-0.679C0.583,-0.664 0.601,-0.644 0.616,-0.619C0.63,-0.594 0.638,-0.567 0.638,-0.536C0.638,-0.502 0.629,-0.471 0.611,-0.443C0.593,-0.415 0.568,-0.394 0.537,-0.38C0.581,-0.368 0.614,-0.346 0.638,-0.315C0.661,-0.285 0.673,-0.249 0.673,-0.208C0.673,-0.175 0.665,-0.143 0.65,-0.113C0.635,-0.082 0.614,-0.057 0.588,-0.039C0.562,-0.02 0.53,-0.009 0.491,-0.005C0.467,-0.002 0.409,-0.001 0.317,0L0.073,0L0.073,-0.716ZM0.218,-0.597L0.218,-0.431L0.313,-0.431C0.369,-0.431 0.404,-0.432 0.417,-0.434C0.442,-0.437 0.462,-0.445 0.476,-0.459C0.49,-0.473 0.497,-0.492 0.497,-0.515C0.497,-0.537 0.491,-0.555 0.479,-0.569C0.467,-0.583 0.448,-0.591 0.424,-0.594C0.41,-0.596 0.369,-0.597 0.301,-0.597L0.218,-0.597ZM0.218,-0.312L0.218,-0.121L0.352,-0.121C0.404,-0.121 0.437,-0.122 0.451,-0.125C0.472,-0.129 0.49,-0.138 0.503,-0.154C0.517,-0.169 0.523,-0.189 0.523,-0.214C0.523,-0.236 0.518,-0.254 0.508,-0.269C0.497,-0.284 0.482,-0.295 0.463,-0.302C0.443,-0.309 0.4,-0.312 0.334,-0.312L0.218,-0.312Z" style="fill:rgb(227,152,84);fill-rule:nonzero;"/>
            </g>
            <g transform="matrix(22.0636,0,0,22.0636,157.21,32.0867)">
                <path d="M0.413,0L0.413,-0.078C0.394,-0.05 0.369,-0.028 0.339,-0.012C0.308,0.004 0.275,0.012 0.241,0.012C0.206,0.012 0.175,0.004 0.147,-0.011C0.12,-0.027 0.1,-0.048 0.087,-0.076C0.075,-0.103 0.069,-0.142 0.069,-0.19L0.069,-0.519L0.206,-0.519L0.206,-0.28C0.206,-0.207 0.209,-0.163 0.214,-0.146C0.219,-0.13 0.228,-0.117 0.241,-0.107C0.255,-0.098 0.271,-0.093 0.292,-0.093C0.315,-0.093 0.336,-0.099 0.355,-0.112C0.374,-0.125 0.386,-0.141 0.393,-0.16C0.4,-0.179 0.403,-0.226 0.403,-0.3L0.403,-0.519L0.541,-0.519L0.541,0L0.413,0Z" style="fill:rgb(227,152,84);fill-rule:nonzero;"/>
            </g>
            <g transform="matrix(22.0636,0,0,22.0636,170.687,32.0867)">
                <path d="M0.007,-0.519L0.153,-0.519L0.277,-0.15L0.398,-0.519L0.54,-0.519L0.357,-0.02L0.324,0.071C0.312,0.101 0.301,0.124 0.29,0.14C0.279,0.156 0.266,0.169 0.252,0.179C0.238,0.189 0.221,0.197 0.2,0.202C0.179,0.208 0.156,0.21 0.13,0.21C0.104,0.21 0.078,0.208 0.052,0.202L0.04,0.095C0.062,0.099 0.081,0.101 0.098,0.101C0.13,0.101 0.154,0.092 0.169,0.073C0.184,0.054 0.196,0.03 0.204,0.001L0.007,-0.519Z" style="fill:rgb(227,152,84);fill-rule:nonzero;"/>
            </g>
        </g>
        <g transform="matrix(3.96663,0,0,3.96663,-113.249,107.621)">
            <g transform="matrix(22.0636,0,0,22.0636,142.293,56.3)">
                <path d="M0.071,0L0.071,-0.716L0.287,-0.716L0.417,-0.228L0.545,-0.716L0.762,-0.716L0.762,0L0.628,0L0.628,-0.563L0.486,0L0.347,0L0.205,-0.563L0.205,0L0.071,0Z" style="fill:rgb(227,152,84);fill-rule:nonzero;"/>
            </g>
            <g transform="matrix(22.0636,0,0,22.0636,160.672,56.3)">
                <path d="M0.174,-0.36L0.05,-0.383C0.064,-0.433 0.088,-0.47 0.122,-0.494C0.156,-0.518 0.207,-0.53 0.274,-0.53C0.336,-0.53 0.381,-0.523 0.411,-0.509C0.441,-0.494 0.462,-0.476 0.474,-0.453C0.487,-0.431 0.493,-0.39 0.493,-0.331L0.491,-0.17C0.491,-0.125 0.493,-0.091 0.498,-0.07C0.502,-0.048 0.51,-0.025 0.522,0L0.387,0C0.383,-0.009 0.379,-0.023 0.374,-0.041C0.371,-0.049 0.37,-0.054 0.369,-0.057C0.345,-0.034 0.32,-0.017 0.293,-0.005C0.267,0.006 0.238,0.012 0.208,0.012C0.155,0.012 0.113,-0.003 0.082,-0.032C0.051,-0.061 0.036,-0.097 0.036,-0.142C0.036,-0.171 0.043,-0.197 0.057,-0.22C0.071,-0.243 0.09,-0.26 0.115,-0.273C0.141,-0.285 0.177,-0.296 0.225,-0.305C0.289,-0.317 0.333,-0.328 0.358,-0.338L0.358,-0.352C0.358,-0.378 0.351,-0.397 0.338,-0.408C0.325,-0.42 0.301,-0.425 0.265,-0.425C0.24,-0.425 0.221,-0.42 0.208,-0.411C0.194,-0.401 0.183,-0.384 0.174,-0.36ZM0.358,-0.249C0.34,-0.243 0.313,-0.236 0.274,-0.228C0.236,-0.22 0.211,-0.212 0.2,-0.204C0.182,-0.191 0.173,-0.175 0.173,-0.156C0.173,-0.137 0.18,-0.12 0.194,-0.106C0.209,-0.092 0.227,-0.085 0.249,-0.085C0.274,-0.085 0.297,-0.093 0.32,-0.109C0.336,-0.122 0.347,-0.137 0.353,-0.155C0.356,-0.167 0.358,-0.189 0.358,-0.222L0.358,-0.249Z" style="fill:rgb(227,152,84);fill-rule:nonzero;"/>
            </g>
            <g transform="matrix(22.0636,0,0,22.0636,172.943,56.3)">
                <path d="M0.203,0L0.066,0L0.066,-0.519L0.193,-0.519L0.193,-0.445C0.215,-0.48 0.235,-0.503 0.252,-0.514C0.27,-0.525 0.289,-0.53 0.312,-0.53C0.343,-0.53 0.373,-0.522 0.402,-0.504L0.359,-0.385C0.336,-0.4 0.315,-0.407 0.295,-0.407C0.276,-0.407 0.259,-0.402 0.246,-0.391C0.233,-0.381 0.222,-0.362 0.215,-0.334C0.207,-0.306 0.203,-0.248 0.203,-0.16L0.203,0Z" style="fill:rgb(227,152,84);fill-rule:nonzero;"/>
            </g>
            <g transform="matrix(22.0636,0,0,22.0636,181.529,56.3)">
                <path d="M0.067,0L0.067,-0.716L0.204,-0.716L0.204,-0.336L0.365,-0.519L0.534,-0.519L0.356,-0.329L0.546,0L0.398,0L0.268,-0.233L0.204,-0.166L0.204,0L0.067,0Z" style="fill:rgb(227,152,84);fill-rule:nonzero;"/>
            </g>
            <g transform="matrix(22.0636,0,0,22.0636,193.8,56.3)">
                <path d="M0.372,-0.165L0.509,-0.142C0.491,-0.092 0.463,-0.054 0.426,-0.028C0.388,-0.001 0.34,0.012 0.283,0.012C0.193,0.012 0.126,-0.018 0.083,-0.077C0.049,-0.124 0.032,-0.183 0.032,-0.255C0.032,-0.341 0.054,-0.409 0.099,-0.457C0.144,-0.506 0.201,-0.53 0.27,-0.53C0.347,-0.53 0.408,-0.505 0.452,-0.454C0.497,-0.403 0.518,-0.325 0.516,-0.22L0.172,-0.22C0.173,-0.179 0.184,-0.147 0.206,-0.125C0.227,-0.102 0.253,-0.091 0.285,-0.091C0.306,-0.091 0.324,-0.097 0.339,-0.108C0.354,-0.12 0.365,-0.139 0.372,-0.165ZM0.38,-0.304C0.379,-0.343 0.369,-0.374 0.349,-0.394C0.33,-0.415 0.306,-0.425 0.278,-0.425C0.248,-0.425 0.223,-0.414 0.204,-0.393C0.184,-0.371 0.174,-0.341 0.175,-0.304L0.38,-0.304Z" style="fill:rgb(227,152,84);fill-rule:nonzero;"/>
            </g>
            <g transform="matrix(22.0636,0,0,22.0636,206.07,56.3)">
                <path d="M0.31,-0.519L0.31,-0.409L0.216,-0.409L0.216,-0.2C0.216,-0.158 0.217,-0.133 0.219,-0.126C0.22,-0.119 0.224,-0.113 0.231,-0.109C0.237,-0.104 0.245,-0.102 0.254,-0.102C0.267,-0.102 0.285,-0.106 0.309,-0.115L0.321,-0.009C0.289,0.005 0.253,0.012 0.212,0.012C0.188,0.012 0.165,0.008 0.146,-0.001C0.126,-0.009 0.111,-0.02 0.102,-0.033C0.093,-0.046 0.086,-0.064 0.083,-0.086C0.08,-0.102 0.078,-0.135 0.078,-0.183L0.078,-0.409L0.015,-0.409L0.015,-0.519L0.078,-0.519L0.078,-0.622L0.216,-0.702L0.216,-0.519L0.31,-0.519Z" style="fill:rgb(227,152,84);fill-rule:nonzero;"/>
            </g>
            <g transform="matrix(22.0636,0,0,22.0636,213.418,56.3)">
                <path d="M0.068,-0.519L0.196,-0.519L0.196,-0.442C0.212,-0.468 0.235,-0.49 0.263,-0.506C0.292,-0.522 0.323,-0.53 0.357,-0.53C0.418,-0.53 0.469,-0.507 0.511,-0.459C0.553,-0.412 0.574,-0.347 0.574,-0.262C0.574,-0.176 0.553,-0.108 0.51,-0.06C0.468,-0.012 0.417,0.012 0.356,0.012C0.328,0.012 0.302,0.006 0.279,-0.005C0.255,-0.017 0.231,-0.036 0.205,-0.064L0.205,0.197L0.068,0.197L0.068,-0.519ZM0.204,-0.268C0.204,-0.21 0.215,-0.167 0.238,-0.139C0.261,-0.111 0.29,-0.097 0.323,-0.097C0.355,-0.097 0.381,-0.11 0.402,-0.135C0.424,-0.161 0.434,-0.203 0.434,-0.261C0.434,-0.316 0.423,-0.356 0.401,-0.382C0.38,-0.409 0.353,-0.422 0.32,-0.422C0.287,-0.422 0.259,-0.409 0.237,-0.383C0.215,-0.357 0.204,-0.319 0.204,-0.268Z" style="fill:rgb(227,152,84);fill-rule:nonzero;"/>
            </g>
            <g transform="matrix(22.0636,0,0,22.0636,226.895,56.3)">
                <rect x="0.072" y="-0.716" width="0.137" height="0.716" style="fill:rgb(227,152,84);fill-rule:nonzero;"/>
            </g>
            <g transform="matrix(22.0636,0,0,22.0636,233.025,56.3)">
                <path d="M0.174,-0.36L0.05,-0.383C0.064,-0.433 0.088,-0.47 0.122,-0.494C0.156,-0.518 0.207,-0.53 0.274,-0.53C0.336,-0.53 0.381,-0.523 0.411,-0.509C0.441,-0.494 0.462,-0.476 0.474,-0.453C0.487,-0.431 0.493,-0.39 0.493,-0.331L0.491,-0.17C0.491,-0.125 0.493,-0.091 0.498,-0.07C0.502,-0.048 0.51,-0.025 0.522,0L0.387,0C0.383,-0.009 0.379,-0.023 0.374,-0.041C0.371,-0.049 0.37,-0.054 0.369,-0.057C0.345,-0.034 0.32,-0.017 0.293,-0.005C0.267,0.006 0.238,0.012 0.208,0.012C0.155,0.012 0.113,-0.003 0.082,-0.032C0.051,-0.061 0.036,-0.097 0.036,-0.142C0.036,-0.171 0.043,-0.197 0.057,-0.22C0.071,-0.243 0.09,-0.26 0.115,-0.273C0.141,-0.285 0.177,-0.296 0.225,-0.305C0.289,-0.317 0.333,-0.328 0.358,-0.338L0.358,-0.352C0.358,-0.378 0.351,-0.397 0.338,-0.408C0.325,-0.42 0.301,-0.425 0.265,-0.425C0.24,-0.425 0.221,-0.42 0.208,-0.411C0.194,-0.401 0.183,-0.384 0.174,-0.36ZM0.358,-0.249C0.34,-0.243 0.313,-0.236 0.274,-0.228C0.236,-0.22 0.211,-0.212 0.2,-0.204C0.182,-0.191 0.173,-0.175 0.173,-0.156C0.173,-0.137 0.18,-0.12 0.194,-0.106C0.209,-0.092 0.227,-0.085 0.249,-0.085C0.274,-0.085 0.297,-0.093 0.32,-0.109C0.336,-0.122 0.347,-0.137 0.353,-0.155C0.356,-0.167 0.358,-0.189 0.358,-0.222L0.358,-0.249Z" style="fill:rgb(227,152,84);fill-rule:nonzero;"/>
            </g>
            <g transform="matrix(22.0636,0,0,22.0636,245.296,56.3)">
                <path d="M0.524,-0.365L0.389,-0.341C0.384,-0.368 0.374,-0.388 0.358,-0.402C0.342,-0.416 0.321,-0.422 0.295,-0.422C0.261,-0.422 0.233,-0.411 0.213,-0.387C0.193,-0.363 0.183,-0.324 0.183,-0.269C0.183,-0.207 0.193,-0.164 0.214,-0.138C0.234,-0.113 0.262,-0.1 0.297,-0.1C0.323,-0.1 0.344,-0.108 0.361,-0.122C0.377,-0.137 0.389,-0.163 0.396,-0.199L0.531,-0.176C0.517,-0.114 0.49,-0.067 0.45,-0.036C0.41,-0.004 0.357,0.012 0.291,0.012C0.215,0.012 0.154,-0.012 0.109,-0.06C0.064,-0.108 0.042,-0.174 0.042,-0.259C0.042,-0.344 0.064,-0.411 0.109,-0.459C0.155,-0.506 0.216,-0.53 0.293,-0.53C0.356,-0.53 0.406,-0.517 0.444,-0.49C0.481,-0.462 0.508,-0.421 0.524,-0.365Z" style="fill:rgb(227,152,84);fill-rule:nonzero;"/>
            </g>
            <g transform="matrix(22.0636,0,0,22.0636,257.566,56.3)">
                <path d="M0.372,-0.165L0.509,-0.142C0.491,-0.092 0.463,-0.054 0.426,-0.028C0.388,-0.001 0.34,0.012 0.283,0.012C0.193,0.012 0.126,-0.018 0.083,-0.077C0.049,-0.124 0.032,-0.183 0.032,-0.255C0.032,-0.341 0.054,-0.409 0.099,-0.457C0.144,-0.506 0.201,-0.53 0.27,-0.53C0.347,-0.53 0.408,-0.505 0.452,-0.454C0.497,-0.403 0.518,-0.325 0.516,-0.22L0.172,-0.22C0.173,-0.179 0.184,-0.147 0.206,-0.125C0.227,-0.102 0.253,-0.091 0.285,-0.091C0.306,-0.091 0.324,-0.097 0.339,-0.108C0.354,-0.12 0.365,-0.139 0.372,-0.165ZM0.38,-0.304C0.379,-0.343 0.369,-0.374 0.349,-0.394C0.33,-0.415 0.306,-0.425 0.278,-0.425C0.248,-0.425 0.223,-0.414 0.204,-0.393C0.184,-0.371 0.174,-0.341 0.175,-0.304L0.38,-0.304Z" style="fill:rgb(227,152,84);fill-rule:nonzero;"/>
            </g>
        </g>
    </g>
</svg>
