<svg width="140" height="90" fill="none" xmlns="http://www.w3.org/2000/svg"><path d="M78.051 45.5c0-2.024-.759-3.795-2.277-5.313-1.518-1.518-3.289-2.277-5.313-2.277-2.023 0-3.794.759-5.312 2.277-1.518 1.518-2.277 3.289-2.277 5.313 0 2.024.759 3.795 2.277 5.313 1.518 1.517 3.289 2.276 5.313 2.276 2.023 0 3.794-.758 5.312-2.276 1.518-1.518 2.277-3.29 2.277-5.313zm15.18-3.29v6.579c0 .253 0 .506-.253.759l-.506.506-5.566.758c-.253 1.013-.759 2.025-1.265 2.53.759 1.012 1.77 2.277 3.289 4.048.253.253.253.506.253.76 0 .252 0 .505-.253.758-.506.76-1.518 1.771-2.783 3.29-1.265 1.517-2.277 2.023-2.783 2.023-.253 0-.506 0-.759-.253l-4.3-3.289c-.76.506-1.772.76-2.784 1.012-.253 2.783-.506 4.554-.759 5.566 0 .759-.506 1.012-1.012 1.012h-6.577c-.253 0-.506 0-.76-.253-.252-.253-.252-.506-.252-.759l-.76-5.566c-1.011-.253-1.77-.759-2.782-1.012l-4.301 3.29c-.253.252-.506.252-.76.252-.252 0-.505 0-.758-.253-2.53-2.277-4.048-3.795-4.807-5.06-.253-.253-.253-.506-.253-.759s0-.506.253-.759c.253-.506.76-1.012 1.518-2.024.759-1.012 1.265-1.518 1.518-2.023-.506-1.013-1.012-2.025-1.265-3.036l-5.313-.76c-.253 0-.506-.252-.506-.252s-.253-.253-.253-.506V42.21c0-.253 0-.506.253-.76l.506-.505 5.566-.76c.253-1.011.759-1.77 1.265-2.782-.759-1.012-1.77-2.53-3.289-4.048-.253-.253-.253-.506-.253-.759s0-.506.253-.759c.506-.759 1.518-1.77 3.036-3.289 1.518-1.518 2.277-2.024 2.783-2.024.253 0 .506 0 .759.253l4.048 3.29c.759-.507 1.77-.76 2.783-1.013.253-2.783.506-4.554.759-5.566.253-.506.506-.759 1.012-.759h6.577c.253 0 .506 0 .76.253.252.253.252.506.252.76l.76 5.565c1.011.253 1.77.76 2.782 1.012l4.301-3.289c.253-.253.506-.253.76-.253.252 0 .505 0 .758.253 2.53 2.277 4.3 4.048 4.807 5.06.253.253.253.253.253.76 0 .252 0 .505-.253.758-.253.506-.76 1.012-1.518 2.024-.759 1.012-1.265 1.518-1.518 2.024.506 1.012 1.012 2.024 1.265 2.783l5.313.759c.253 0 .506.253.506.253s.253.506.253.759zm-68.308 5.061v-3.795c1.265 0 2.277-.506 3.036-1.518.759-1.012 1.012-2.277 1.012-3.794V22.73c0-3.036 1.012-5.566 2.783-7.337 2.024-2.024 4.048-2.783 6.578-2.783h4.553v4.301h-4.553c-1.265 0-2.53.506-3.542 1.771s-1.518 2.53-1.518 4.301v15.938c0 3.542-1.265 5.566-3.542 6.578 2.277 1.012 3.542 3.29 3.542 6.578v16.191c0 1.771.506 3.29 1.518 4.301 1.012 1.265 2.277 1.771 3.542 1.771h4.553v4.048h-4.553c-2.53 0-4.807-1.012-6.578-2.783-2.024-1.77-2.783-4.3-2.783-7.337V52.584c0-1.518-.253-2.783-1.012-3.795s-1.77-1.518-3.036-1.518zM98.29 74.088h4.554c1.265 0 2.53-.506 3.542-1.771s1.518-2.53 1.518-4.301V52.077c0-3.541 1.265-5.818 3.542-6.577-2.277-1.012-3.542-3.29-3.542-6.578V22.984c0-1.771-.506-3.29-1.518-4.301-1.012-1.265-2.277-1.771-3.542-1.771h-4.553V12.61h4.553c2.53 0 4.807 1.012 6.578 2.783 1.771 1.77 2.783 4.3 2.783 7.336v15.433c0 1.518.253 2.783 1.012 3.795s1.771 1.518 2.783 1.518v3.795c-1.012 0-1.771.506-2.53 1.518-.759 1.012-1.012 2.277-1.012 3.794V68.27c0 3.036-1.012 5.313-2.783 7.337-2.024 1.77-4.301 2.783-6.831 2.783h-4.553v-4.301z" fill="#1890ff"/></svg>