<svg width="465.01748046874997px" height="122.021240234375px" xmlns="http://www.w3.org/2000/svg" viewBox="17.491259765625017 13.9893798828125 465.01748046874997 122.021240234375" style="background:#596886" preserveAspectRatio="xMidYMid"><defs><filter id="editing-hover" x="-100%" y="-100%" width="300%" height="300%"><feFlood flood-color="#052b4a" result="flood"></feFlood><feComposite operator="in" in2="SourceAlpha" in="flood" result="shadow"></feComposite><feOffset dx="-4" dy="-4" in="SourceGraphic" result="offset-1"></feOffset><feOffset dx="4" dy="4" in="shadow" result="offset-2"></feOffset><feMerge><feMergeNode in="offset-2"></feMergeNode><feMergeNode in="offset-1"></feMergeNode></feMerge></filter></defs><g filter="url(#editing-hover)"><g transform="translate(86.70499876141548, 98.67218780517578)"><path d="M0.45-0.32L0.45-0.32L8.51-42.24L8.51-42.24Q16.06-42.88 20.93-42.88L20.93-42.88L20.93-42.88Q25.79-42.88 28.93-42.46L28.93-42.46L28.93-42.46Q32.06-42.05 34.18-40.96L34.18-40.96L34.18-40.96Q38.40-38.91 38.40-33.28L38.40-33.28L38.40-33.28Q38.40-30.02 35.58-27.26L35.58-27.26L35.58-27.26Q32.96-24.77 30.08-24.19L30.08-24.19L30.08-24.19Q33.15-23.68 35.33-21.38L35.33-21.38L35.33-21.38Q37.63-18.94 37.63-15.17L37.63-15.17L37.63-15.17Q37.63-7.87 32.19-3.62L32.19-3.62L32.19-3.62Q26.75 0.64 16.06 0.64L16.06 0.64L16.06 0.64Q8.70 0.64 0.45-0.32ZM17.86-20.61L14.66-4.03L14.66-4.03Q15.23-3.97 15.36-3.97L15.36-3.97L15.94-3.97L15.94-3.97Q21.18-3.97 23.42-7.42L23.42-7.42L23.42-7.42Q25.09-10.11 25.09-15.04L25.09-15.04L25.09-15.04Q25.09-17.66 23.39-19.07L23.39-19.07L23.39-19.07Q21.70-20.48 17.86-20.61L17.86-20.61ZM27.58-33.22L27.58-33.22L27.58-33.22Q27.58-38.53 22.46-38.53L22.46-38.53L21.89-38.53L21.89-38.53Q21.63-38.53 21.25-38.46L21.25-38.46L18.69-24.96L19.33-24.96L19.33-24.96Q27.58-25.15 27.58-33.22ZM61.89-17.98L61.89-17.98L61.89-17.98Q64.19-22.08 64.19-26.24L64.19-26.24L64.19-26.24Q64.19-28.99 62.21-28.99L62.21-28.99L62.21-28.99Q60.67-28.99 59.07-26.37L59.07-26.37L59.07-26.37Q57.41-23.74 56.90-20.35L56.90-20.35L53.57 0L40.32 1.28L46.85-32.64L57.41-33.92L56.26-27.46L56.26-27.46Q59.39-33.92 66.43-33.92L66.43-33.92L66.43-33.92Q70.14-33.92 72.16-32L72.16-32L72.16-32Q74.18-30.08 74.18-26.14L74.18-26.14L74.18-26.14Q74.18-22.21 71.58-19.71L71.58-19.71L71.58-19.71Q68.99-17.22 64.58-17.22L64.58-17.22L64.58-17.22Q62.66-17.22 61.89-17.98ZM77.98-1.92L77.98-1.92L77.98-1.92Q76.48-3.58 75.81-6.21L75.81-6.21L75.81-6.21Q75.14-8.83 75.14-13.12L75.14-13.12L75.14-13.12Q75.14-17.41 76.61-21.31L76.61-21.31L76.61-21.31Q78.08-25.22 80.77-28.03L80.77-28.03L80.77-28.03Q86.27-33.92 95.36-33.92L95.36-33.92L95.36-33.92Q98.62-33.92 100.99-32.83L100.99-32.83L111.94-33.92L107.20-8.96L107.20-8.96Q107.01-8.19 107.01-6.78L107.01-6.78L107.01-6.78Q107.01-5.38 107.87-4.48L107.87-4.48L107.87-4.48Q108.74-3.58 110.02-3.46L110.02-3.46L110.02-3.46Q109.38-1.28 107.04 0L107.04 0L107.04 0Q104.70 1.28 102.08 1.28L102.08 1.28L102.08 1.28Q99.46 1.28 97.70 0.29L97.70 0.29L97.70 0.29Q95.94-0.70 95.42-2.37L95.42-2.37L95.42-2.37Q94.40-0.77 92.22 0.26L92.22 0.26L92.22 0.26Q90.05 1.28 87.14 1.28L87.14 1.28L87.14 1.28Q84.22 1.28 81.86 0.51L81.86 0.51L81.86 0.51Q79.49-0.26 77.98-1.92ZM91.49-27.90L91.49-27.90L91.49-27.90Q90.75-26.75 90.11-24.80L90.11-24.80L90.11-24.80Q89.47-22.85 88.42-17.63L88.42-17.63L88.42-17.63Q87.36-12.42 87.36-8.70L87.36-8.70L87.36-8.70Q87.36-4.99 87.94-3.90L87.94-3.90L87.94-3.90Q88.51-2.82 89.54-2.82L89.54-2.82L89.54-2.82Q91.58-2.82 93.09-4.77L93.09-4.77L93.09-4.77Q94.59-6.72 95.17-10.18L95.17-10.18L98.56-28.93L98.56-28.93Q97.22-30.08 95.65-30.08L95.65-30.08L95.65-30.08Q94.08-30.08 93.15-29.57L93.15-29.57L93.15-29.57Q92.22-29.06 91.49-27.90ZM142.46 1.28L142.46 1.28L142.46 1.28Q134.72 1.28 134.72-4.74L134.72-4.74L134.72-4.74Q134.78-6.40 135.30-9.22L135.30-9.22L136.45-15.10L136.45-15.10Q138.18-23.42 138.18-25.28L138.18-25.28L138.18-25.28Q138.18-28.99 136-28.99L136-28.99L136-28.99Q132.35-28.99 130.43-19.46L130.43-19.46L126.66 0L113.79 1.28L120.45-32.70L130.94-33.92L129.92-27.65L129.92-27.65Q132.93-33.92 142.14-33.92L142.14-33.92L142.14-33.92Q146.62-33.92 148.51-32.03L148.51-32.03L148.51-32.03Q150.40-30.14 150.40-25.92L150.40-25.92L150.40-25.92Q150.40-21.95 148.35-12.67L148.35-12.67L148.35-12.67Q147.39-8.51 147.39-6.94L147.39-6.94L147.39-6.94Q147.39-5.38 148.26-4.48L148.26-4.48L148.26-4.48Q149.12-3.58 150.40-3.46L150.40-3.46L150.40-3.46Q149.76-1.28 147.55 0L147.55 0L147.55 0Q145.34 1.28 142.46 1.28ZM175.68-33.92L175.68-33.92L175.68-33.92Q177.98-33.92 179.78-33.41L179.78-33.41L179.78-33.41Q179.84-33.66 179.97-34.37L179.97-34.37L180.29-36.35L180.29-36.35Q180.54-37.63 180.93-39.74L180.93-39.74L181.95-44.80L194.69-46.08L187.58-8.96L187.58-8.96Q187.52-8.58 187.52-7.94L187.52-7.94L187.52-6.91L187.52-6.91Q187.52-5.50 188.22-4.45L188.22-4.45L188.22-4.45Q188.93-3.39 190.08-3.39L190.08-3.39L190.08-3.39Q188.80-0.38 184.90 0.90L184.90 0.90L184.90 0.90Q183.55 1.28 181.66 1.28L181.66 1.28L181.66 1.28Q179.78 1.28 178.05 0.29L178.05 0.29L178.05 0.29Q176.32-0.70 175.81-2.37L175.81-2.37L175.81-2.37Q174.78-0.70 172.74 0.29L172.74 0.29L172.74 0.29Q170.69 1.28 167.71 1.28L167.71 1.28L167.71 1.28Q164.74 1.28 162.27 0.51L162.27 0.51L162.27 0.51Q159.81-0.26 158.27-1.92L158.27-1.92L158.27-1.92Q155.46-5.18 155.46-12.61L155.46-12.61L155.46-12.61Q155.46-22.21 161.09-28.03L161.09-28.03L161.09-28.03Q166.72-33.92 175.68-33.92ZM175.23-30.08L175.23-30.08L175.23-30.08Q172.86-30.08 171.58-27.52L171.58-27.52L171.58-27.52Q170.30-24.96 168.99-18.62L168.99-18.62L168.99-18.62Q167.68-12.29 167.68-6.59L167.68-6.59L167.68-6.59Q167.68-2.69 169.98-2.69L169.98-2.69L169.98-2.69Q172.03-2.69 173.47-4.74L173.47-4.74L173.47-4.74Q174.91-6.78 175.49-10.18L175.49-10.18L178.94-28.93L178.94-28.93Q177.60-30.08 175.23-30.08ZM209.66-15.62L209.66-15.62L209.66-15.62Q209.66-27.71 215.94-35.33L215.94-35.33L215.94-35.33Q222.59-43.58 234.18-43.58L234.18-43.58L234.18-43.58Q242.56-43.58 246.78-39.52L246.78-39.52L246.78-39.52Q251.01-35.46 251.01-26.88L251.01-26.88L251.01-26.88Q251.01-13.82 244.35-6.21L244.35-6.21L244.35-6.21Q237.76 1.28 226.69 1.28L226.69 1.28L226.69 1.28Q218.05 1.28 213.86-3.04L213.86-3.04L213.86-3.04Q209.66-7.36 209.66-15.62ZM226.50-28.86L226.50-28.86L226.50-28.86Q223.62-17.34 223.62-8.26L223.62-8.26L223.62-8.26Q223.62-6.08 224.35-4.67L224.35-4.67L224.35-4.67Q225.09-3.26 227.04-3.26L227.04-3.26L227.04-3.26Q228.99-3.26 230.21-4.19L230.21-4.19L230.21-4.19Q231.42-5.12 232.38-7.23L232.38-7.23L232.38-7.23Q233.92-10.69 235.36-18.02L235.36-18.02L235.36-18.02Q236.80-25.34 236.93-28.38L236.93-28.38L236.93-28.38Q237.06-31.42 237.06-33.73L237.06-33.73L237.06-33.73Q237.06-36.03 236.35-37.50L236.35-37.50L236.35-37.50Q235.65-38.98 233.76-38.98L233.76-38.98L233.76-38.98Q231.87-38.98 230.59-37.82L230.59-37.82L230.59-37.82Q228.22-35.65 226.50-28.86ZM281.22 1.28L281.22 1.28L281.22 1.28Q273.47 1.28 273.47-4.74L273.47-4.74L273.47-4.74Q273.54-6.40 274.05-9.22L274.05-9.22L275.20-15.10L275.20-15.10Q276.93-23.42 276.93-25.28L276.93-25.28L276.93-25.28Q276.93-28.99 274.75-28.99L274.75-28.99L274.75-28.99Q271.10-28.99 269.18-19.46L269.18-19.46L265.41 0L252.54 1.28L259.20-32.70L269.70-33.92L268.67-27.65L268.67-27.65Q271.68-33.92 280.90-33.92L280.90-33.92L280.90-33.92Q285.38-33.92 287.26-32.03L287.26-32.03L287.26-32.03Q289.15-30.14 289.15-25.92L289.15-25.92L289.15-25.92Q289.15-21.95 287.10-12.67L287.10-12.67L287.10-12.67Q286.14-8.51 286.14-6.94L286.14-6.94L286.14-6.94Q286.14-5.38 287.01-4.48L287.01-4.48L287.01-4.48Q287.87-3.58 289.15-3.46L289.15-3.46L289.15-3.46Q288.51-1.28 286.30 0L286.30 0L286.30 0Q284.10 1.28 281.22 1.28ZM320.19-10.82L320.19-10.82L320.19-10.82Q321.79-9.73 321.79-7.33L321.79-7.33L321.79-7.33Q321.79-4.93 320.58-3.39L320.58-3.39L320.58-3.39Q319.36-1.86 317.38-0.83L317.38-0.83L317.38-0.83Q313.28 1.28 308.86 1.28L308.86 1.28L308.86 1.28Q304.45 1.28 301.86 0.32L301.86 0.32L301.86 0.32Q299.26-0.64 297.54-2.43L297.54-2.43L297.54-2.43Q294.14-5.82 294.14-12.03L294.14-12.03L294.14-12.03Q294.14-21.70 299.39-27.58L299.39-27.58L299.39-27.58Q305.02-33.92 314.82-33.92L314.82-33.92L314.82-33.92Q320.90-33.92 323.90-31.36L323.90-31.36L323.90-31.36Q326.14-29.44 326.14-26.30L326.14-26.30L326.14-26.30Q326.14-15.04 306.69-15.04L306.69-15.04L306.69-15.04Q306.43-13.38 306.43-11.97L306.43-11.97L306.43-11.97Q306.43-9.02 307.74-7.90L307.74-7.90L307.74-7.90Q309.06-6.78 311.49-6.78L311.49-6.78L311.49-6.78Q313.92-6.78 316.51-7.90L316.51-7.90L316.51-7.90Q319.10-9.02 320.19-10.82ZM307.14-17.79L307.14-17.79L307.14-17.79Q311.68-17.79 314.30-20.61L314.30-20.61L314.30-20.61Q316.93-23.30 316.93-27.58L316.93-27.58L316.93-27.58Q316.93-29.06 316.38-29.86L316.38-29.86L316.38-29.86Q315.84-30.66 314.75-30.66L314.75-30.66L314.75-30.66Q313.66-30.66 312.74-30.24L312.74-30.24L312.74-30.24Q311.81-29.82 310.85-28.42L310.85-28.42L310.85-28.42Q308.48-25.22 307.14-17.79Z" fill="#ffd5af"></path></g></g><style>text {
  font-size: 64px;
  font-family: Arial Black;
  dominant-baseline: central;
  text-anchor: middle;
}</style></svg>
