<?xml version="1.0" encoding="UTF-8" standalone="no"?>
<!DOCTYPE svg PUBLIC "-//W3C//DTD SVG 1.1//EN" "http://www.w3.org/Graphics/SVG/1.1/DTD/svg11.dtd">
<svg width="16px" height="16px" version="1.1" xmlns="http://www.w3.org/2000/svg" xmlns:xlink="http://www.w3.org/1999/xlink" xml:space="preserve" xmlns:serif="http://www.serif.com/" style="fill-rule:evenodd;clip-rule:evenodd;stroke-linejoin:round;stroke-miterlimit:2;">
    <g transform="matrix(0.571429,0,0,0.571429,0,0)">
        <path d="M20.4,0L7.6,0C3.4,0 0,3.4 0,7.6L0,20.4C0,24.6 3.4,28 7.6,28L20.4,28C24.6,28 28,24.6 28,20.4L28,7.6C28,3.4 24.6,0 20.4,0ZM26.4,20.4C26.4,23.7 23.7,26.3 20.5,26.3L7.6,26.3C4.3,26.3 1.7,23.6 1.7,20.4L1.7,7.6C1.7,4.3 4.4,1.7 7.6,1.7L20.4,1.7C23.7,1.7 26.3,4.4 26.3,7.6L26.4,20.4Z" style="fill:white;fill-rule:nonzero;"/>
    </g>
    <g transform="matrix(0.571429,0,0,0.571429,0,0)">
        <path d="M14,6.3C9.8,6.3 6.3,9.7 6.3,14C6.3,18.2 9.7,21.7 14,21.7C18.3,21.7 21.7,18.3 21.7,14C21.7,9.8 18.2,6.3 14,6.3ZM14,20C10.7,20 8,17.3 8,14C8,10.7 10.7,8 14,8C17.3,8 20,10.7 20,14C20,17.3 17.3,20 14,20ZM21.8,3.6C20.6,3.6 19.5,4.6 19.5,5.9C19.5,7.1 20.5,8.2 21.8,8.2C23,8.2 24.1,7.2 24.1,5.9C24.1,4.6 23.1,3.6 21.8,3.6ZM21.8,6.5C21.5,6.5 21.2,6.2 21.2,5.9C21.2,5.6 21.5,5.3 21.8,5.3C22.1,5.3 22.4,5.6 22.4,5.9C22.5,6.2 22.2,6.5 21.8,6.5Z" style="fill:white;fill-rule:nonzero;"/>
    </g>
    <g transform="matrix(0.571429,0,0,0.571429,0,0)">
        <path d="M20.4,0L7.6,0C3.4,0 0,3.4 0,7.6L0,20.4C0,24.6 3.4,28 7.6,28L20.4,28C24.6,28 28,24.6 28,20.4L28,7.6C28,3.4 24.6,0 20.4,0ZM26.4,20.4C26.4,23.7 23.7,26.3 20.5,26.3L7.6,26.3C4.3,26.3 1.7,23.6 1.7,20.4L1.7,7.6C1.7,4.3 4.4,1.7 7.6,1.7L20.4,1.7C23.7,1.7 26.3,4.4 26.3,7.6L26.4,20.4Z" style="fill:white;fill-rule:nonzero;"/>
    </g>
    <g transform="matrix(0.571429,0,0,0.571429,0,0)">
        <path d="M14,6.3C9.8,6.3 6.3,9.7 6.3,14C6.3,18.2 9.7,21.7 14,21.7C18.3,21.7 21.7,18.3 21.7,14C21.7,9.8 18.2,6.3 14,6.3ZM14,20C10.7,20 8,17.3 8,14C8,10.7 10.7,8 14,8C17.3,8 20,10.7 20,14C20,17.3 17.3,20 14,20ZM21.8,3.6C20.6,3.6 19.5,4.6 19.5,5.9C19.5,7.1 20.5,8.2 21.8,8.2C23,8.2 24.1,7.2 24.1,5.9C24.1,4.6 23.1,3.6 21.8,3.6ZM21.8,6.5C21.5,6.5 21.2,6.2 21.2,5.9C21.2,5.6 21.5,5.3 21.8,5.3C22.1,5.3 22.4,5.6 22.4,5.9C22.5,6.2 22.2,6.5 21.8,6.5Z" style="fill:white;fill-rule:nonzero;"/>
    </g>
</svg>
