<?xml version="1.0" encoding="UTF-8" standalone="no"?>
<!DOCTYPE svg PUBLIC "-//W3C//DTD SVG 1.1//EN" "http://www.w3.org/Graphics/SVG/1.1/DTD/svg11.dtd">
<svg width="16px" height="16px" version="1.1" xmlns="http://www.w3.org/2000/svg" xmlns:xlink="http://www.w3.org/1999/xlink" xml:space="preserve" xmlns:serif="http://www.serif.com/" style="fill-rule:evenodd;clip-rule:evenodd;stroke-linejoin:round;stroke-miterlimit:2;">
    <g id="LinkedIn" transform="matrix(0.0372007,0,0,0.0372007,0,0)">
        <path d="M430.1,252L430.1,411L337.9,411L337.9,262.6C337.9,225.3 324.6,199.9 291.2,199.9C265.7,199.9 250.6,217 243.9,233.6C241.5,239.5 240.8,247.8 240.8,256.1L240.8,411L148.6,411C148.6,411 149.8,159.7 148.6,133.7L240.8,133.7L240.8,173C240.6,173.3 240.4,173.6 240.2,173.9L240.8,173.9L240.8,173C253.1,154.1 274.9,127.2 323.9,127.2C384.6,127.2 430.1,166.8 430.1,252ZM52.2,0C20.6,0 0,20.7 0,47.9C0,74.5 20,95.8 51,95.8L51.6,95.8C83.8,95.8 103.8,74.5 103.8,47.9C103.1,20.7 83.7,0 52.2,0ZM5.5,411L97.7,411L97.7,133.7L5.5,133.7L5.5,411Z" style="fill:white;fill-rule:nonzero;"/>
    </g>
</svg>
