<?xml version="1.0" encoding="UTF-8" standalone="no"?>
<!DOCTYPE svg PUBLIC "-//W3C//DTD SVG 1.1//EN" "http://www.w3.org/Graphics/SVG/1.1/DTD/svg11.dtd">
<svg width="100%" height="100%" viewBox="0 0 2825 181" version="1.1" xmlns="http://www.w3.org/2000/svg" xmlns:xlink="http://www.w3.org/1999/xlink" xml:space="preserve" xmlns:serif="http://www.serif.com/" style="fill-rule:evenodd;clip-rule:evenodd;stroke-linejoin:round;stroke-miterlimit:2;">
    <g id="ShipStation" transform="matrix(4.26466,0,0,4.26466,-104.692,-126.482)">
        <g transform="matrix(1.26567,0,0,1.26567,25,2.8684)">
            <path d="M13.1,39.7L16.8,21.8L20.7,21.8L19.2,28.8L19.3,28.8C20.3,27.7 21.7,26.9 23.4,26.9C25.4,26.9 26.6,28.1 26.6,30.1C26.6,30.7 26.5,31.6 26.3,32.4L24.8,39.6L20.9,39.6L22.4,32.6C22.5,32.1 22.6,31.5 22.6,31C22.6,30.2 22.3,29.7 21.4,29.7C20.2,29.7 18.9,31.1 18.4,33.4L17.1,39.5L13.1,39.5L13.1,39.7ZM33.9,44.7L36.6,31.9C36.9,30.5 37.2,28.5 37.4,27.2L40.8,27.2L40.6,29.1L40.7,29.1C41.7,27.8 43.2,27 44.8,27C47.6,27 48.8,29.1 48.8,31.5C48.8,35.8 45.8,40 41.3,40C40.3,40 39.5,39.8 39,39.5L38.9,39.5L37.8,44.7L33.9,44.7ZM39.4,36.8C39.8,37.1 40.3,37.3 41,37.3C43.2,37.3 44.6,34.1 44.6,31.8C44.6,30.9 44.2,29.9 43.1,29.9C41.8,29.9 40.5,31.3 40.1,33.5L39.4,36.8ZM69.2,24L68.5,27.3L71.3,27.3L70.7,29.9L68,29.9L67,34.6C66.9,35.1 66.8,35.6 66.8,36C66.8,36.7 67.1,37 67.9,37C68.2,37 68.6,37 68.9,36.9L68.5,39.6C68,39.9 67,40 66.2,40C63.9,40 62.8,38.9 62.8,37.3C62.8,36.7 62.9,36 63.1,35.1L64.2,29.9L62.5,29.9L63.1,27.3L64.8,27.3L65.3,25L69.2,24ZM79,39.7C79,39 79.1,38.2 79.2,37.4L79.1,37.4C77.9,39.3 76.3,40 74.8,40C72.5,40 71,38.3 71,35.9C71,31.2 73.2,27.3 80.2,27.3C81.7,27.3 83.4,27.6 84.4,27.9L83,34.4C82.7,36 82.4,38.4 82.4,39.9L79,39.9L79,39.7ZM80.2,30C79.9,29.9 79.6,29.9 79.2,29.9C76.3,29.9 75,32.7 75,35.2C75,36.4 75.4,37.2 76.5,37.2C77.6,37.2 79,35.9 79.5,33.1L80.2,30ZM92.6,24L91.9,27.3L94.7,27.3L94.1,29.9L91.3,29.9L90.3,34.6C90.2,35.1 90.1,35.6 90.1,36C90.1,36.7 90.4,37 91.2,37C91.5,37 91.9,37 92.2,36.9L91.8,39.6C91.2,39.8 90.3,39.9 89.5,39.9C87.2,39.9 86.1,38.8 86.1,37.2C86.1,36.6 86.2,35.9 86.4,35L87.5,29.8L85.8,29.8L86.4,27.2L88.1,27.2L88.6,24.9L92.6,24ZM117.2,39.7L119,31.3C119.3,29.8 119.5,28.4 119.7,27.3L123.1,27.3L122.9,29.2L123,29.2C124.2,27.7 125.7,27 127.4,27C129.6,27 130.7,28.2 130.7,30.2C130.7,30.8 130.6,31.7 130.4,32.4L128.9,39.7L125,39.7L126.5,32.6C126.6,32.2 126.6,31.7 126.6,31.2C126.6,30.4 126.3,29.9 125.4,29.9C124.2,29.9 122.8,31.3 122.3,33.9L121.1,39.7L117.2,39.7ZM32.3,25.7C33.5,25.7 34.6,25 34.6,23.7C34.6,22.7 33.9,22 32.7,22C31.5,22 30.5,22.9 30.5,24C30.5,25 31.2,25.7 32.3,25.7ZM33.7,27.2L29.9,27.2L28.3,34.9C28.1,35.8 28,36.4 28,37.1C28,38.7 29.1,39.8 31.4,39.8C32.2,39.8 33.1,39.7 33.7,39.5L34.1,36.8C33.8,36.9 33.4,36.9 33.1,36.9C32.3,36.9 32,36.5 32,35.9C32,35.5 32.1,35 32.2,34.5L33.7,27.2ZM99.3,25.7C100.5,25.7 101.6,25 101.6,23.7C101.6,22.7 100.9,22 99.7,22C98.5,22 97.5,22.9 97.5,24C97.5,25 98.2,25.7 99.3,25.7ZM100.6,27.2L96.8,27.2L95.2,34.9C95,35.8 94.9,36.4 94.9,37.1C94.9,38.7 96,39.8 98.3,39.8C99.1,39.8 100,39.7 100.6,39.5L101,36.8C100.7,36.9 100.3,36.9 100,36.9C99.2,36.9 98.9,36.5 98.9,35.9C98.9,35.5 99,35 99.1,34.5L100.6,27.2ZM8.5,30C6.9,29.1 6,28.3 6,27.3C6,26.3 7,25.4 8.8,25.4C10.1,25.4 11.4,25.9 12.3,26.4L13,23.4L13,23.3C12.3,22.9 11,22.3 9,22.3C4.6,22.3 2,24.3 2,27.8C2,29.8 3.6,31.3 5.4,32.4C7,33.3 7.7,33.8 7.7,34.8C7.7,36.1 6.4,36.9 4.8,36.9C3.3,36.9 1.7,36.1 0.8,35.5L0,38.7C0.8,39.2 2.4,39.9 4.5,39.9C8.7,39.9 11.7,38.3 11.7,34.2C11.8,32.4 10.5,31.1 8.5,30ZM57.3,30C55.7,29.1 54.8,28.3 54.8,27.3C54.8,26.3 55.8,25.4 57.6,25.4C58.9,25.4 60.2,25.9 61.1,26.4L61.8,23.4L61.8,23.3C61.1,22.9 59.8,22.3 57.8,22.3C53.4,22.3 50.8,24.3 50.8,27.8C50.8,29.8 52.4,31.3 54.2,32.4C55.8,33.3 56.5,33.8 56.5,34.8C56.5,36.1 55.2,36.9 53.6,36.9C52.1,36.9 50.5,36.1 49.6,35.5L48.8,38.7C49.6,39.2 51.2,39.9 53.3,39.9C57.5,39.9 60.5,38.3 60.5,34.2C60.6,32.4 59.4,31.1 57.3,30Z" style="fill:rgb(0,68,127);fill-rule:nonzero;"/>
        </g>
        <g transform="matrix(1.26567,0,0,1.26567,25,2.8684)">
            <path d="M110.6,41.2L108.2,41.2L107.9,39.1C107.4,39 106.9,38.7 106.4,38.5L104.7,39.8L103,38.1L104.3,36.4C104,35.9 103.8,35.4 103.7,34.9L101.6,34.6L101.6,32L103.7,31.7C103.8,31.2 104.1,30.6 104.3,30.2L103,28.5L104.7,26.8L106.4,28.1C106.9,27.8 107.4,27.6 107.9,27.5L108.2,25.4L110.6,25.4L110.9,27.5C111.4,27.6 111.9,27.9 112.4,28.1L114.1,26.8L115.8,28.5L114.5,30.2C114.8,30.7 115,31.2 115.1,31.7L117.2,32L117.2,34.4L115.1,34.7C115,35.2 114.7,35.8 114.5,36.2L115.8,37.9L114.1,39.6L112.4,38.3C111.9,38.6 111.4,38.8 110.9,38.9L110.6,41.2ZM109.4,30.5C107.9,30.5 106.7,31.7 106.7,33.2C106.7,34.7 107.9,35.9 109.4,35.9C110.9,35.9 112.1,34.7 112.1,33.2C112,31.7 110.8,30.5 109.4,30.5Z" style="fill:rgb(122,190,59);fill-rule:nonzero;"/>
        </g>
    </g>
    <g id="ShipEngine" transform="matrix(4.13762,0,0,4.13762,949.711,98.3236)">
        <path id="Shape" d="M-11,-8C-11,-8.8 -11.3,-9.5 -11.9,-10.1C-12.5,-10.7 -13.2,-11 -14,-11C-14.8,-11 -15.5,-10.7 -16.1,-10.1C-16.7,-9.5 -17,-8.8 -17,-8C-17,-7.2 -16.7,-6.5 -16.1,-5.9C-15.5,-5.3 -14.8,-5 -14,-5C-13.2,-5 -12.5,-5.3 -11.9,-5.9C-11.3,-6.5 -11,-7.2 -11,-8ZM-5,-9.3L-5,-6.7C-5,-6.6 -5,-6.5 -5.1,-6.4C-5.2,-6.3 -5.2,-6.3 -5.3,-6.2L-7.5,-5.9C-7.6,-5.5 -7.8,-5.1 -8,-4.9C-7.7,-4.5 -7.3,-4 -6.7,-3.3C-6.6,-3.2 -6.6,-3.1 -6.6,-3C-6.6,-2.9 -6.6,-2.8 -6.7,-2.7C-6.9,-2.4 -7.3,-2 -7.8,-1.4C-8.3,-0.8 -8.7,-0.6 -8.9,-0.6C-9,-0.6 -9.1,-0.6 -9.2,-0.7L-10.9,-2C-11.2,-1.8 -11.6,-1.7 -12,-1.6C-12.1,-0.5 -12.2,0.2 -12.3,0.6C-12.3,0.9 -12.5,1 -12.7,1L-15.3,1C-15.4,1 -15.5,1 -15.6,0.9C-15.7,0.8 -15.7,0.7 -15.7,0.6L-16,-1.6C-16.4,-1.7 -16.7,-1.9 -17.1,-2L-18.8,-0.7C-18.9,-0.6 -19,-0.6 -19.1,-0.6C-19.2,-0.6 -19.3,-0.6 -19.4,-0.7C-20.4,-1.6 -21,-2.2 -21.3,-2.7C-21.4,-2.8 -21.4,-2.9 -21.4,-3C-21.4,-3.1 -21.4,-3.2 -21.3,-3.3C-21.2,-3.5 -21,-3.7 -20.7,-4.1C-20.4,-4.5 -20.2,-4.7 -20.1,-4.9C-20.3,-5.3 -20.5,-5.7 -20.6,-6.1L-22.7,-6.4C-22.8,-6.4 -22.9,-6.5 -22.9,-6.5C-22.9,-6.5 -23,-6.6 -23,-6.7L-23,-9.3C-23,-9.4 -23,-9.5 -22.9,-9.6C-22.8,-9.7 -22.8,-9.7 -22.7,-9.8L-20.5,-10.1C-20.4,-10.5 -20.2,-10.8 -20,-11.2C-20.3,-11.6 -20.7,-12.2 -21.3,-12.8C-21.4,-12.9 -21.4,-13 -21.4,-13.1C-21.4,-13.2 -21.4,-13.3 -21.3,-13.4C-21.1,-13.7 -20.7,-14.1 -20.1,-14.7C-19.5,-15.3 -19.2,-15.5 -19,-15.5C-18.9,-15.5 -18.8,-15.5 -18.7,-15.4L-17.1,-14.1C-16.8,-14.3 -16.4,-14.4 -16,-14.5C-15.9,-15.6 -15.8,-16.3 -15.7,-16.7C-15.6,-16.9 -15.5,-17 -15.3,-17L-12.7,-17C-12.6,-17 -12.5,-17 -12.4,-16.9C-12.3,-16.8 -12.3,-16.7 -12.3,-16.6L-12,-14.4C-11.6,-14.3 -11.3,-14.1 -10.9,-14L-9.2,-15.3C-9.1,-15.4 -9,-15.4 -8.9,-15.4C-8.8,-15.4 -8.7,-15.4 -8.6,-15.3C-7.6,-14.4 -6.9,-13.7 -6.7,-13.3C-6.6,-13.2 -6.6,-13.2 -6.6,-13C-6.6,-12.9 -6.6,-12.8 -6.7,-12.7C-6.8,-12.5 -7,-12.3 -7.3,-11.9C-7.6,-11.5 -7.8,-11.3 -7.9,-11.1C-7.7,-10.7 -7.5,-10.3 -7.4,-10L-5.3,-9.7C-5.2,-9.7 -5.1,-9.6 -5.1,-9.6C-5.1,-9.6 -5,-9.4 -5,-9.3Z" style="fill:rgb(69,170,242);fill-rule:nonzero;"/>
        <path id="Path-logo2" d="M-32,-7.3L-32,-8.8C-31.5,-8.8 -31.1,-9 -30.8,-9.4C-30.5,-9.8 -30.4,-10.3 -30.4,-10.9L-30.4,-17C-30.4,-18.2 -30,-19.2 -29.3,-19.9C-28.5,-20.7 -27.7,-21 -26.7,-21L-24.9,-21L-24.9,-19.3L-26.7,-19.3C-27.2,-19.3 -27.7,-19.1 -28.1,-18.6C-28.5,-18.1 -28.7,-17.6 -28.7,-16.9L-28.7,-10.6C-28.7,-9.2 -29.2,-8.4 -30.1,-8C-29.2,-7.6 -28.7,-6.7 -28.7,-5.4L-28.7,1C-28.7,1.7 -28.5,2.3 -28.1,2.7C-27.7,3.2 -27.2,3.4 -26.7,3.4L-24.9,3.4L-24.9,5L-26.7,5C-27.7,5 -28.6,4.6 -29.3,3.9C-30.1,3.2 -30.4,2.2 -30.4,1L-30.4,-5.2C-30.4,-5.8 -30.5,-6.3 -30.8,-6.7C-31.1,-7.1 -31.5,-7.3 -32,-7.3Z" style="fill:rgb(22,41,72);fill-rule:nonzero;"/>
        <path id="Path-logo3" d="M-3,3.3L-1.2,3.3C-0.7,3.3 -0.2,3.1 0.2,2.6C0.6,2.1 0.8,1.6 0.8,0.9L0.8,-5.4C0.8,-6.8 1.3,-7.7 2.2,-8C1.3,-8.4 0.8,-9.3 0.8,-10.6L0.8,-16.9C0.8,-17.6 0.6,-18.2 0.2,-18.6C-0.2,-19.1 -0.7,-19.3 -1.2,-19.3L-3,-19.3L-3,-21L-1.2,-21C-0.2,-21 0.7,-20.6 1.4,-19.9C2.1,-19.2 2.5,-18.2 2.5,-17L2.5,-10.9C2.5,-10.3 2.6,-9.8 2.9,-9.4C3.2,-9 3.6,-8.8 4,-8.8L4,-7.3C3.6,-7.3 3.3,-7.1 3,-6.7C2.7,-6.3 2.6,-5.8 2.6,-5.2L2.6,1C2.6,2.2 2.2,3.1 1.5,3.9C0.7,4.6 -0.2,5 -1.2,5L-3,5L-3,3.3Z" style="fill:rgb(22,41,72);fill-rule:nonzero;"/>
        <path id="SHIPENGINE" d="M12,-3.2L13,-4.5C13.5,-3.9 14.1,-3.5 14.8,-3.1C15.5,-2.7 16.3,-2.6 17.2,-2.6C17.8,-2.6 18.3,-2.7 18.7,-2.8C19.1,-2.9 19.5,-3.1 19.7,-3.4C20,-3.5 20.2,-3.8 20.3,-4C20.4,-4.3 20.5,-4.5 20.5,-4.8C20.5,-5.2 20.4,-5.5 20.2,-5.8C20,-6.1 19.8,-6.3 19.5,-6.5C19.2,-6.7 18.8,-6.8 18.4,-7C18,-7.2 17.6,-7.3 17.1,-7.4C16.6,-7.5 16.2,-7.6 15.8,-7.8C15.4,-7.9 14.9,-8.1 14.5,-8.3C14.1,-8.5 13.7,-8.7 13.4,-9C13.1,-9.3 12.8,-9.6 12.7,-10C12.5,-10.4 12.4,-10.9 12.4,-11.4C12.4,-12.5 12.8,-13.4 13.7,-14.1C14.6,-14.8 15.7,-15.1 17,-15.1C19,-15.1 20.6,-14.5 21.8,-13.2L20.8,-12C19.8,-13.1 18.5,-13.6 16.9,-13.6C16.1,-13.6 15.4,-13.4 14.9,-13C14.4,-12.6 14.1,-12.1 14.1,-11.5C14.1,-11.2 14.2,-10.9 14.4,-10.6C14.6,-10.3 14.8,-10.2 15.1,-10C15.4,-9.8 15.8,-9.7 16.2,-9.6C16.6,-9.5 17,-9.4 17.5,-9.2C18,-9 18.4,-8.8 18.8,-8.7C19.2,-8.6 19.7,-8.4 20.1,-8.2C20.5,-8 20.9,-7.8 21.2,-7.5C21.5,-7.2 21.8,-6.9 21.9,-6.5C22,-6.1 22.2,-5.6 22.2,-5.1C22.2,-4.7 22.1,-4.3 22,-3.9C21.9,-3.5 21.7,-3.2 21.5,-2.8C21.2,-2.5 20.9,-2.2 20.6,-1.9C20.2,-1.6 19.8,-1.4 19.2,-1.3C18.5,-1.1 17.9,-1 17.2,-1C15,-1 13.3,-1.7 12,-3.2ZM27.9,-1.2L27.9,-14.7L29.6,-14.7L29.6,-9L37.5,-9L37.5,-14.8L39.2,-14.8L39.2,-1.3L37.5,-1.3L37.5,-7.5L29.6,-7.5L29.6,-1.3L27.9,-1.3L27.9,-1.2ZM45.5,-1.2L45.5,-14.7L47.2,-14.7L47.2,-1.2L45.5,-1.2ZM53.6,-1.2L53.6,-14.7L59,-14.7C60.3,-14.7 61.3,-14.3 62.1,-13.5C62.9,-12.7 63.2,-11.7 63.2,-10.6C63.2,-9.5 62.8,-8.5 62.1,-7.7C61.3,-7 60.3,-6.6 59,-6.6L55.2,-6.6L55.2,-1.2L53.6,-1.2ZM55.3,-8.1L58.8,-8.1C59.6,-8.1 60.2,-8.3 60.8,-8.8C61.4,-9.3 61.6,-9.9 61.6,-10.7C61.6,-11.5 61.3,-12.1 60.8,-12.6C60.3,-13.1 59.6,-13.3 58.8,-13.3L55.3,-13.3L55.3,-8.1ZM68.3,-1.2L68.3,-14.7L78.2,-14.7L78.2,-11.7L71.8,-11.7L71.8,-9.6L78.1,-9.6L78.1,-6.6L71.8,-6.6L71.8,-4.3L78.2,-4.3L78.2,-1.3L68.3,-1.3L68.3,-1.2ZM83.5,-1.2L83.5,-14.7L87,-14.7L92.5,-7.3L92.5,-14.7L96,-14.7L96,-1.2L92.6,-1.2L86.9,-9L86.9,-1.2L83.5,-1.2ZM101,-8C101,-9 101.2,-10 101.6,-10.9C102,-11.8 102.5,-12.5 103.2,-13.1C103.9,-13.7 104.6,-14.2 105.5,-14.5C106.4,-14.8 107.3,-15 108.4,-15C109.1,-15 109.8,-14.9 110.4,-14.7C111,-14.5 111.6,-14.3 112,-14C112.5,-13.7 112.9,-13.3 113.2,-13C113.5,-12.6 113.8,-12.2 114.1,-11.8L111.2,-10.3C110.9,-10.8 110.5,-11.2 110,-11.5C109.5,-11.8 108.9,-12 108.3,-12C107.2,-12 106.3,-11.6 105.6,-10.9C104.9,-10.2 104.5,-9.2 104.5,-8.1C104.5,-7 104.9,-6.1 105.6,-5.3C106.3,-4.6 107.2,-4.2 108.3,-4.2C108.8,-4.2 109.2,-4.3 109.7,-4.4C110.2,-4.6 110.5,-4.8 110.8,-5L110.8,-6L107.8,-6L107.8,-9L114.3,-9L114.3,-3.6C112.7,-1.8 110.7,-1 108.3,-1C107.3,-1 106.3,-1.2 105.4,-1.5C104.5,-1.8 103.7,-2.3 103.1,-2.9C102.4,-3.5 101.9,-4.2 101.5,-5.1C101.2,-6 101,-7 101,-8ZM119.5,-1.2L119.5,-14.7L123,-14.7L123,-1.2L119.5,-1.2ZM128.6,-1.2L128.6,-14.7L132.2,-14.7L137.7,-7.3L137.7,-14.7L141.2,-14.7L141.2,-1.2L137.8,-1.2L132.1,-9L132.1,-1.2L128.6,-1.2ZM146.8,-1.2L146.8,-14.7L156.7,-14.7L156.7,-11.7L150.3,-11.7L150.3,-9.6L156.6,-9.6L156.6,-6.6L150.3,-6.6L150.3,-4.3L156.7,-4.3L156.7,-1.3L146.8,-1.3L146.8,-1.2Z" style="fill:rgb(22,41,72);fill-rule:nonzero;"/>
    </g>
    <g id="ShippingEasy" transform="matrix(3.24994,0,0,3.24994,1557,-385.366)">
        <g transform="matrix(0.108701,0,0,0.108701,19.1948,101.184)">
            <path d="M625.5,657.4C623.3,657.2 613.9,656.3 604.5,655.4C543.1,649.7 484.9,632.1 442.9,606.5L434.3,601.3L428.6,610.3C422.9,619.1 416.5,631.9 414.1,639.3C413.2,641.9 412.3,643 410.9,643C407.1,643 388.5,639.7 387.6,638.9C385.2,636.8 388.7,613.4 393.5,599.4C397.2,588.7 404.5,574.4 412.1,563C421.2,549.2 442,528.7 457,518.7C470.9,509.5 487.6,501.3 489.8,502.6C491,503.4 507.4,543.1 506.7,543.5C506.6,543.6 503.4,545.4 499.5,547.5C489,553.2 474.5,562.9 465.6,569.9L457.8,576.2L461.1,578.3C463,579.4 469.9,582.9 476.5,586C548.9,620.5 645.1,630.7 758,616C841.3,605.1 904.5,584.7 951,553.5C979.6,534.4 997.4,513.4 999.5,496.6C1001.1,484.2 996.4,471.4 987,462C980.6,455.6 967.4,448.3 956.9,445.4C953.6,444.5 950.6,443.1 950.3,442.4C950.1,441.7 953.9,431.1 958.9,418.8C969.2,393.2 967.5,394.8 980.7,398.9C1008.5,407.8 1032.9,428.3 1043.1,451.5C1044.2,454 1045.3,456 1045.5,456C1046.2,456 1051.1,439 1053.1,429.4C1055.3,418.7 1058,395.6 1058,386.8C1058,383.6 1058.1,381 1058.3,381C1058.4,380.9 1071.6,378.8 1087.5,376.1C1107.4,372.9 1116.7,371.7 1117.3,372.4C1118.3,373.8 1117.4,380.7 1114.4,395.2C1098.9,469.6 1054.6,533.1 987.3,577.2C926.7,617.1 853.1,641.1 756.8,652.4C745.1,653.8 730.3,655.4 724,656C713,657.1 633.8,658.2 625.5,657.4Z" style="fill:rgb(49,138,30);fill-rule:nonzero;"/>
        </g>
        <g transform="matrix(0.108701,0,0,0.108701,19.1948,101.184)">
            <path d="M555.3,600.6C543,597.5 531.3,588.4 527,578.7C519.3,561.3 520.2,530.6 529.1,508.2C542.4,474.6 573.8,453.4 613.5,451.3C636.1,450.2 650.5,457.3 655.7,472.4C658.1,479.2 658,492.5 655.6,500C647.8,523.7 620.1,541.7 590.8,542.3L581,542.5L581,548.5C581,562 588.5,565.8 606,561C614.6,558.6 628.6,552 637.8,546.1C641.3,543.8 644.5,542.2 645,542.5C645.4,542.8 647.5,550 649.6,558.6L653.5,574.2L649.5,577.6C640,585.5 620.4,593.7 599.4,598.5C585.2,601.8 563.9,602.8 555.3,600.6ZM598.8,517.9C608.1,513.4 614,503.8 614,493.3C614,487.8 612.5,486 607.9,486C597.3,486 588.9,495.5 584,513.1C582.9,517.2 582,520.9 582,521.4C582,523.1 592.6,520.9 598.8,517.9Z" style="fill:rgb(49,138,30);fill-rule:nonzero;"/>
        </g>
        <g transform="matrix(0.108701,0,0,0.108701,19.1948,101.184)">
            <path d="M678.2,581.2C668.6,577.7 662.5,569.7 661.4,559.3C660.1,546.7 665.2,532.9 674.7,522.8C684.7,512.3 696.2,505.7 721.9,495.6C747.1,485.6 752,482.4 752,475.9C752,460 719.9,469.2 686.9,494.6C683.9,496.9 680.9,498.5 680.3,498.2C679.8,497.8 677.8,489.8 676,480.3L672.6,463.1L675.1,461.1C683.9,453.5 703.3,442.5 718.1,436.7C727.7,432.9 742.9,429.3 755.1,427.9C781.3,425 798.7,432.9 804.6,450.2C806.7,456.4 806.9,466.4 805.2,491C804.5,500.1 803.7,519.2 803.4,533.5C803,547.8 802.4,560.4 802,561.5C801.3,563.3 798.2,564 775.4,567.8C761.3,570.1 749.3,571.7 748.9,571.3C748.5,570.8 748.6,565.8 749.1,560C749.5,554.3 749.8,549.5 749.6,549.3C749.5,549.2 747.5,551.9 745.2,555.5C739.6,564 732.3,570.3 722.5,575C712,580.1 704.6,582 693,582.6C685.3,583 682.5,582.7 678.2,581.2ZM731.9,541.6C738.3,538.3 743.9,529.4 748.3,515.5C752.8,501.4 753.2,502.1 744.5,508.1C733.2,515.9 727.5,521.4 724.6,527.2C722.1,532.2 721.3,538 722.6,541.4C723.4,543.4 728.2,543.5 731.9,541.6Z" style="fill:rgb(49,138,30);fill-rule:nonzero;"/>
        </g>
        <g transform="matrix(0.108701,0,0,0.108701,19.1948,101.184)">
            <path d="M844,551.5C840.4,550.7 835,549.1 832,547.9C825.5,545.2 816,539.4 816,538C816,537.5 819.6,529.6 823.9,520.5L831.8,504L838.9,507.5C854.3,515.1 873.9,519.1 879.9,515.8C883.8,513.7 886.4,509.5 885.6,506.6C884.8,503.3 882.1,502 866.6,497.6C841.7,490.6 833.2,482.7 832.2,466C830.8,442 847.7,419.8 876,408.7C890.7,402.9 910.8,400.8 925.7,403.4C935.4,405.1 945.2,408.3 946.8,410.3C947.5,411.1 945.8,416.5 941.4,427.5C937.9,436.3 934.9,443.9 934.8,444.3C934.6,444.8 930.4,444 925.5,442.6C913.9,439.2 901.4,437.7 895.9,438.9C891.1,440 887.4,443.2 886.5,447.2C885.9,449.5 886.3,450.2 889,451.8C890.7,452.9 897,454.8 902.8,456C921.8,459.8 930,463.2 936.2,469.7C941.9,475.6 944.4,482.1 944.4,491C944.2,518 922.7,541.6 890.5,550.1C880,552.9 853.8,553.7 844,551.5Z" style="fill:rgb(49,138,30);fill-rule:nonzero;"/>
        </g>
        <g transform="matrix(0.108701,0,0,0.108701,19.1948,101.184)">
            <path d="M206,496.4C190.8,493.4 173,485.4 173,481.4C173,480.5 187.5,449.5 188.6,448.2C188.7,448 192.1,449.4 196.2,451.3C218.9,462.1 238.1,463.4 242.2,454.5C245,448.4 241.6,445.8 224.9,441.4C210.6,437.7 203,434.1 197.2,428.3C191.4,422.4 189,416.3 189,407C189,379.5 211.2,356.2 245.2,348C262.1,343.9 281,344.4 295.7,349.2C306.3,352.7 306.3,352.4 299,370.7C295.5,379.4 292.4,386.9 292,387.3C291.6,387.8 288.2,387.3 284.4,386.2C267.8,381.3 252.7,380.3 248.1,383.8C244.4,386.5 242.7,391.2 244.5,393.7C246,395.9 248.5,396.7 265.9,400.5C284.5,404.5 293.8,410.1 299.2,420.3C301.2,423.9 301.5,426 301.5,434.5C301.5,442.9 301.1,445.7 298.7,452C293.3,466.9 281.2,479.4 264.5,487.5C251.4,493.9 241.6,496.1 223.5,496.5C215.3,496.7 207.4,496.6 206,496.4Z" style="fill:rgb(49,138,30);fill-rule:nonzero;"/>
        </g>
        <g transform="matrix(0.108701,0,0,0.108701,19.1948,101.184)">
            <path d="M317.6,472.8C313.4,447 313.4,239.9 317.6,219C318,216.9 324.2,212.9 353.1,195.7C377.7,181.1 388.5,175.1 389.3,175.9C390.4,177 390.3,177.7 378,284.9C374.1,318.2 371,346 371,346.8C371,347.5 372.7,346 374.9,343.3C387.5,327.2 407.2,318 428.5,318C444.1,318 452.2,322.5 458,334.4C462.4,343.2 462.7,350.9 460.1,381.5C459,395.3 457.3,416.9 456.4,429.5C455.5,442.2 454.4,452.9 454,453.3C452.8,454.6 395.6,463.9 394.6,462.9C394,462.4 394.3,456.9 395.3,449.1C399.2,417.7 402.3,382.4 401.6,376.8C400.2,365.9 394.5,361.4 385.2,363.9C368.9,368.2 363.5,386.8 362.1,444L361.5,469.4L342.5,472.7C317.9,476.8 318.2,476.8 317.6,472.8Z" style="fill:rgb(49,138,30);fill-rule:nonzero;"/>
        </g>
        <g transform="matrix(0.108701,0,0,0.108701,19.1948,101.184)">
            <path d="M1143,468.4C1134.9,464.9 1129.8,457 1129.8,448.1C1129.8,445 1130.3,441.2 1131,439.5C1135.1,428.9 1146.3,423.2 1157.8,425.9C1177.3,430.6 1180.7,457.7 1163.1,467.4C1157.4,470.4 1148.7,470.9 1143,468.4ZM1159.6,464.1C1169,459.8 1172.9,448.5 1168.1,439.2C1162.7,428.7 1149.4,426.3 1140.3,434.3C1124.7,448 1140.6,472.7 1159.6,464.1Z" style="fill:rgb(49,138,30);fill-rule:nonzero;"/>
        </g>
        <g transform="matrix(0.108701,0,0,0.108701,19.1948,101.184)">
            <path d="M1143,461L1143,435L1150.3,435C1158.6,435 1161.5,436.4 1162.5,440.9C1163.2,444.2 1161,449.4 1158.5,450.4C1157.1,450.9 1157.4,451.7 1159.9,455.4C1161.6,457.9 1163,460.1 1163,460.4C1163,460.7 1161.8,461 1160.3,461C1158.1,461 1156.8,459.9 1154.2,456C1149.9,449.4 1148,449.4 1148,456C1148,460.7 1147.8,461 1145.5,461L1143,461ZM1156.4,445.4C1159.7,442.1 1157.5,439 1151.8,439C1148,439 1148,439 1148,443C1148,446.9 1148.1,447 1151.4,447C1153.3,447 1155.6,446.3 1156.4,445.4Z" style="fill:rgb(49,138,30);fill-rule:nonzero;"/>
        </g>
        <g transform="matrix(0.108701,0,0,0.108701,19.1948,101.184)">
            <path d="M545.4,462.5C545,461.7 546.2,449.6 547.9,435.7C551.1,408.7 553.5,383.9 557.5,334.6C558.9,317.6 560.2,303.4 560.5,303.2C561.2,302.4 618.2,293 619,293.5C619.4,293.8 619.2,296.1 618.5,298.7C617.8,301.4 617,305.2 616.7,307.3L616.1,311.1L620.1,305.1C625.3,297.4 634,289.3 641.8,285.2C649.6,281 652.5,280.2 662.1,279C683.1,276.5 698.7,284.6 707.5,302.3C720.5,328.5 712.7,375 691,400.9C668.7,427.4 632.3,436.1 614.6,419.2C612.5,417.2 610,414.2 609,412.7L607.2,409.8L606.5,421.7C605.5,440.1 606,439.1 597.5,440.5C584.1,442.6 566.7,449.9 553.9,458.6C547.6,462.8 545.8,463.7 545.4,462.5ZM634.8,388.4C646.3,382.8 653,366.7 653,344.8C653,333.6 651.7,328.6 648,324.8C645.5,322.4 644.4,322 639.3,322C620.9,322 608,340.9 608,367.9C608,389.2 617.8,396.6 634.8,388.4Z" style="fill:rgb(49,138,30);fill-rule:nonzero;"/>
        </g>
        <g transform="matrix(0.108701,0,0,0.108701,19.1948,101.184)">
            <path d="M468.4,449.6C468.1,448.9 468.8,441.6 469.9,433.4C475.2,395 478.3,361.6 479.6,331.2C480.4,313.5 480.9,312 485.8,312C488.9,312 519.1,307 532.7,304.2C541.5,302.5 542,302.5 542.5,304.1C542.8,305.1 542,313.2 540.6,322.2C539.2,331.2 537.2,345.5 536.1,354C534.1,369.5 533.4,376.5 530.5,412.5C529.6,423 528.7,433.8 528.3,436.6L527.8,441.7L499.6,446.4C484.2,448.9 470.9,451 470.2,451C469.5,451 468.7,450.4 468.4,449.6Z" style="fill:rgb(49,138,30);fill-rule:nonzero;"/>
        </g>
        <g transform="matrix(0.108701,0,0,0.108701,19.1948,101.184)">
            <path d="M718.3,422.4C718,421.6 718.9,410.5 720.4,397.7C723,374.5 726.4,336.5 729.6,295.9L731.3,274.3L759.7,269.5C775.3,266.9 788.7,265.1 789.4,265.3C790.6,265.8 790.5,266.8 789.4,271.7C787.2,281.2 787.6,281.7 792.3,275.4C804.7,258.6 820.8,250 840,250C855.8,250 865.6,254.8 874.8,266.9C888.8,285.5 888.3,324.4 873.6,354.5C865,372 853.1,384.4 837.5,392.1C814,403.6 792.8,401.3 781.5,386.1C780.1,384.2 778.9,382.8 778.8,383.1C778.7,383.3 778.2,390 777.6,398L776.5,412.5L766,413.2C752,414.2 740.7,416.4 728.8,420.5C720.6,423.3 718.8,423.6 718.3,422.4ZM802.2,361.8C807.1,360.4 814.2,354.2 817.5,348.6C824.1,337.4 826.8,310.6 822.3,300.8C819.5,294.7 815.6,292.6 808.4,293.3C801.4,294 796.2,296.9 790.7,303C777.2,318 775.1,353.6 787.2,361C790.9,363.3 796.4,363.6 802.2,361.8Z" style="fill:rgb(49,138,30);fill-rule:nonzero;"/>
        </g>
        <g transform="matrix(0.108701,0,0,0.108701,19.1948,101.184)">
            <path d="M1193.3,413.4C1192.6,413.1 1194.1,408.7 1197.7,400.7C1200.7,394 1203.6,388 1204.1,387.4C1204.6,386.7 1206.5,385.9 1208.3,385.6C1213.7,384.6 1225.2,378.6 1230.1,374.2C1235.6,369.3 1239.5,361.2 1238.6,356.6C1237.7,352.4 1234.3,349 1230.8,349C1229.3,349 1215.8,351.1 1200.8,353.6C1163.1,359.9 1154.5,359.3 1145.1,349.9C1141.1,345.9 1138.5,340.9 1137.1,334.3C1134.9,323.6 1139.7,310.2 1150.8,296.4L1155.8,290.3L1150.6,286.8C1140.6,280.1 1136,270.9 1136,257.6C1136.1,224.4 1164.3,196.5 1207,187.5C1217.7,185.2 1235.2,184.5 1244.6,185.9L1252.5,187.1L1275.9,181C1291.2,177 1299.7,175.3 1300.3,175.9C1300.9,176.5 1300.5,181.9 1299,191.4C1296.9,204.2 1296.4,205.9 1294.6,206.4C1293.4,206.6 1288.9,207.4 1284.4,208.1L1276.3,209.3L1277.1,212.9C1278.4,218.5 1278.1,229.9 1276.5,236.9C1274.2,246.6 1267.7,258.1 1260.1,266C1244.2,282.3 1221.6,292 1192,295.2L1180.5,296.5L1180.2,300.7C1179.9,304.5 1180.1,305 1182.4,305.6C1183.8,305.9 1198.9,303.8 1216.2,300.9C1250.4,295.2 1259.4,294.6 1267.9,297.5C1284.9,303.1 1292.6,323.5 1287.4,348.8C1281.9,375.7 1260.6,396.4 1228,406.8C1214.2,411.2 1196.1,414.6 1193.3,413.4ZM1209.8,264.1C1218,259.9 1222.1,251.9 1222.8,238.9C1223.4,226.5 1220.7,222 1212.5,222C1204.3,222 1197.2,227.3 1194,235.7C1189.8,247 1190.4,260.2 1195.4,264.2C1198.2,266.5 1205.1,266.5 1209.8,264.1Z" style="fill:rgb(49,138,30);fill-rule:nonzero;"/>
        </g>
        <g transform="matrix(0.108701,0,0,0.108701,19.1948,101.184)">
            <path d="M886.6,381.2C886.4,380.8 887.5,370.3 889.1,358C892.9,328.7 895.6,301.8 896.9,280C897.5,270.4 898.3,258.2 898.6,253L899.2,243.4L912.3,241.7C919.6,240.7 933.3,238.4 942.8,236.6C956.5,234 960.3,233.6 960.7,234.6C961,235.3 960,243.3 958.6,252.2C953.9,282.6 952,299.5 948.5,344C946.3,371.9 946.3,371.8 943.1,372.4C941.7,372.7 929.5,374.8 916,377C902.5,379.2 890.5,381.2 889.3,381.5C888.1,381.8 886.9,381.7 886.6,381.2Z" style="fill:rgb(49,138,30);fill-rule:nonzero;"/>
        </g>
        <g transform="matrix(0.108701,0,0,0.108701,19.1948,101.184)">
            <path d="M963.7,368.3C963.4,367.9 964.3,359.2 965.6,349C969,323.3 978,242.3 978,237.7C978,234.7 978.5,233.8 980.3,233.1C981.5,232.7 994.3,230.4 1008.8,228C1028.3,224.8 1035.4,224 1036.2,224.8C1037,225.6 1037.1,227.8 1036.3,232.7C1035.4,238.9 1035.4,239.2 1036.8,236.9C1037.7,235.6 1041.8,231.1 1046,226.9C1051.9,220.9 1055.4,218.4 1062,215.2C1076.4,208.4 1093.3,206.1 1104.7,209.5C1111.3,211.5 1118.2,217.6 1121.7,224.8C1125.3,232.2 1125.8,243.4 1123.6,269.9C1122.7,280.7 1121.1,301.4 1120,315.9C1118.9,330.4 1117.7,342.6 1117.3,343C1115.9,344.2 1058.8,353.2 1058,352.3C1057.5,351.9 1058,345.2 1059,337.5C1062,314.7 1065.1,282.8 1065.1,273.7C1065.2,258.5 1062.1,253 1053.4,253C1047.8,253 1044.2,254.4 1040.2,258.3C1035.7,262.6 1032.2,269.8 1030.4,277.9C1028.7,286.1 1024.4,328.8 1023.4,346.3C1022.8,358.2 1022.6,359.1 1020.6,359.5C1019.5,359.8 1007.5,361.8 994,364C980.5,366.2 968.3,368.3 966.8,368.6C965.4,368.9 964,368.8 963.7,368.3Z" style="fill:rgb(49,138,30);fill-rule:nonzero;"/>
        </g>
        <g transform="matrix(0.108701,0,0,0.108701,19.1948,101.184)">
            <path d="M498.2,293.5C488.3,288.5 484.5,280.9 485.2,267.8C486.3,246.6 507,227.3 526.6,229.3C532.9,229.9 536.8,231.9 541.4,236.6C546.6,241.9 548.3,247.3 547.9,256.7C546.9,276.9 530,294.6 510.6,295.7C504.4,296.1 502.8,295.8 498.2,293.5ZM534.6,258.6C537.3,255.9 538,254.4 538,251.3C538,242.9 530.6,240.2 524.4,246.4C521.6,249.2 521,250.6 521,253.9C521,262.1 528.5,264.7 534.6,258.6Z" style="fill:rgb(49,138,30);fill-rule:nonzero;"/>
        </g>
        <g transform="matrix(0.108701,0,0,0.108701,19.1948,101.184)">
            <path d="M922,226.1C914.5,224.5 907.4,218.7 904.5,211.5C902.1,205.9 902.3,194.9 905,187.9C911.2,171.2 926.1,160 941.8,160C952.9,160.1 959.7,164.5 964.3,174.9C968.9,185.2 964.4,202.3 954.3,213.1C944.9,223.2 932.4,228.2 922,226.1ZM952.3,189.2C959.4,181.8 953.9,170 945.3,174.2C939.2,177.2 936.6,185.7 940.5,190C943.3,193.1 948.9,192.7 952.3,189.2Z" style="fill:rgb(49,138,30);fill-rule:nonzero;"/>
        </g>
    </g>
    <g id="ShipWorks" transform="matrix(0.631115,0,0,0.573932,882.685,223.846)">
        <g id="Path_1051" transform="matrix(1,0,0,1,2037.66,-321.548)">
            <path d="M101.593,97.578L102.293,97.578L61.656,122.1L4.2,97.578L0,26.113L49.045,12.1L49.045,21.909L51.145,21.909L20.319,31.017L42.74,34.517L69.364,27.511L86.179,32.411L61.656,38.024L9.809,28.915L0,27.514L17.516,31.714L18.916,59.039L39.235,66.045L39.235,38.024L59.554,42.924L62.354,120.695L62.354,42.928L88.281,33.82L90.381,33.82L98.088,35.92L101.593,97.578Z" style="fill:rgb(230,183,10);fill-rule:nonzero;"/>
        </g>
        <g id="Path_1052" transform="matrix(1,0,0,1,2052.68,-313.139)">
            <path d="M2.5,23.309L3.9,49.933L24.22,56.94L24.22,28.914L3.2,23.309M37.532,13.5L5.3,22.608L27.721,26.108L54.345,19.102L36.831,13.5" style="fill:rgb(241,211,131);fill-rule:nonzero;"/>
        </g>
        <g id="Path_1053" transform="matrix(1,0,0,1,2121.75,-323.951)">
            <path d="M73.554,17.305L82.662,14.505L101.579,19.405L51.835,36.222L74.256,40.422L122.6,24.312L73.554,11.7L73.554,17.305ZM74.954,112.592L74.954,123.8L72.154,46.029L50.434,39.723L50.434,66.35L30.815,60.745L29.415,39.726L24.515,41.826L14,38.324L18.2,100.681L74.956,125.2L121.2,97.178L123.3,25.012L78.459,45.331L74.954,112.592Z" style="fill:rgb(210,35,42);fill-rule:nonzero;"/>
        </g>
        <g id="Path_1054" transform="matrix(1,0,0,1,2134.97,-322.149)">
            <path d="M36.519,37.223L36.519,63.847L16.2,58.242L16.2,37.223L23.206,33.723L36.519,37.223ZM70.149,12L60.34,15.5L60.34,19L26.71,32.319L38.621,34.419L89.067,16.9L70.149,12Z" style="fill:rgb(227,139,114);fill-rule:nonzero;"/>
        </g>
        <g id="Path_1055" transform="matrix(1,0,0,1,2076.1,-390.622)">
            <path d="M43.534,20.218L6.4,14.613L64.553,0.6L122.006,11.11L69.458,23.721L51.241,20.921L100.987,7.606L79.267,3.4L27.419,17.415L43.534,20.218ZM72.26,27.925L69.46,107.798L119.2,87.479L122,11.109L72.26,27.925ZM66.655,28.625L69.455,107.797L11.3,90.282L6.4,14.613L66.655,28.625ZM46.337,51.046L46.337,23.721L24.617,18.821L26.017,45.445L46.337,51.046Z" style="fill:rgb(0,103,177);fill-rule:nonzero;"/>
        </g>
        <g id="Path_1056" transform="matrix(1,0,0,1,2091.72,-388.219)">
            <path d="M9,16.414L10.4,43.038L30.72,48.644L30.72,21.319L9,16.414M63.65,1L11.8,15.013L35.622,18.513L85.37,5.2L63.65,1" style="fill:rgb(116,154,207);fill-rule:nonzero;"/>
        </g>
        <g id="Path_1057" transform="matrix(1,0,0,1,2099.77,-378.701)">
            <path d="M248.971,75.559C232.156,62.947 209.034,60.145 209.034,44.731C209.034,29.317 218.843,29.317 227.251,29.317C236.856,30.129 246.176,32.997 254.576,37.725L256.676,35.625L262.982,22.313L264.382,19.513C264.382,16.013 245.465,6.901 226.547,6.901C207.629,6.901 183.808,19.513 183.808,48.239C182.836,60.911 189.447,73.024 200.63,79.062C220.248,91.674 240.567,93.775 240.567,111.291C240.657,111.995 240.702,112.704 240.702,113.414C240.702,122.638 233.111,130.229 223.887,130.229C223.608,130.229 223.329,130.222 223.051,130.208C211.767,129.594 200.758,126.483 190.821,121.1C189.669,121.1 188.721,122.048 188.721,123.2L183.821,136.512C183.657,137.691 183.423,138.86 183.121,140.012C183.121,142.812 203.44,151.923 223.758,151.923C244.076,151.923 265.096,135.108 265.096,109.184C265.735,95.987 259.667,83.323 248.981,75.553L248.971,75.559ZM328.844,46.132C318.84,46.2 309.26,50.234 302.22,57.342L302.22,7.6C302.22,4.1 302.22,3.4 300.12,3.4L298.02,3.4L281.2,6.9C279.1,7.6 277.7,7.6 277.7,11.1L277.7,145.622C277.7,147.722 277.7,148.422 280.5,148.422L299.42,148.422C302.22,148.422 302.22,147.722 302.22,145.622L302.22,75.558C306.32,70.43 312.473,67.354 319.035,67.15C328.844,67.15 329.545,76.258 329.545,83.265L329.545,145.622C329.545,147.722 330.245,148.422 332.345,148.422L351.262,148.422C354.062,148.422 354.062,147.722 354.062,145.622L354.062,77.66C354.062,60.144 349.862,46.131 328.839,46.131L328.844,46.132ZM398.908,48.932L362.478,48.932C359.678,48.932 359.678,49.632 359.678,52.432L359.678,65.049C359.678,67.149 359.678,67.849 362.478,67.849L377.191,67.849L377.191,145.62C377.191,147.72 377.891,148.42 379.991,148.42L398.908,148.42C401.708,148.42 401.708,147.72 401.708,145.62L401.708,52.437C401.713,50.335 401.013,48.934 398.911,48.934L398.908,48.932ZM389.1,3.392C380.26,3.392 372.985,10.667 372.985,19.507C372.975,19.739 372.97,19.971 372.97,20.202C372.97,29.051 380.251,36.332 389.1,36.332C397.949,36.332 405.23,29.051 405.23,20.202C405.23,19.971 405.225,19.739 405.215,19.507C405.215,10.667 397.94,3.392 389.1,3.392ZM467.572,46.131C458.377,45.748 449.444,49.321 443.05,55.94C440.95,49.634 439.55,46.131 436.744,46.131L433.944,46.131L419.231,51.031C417.831,51.731 417.131,52.431 417.131,53.831C420.266,63.787 421.455,74.254 420.631,84.659L420.631,186.26C420.631,189.76 420.631,190.46 422.031,190.46L424.831,190.46L441.646,186.96C443.746,186.96 445.146,186.26 445.146,183.46L445.146,146.323C451.098,150.415 458.257,152.39 465.465,151.928C490.688,151.928 501.198,132.31 501.198,97.278C501.198,62.246 489.287,46.131 467.567,46.131L467.572,46.131ZM459.164,131.609C454.236,132.02 449.307,130.789 445.151,128.109L445.151,73.456C449.005,68.873 454.587,66.082 460.565,65.749C472.476,65.749 475.979,76.959 475.979,97.978C475.979,118.997 472.479,131.609 459.164,131.609ZM643.435,14.6C643.435,13.2 641.335,13.2 639.935,12.5L625.218,9.7L622.418,9.7C621.018,9.7 620.318,9.7 618.918,13.9L607.7,78.361C605.6,89.571 603.5,106.387 602.8,116.196C601.4,104.986 599.3,88.871 597.195,78.361L583.88,16.7C582.48,12.5 582.48,10.394 578.98,10.394L565.663,10.394C561.463,10.394 561.463,12.494 560.058,16.7L546.045,77.66C543.442,90.152 541.571,102.785 540.44,115.495L539.74,115.495C539.04,105.686 537.64,88.871 535.54,77.66L523.625,13.2C522.925,9 522.225,9 520.825,9L518.025,9L503.312,12.5C501.912,13.2 499.812,13.2 499.812,14.6C499.812,16 500.512,17.4 500.512,19.5L525.735,147.017C526.435,149.817 527.135,150.517 529.935,150.517L546.75,150.517C550.25,150.517 550.25,149.817 550.95,147.017L567.065,79.756C569.366,68.204 570.77,56.492 571.265,44.724L571.965,44.724C572.766,56.465 574.168,68.158 576.165,79.756L588.777,147.017C589.477,149.817 590.177,150.517 593.677,150.517L609.8,150.517C613.3,150.517 613.3,149.817 614.7,147.017L642.734,19.507C642.734,17.407 643.434,16.007 643.434,14.607L643.435,14.6ZM680.569,46.129C654.645,46.129 638.531,66.448 638.531,98.677C638.531,130.906 654.646,151.926 680.569,151.926C706.492,151.926 722.607,130.907 722.607,98.677C722.607,66.447 706.492,46.131 680.569,46.131L680.569,46.129ZM680.569,131.607C666.556,131.607 664.454,117.594 664.454,98.677C664.454,79.76 666.554,65.747 680.569,65.747C694.584,65.747 696.684,80.46 696.684,98.677C696.684,116.894 693.881,131.61 680.569,131.61L680.569,131.607ZM781.461,46.131C768.149,46.131 761.843,56.641 757.639,61.545C756.939,54.539 752.739,46.131 750.633,46.131L748.533,46.131L733.819,51.736L731.719,53.836C731.719,58.736 736.619,62.244 736.619,83.964L736.619,145.62C736.619,147.72 737.319,148.42 739.419,148.42L758.34,148.42C761.14,148.42 761.14,147.72 761.14,145.62L761.14,78.361C763.94,75.561 770.248,69.253 775.853,69.253C778.985,69.438 782.064,70.148 784.961,71.353C785.661,71.353 786.361,69.953 786.361,69.253L792.667,52.438L792.667,50.338C793.367,48.238 787.767,46.138 781.457,46.138L781.461,46.131ZM883.054,138.616L883.054,137.216L882.354,137.216L847.322,93.776L878.85,62.246L880.95,59.446L879.55,57.346L869.741,48.938C868.341,47.538 867.641,46.838 866.241,46.838L864.141,48.938L826.3,87.469L826.3,7.6C826.3,4.1 826.3,3.4 824.9,3.4L822.1,3.4L805.283,6.9C803.183,7.6 801.783,8.3 801.783,11.1L801.783,145.622C801.783,147.722 801.783,148.422 804.583,148.422L823.5,148.422C826.3,148.422 826.3,147.722 826.3,145.622L826.3,102.182L862.033,149.826C862.733,150.526 863.433,151.926 864.133,151.926L866.933,151.926L883.048,142.818C883.432,142.818 883.748,142.502 883.748,142.118C883.748,140.018 883.048,139.318 883.048,138.618L883.054,138.616ZM939.806,95.176C925.793,85.367 908.978,86.768 908.978,75.558C908.978,64.348 913.878,65.749 921.59,65.749C929.38,65.976 937.029,67.888 944.01,71.354L945.41,69.254L950.31,58.744C950.31,58.044 951.01,56.644 951.01,55.944C951.01,55.244 932.793,46.135 920.882,46.135C920.18,46.089 919.476,46.066 918.772,46.066C901.091,46.066 886.542,60.615 886.542,78.296C886.542,78.552 886.545,78.809 886.551,79.065C886.316,87.932 890.527,96.354 897.761,101.486C910.379,109.89 929.3,109.89 929.3,121.8C929.322,122.068 929.333,122.337 929.333,122.606C929.333,127.987 924.905,132.415 919.524,132.415C919.044,132.415 918.565,132.38 918.09,132.31C908.224,131.214 898.685,128.114 890.06,123.2C889.36,123.2 889.36,123.9 888.66,125.3L884.46,136.51L884.46,137.91L885.86,140.01C885.86,140.71 885.86,141.41 885.16,141.41C884.46,141.41 908.281,151.92 920.192,151.92C920.893,151.967 921.596,151.99 922.298,151.99C939.594,151.99 953.827,137.758 953.827,120.461C953.827,120.208 953.824,119.954 953.818,119.7C954.061,109.573 948.653,100.11 939.805,95.178L939.806,95.176Z" style="fill:rgb(16,16,16);fill-rule:nonzero;"/>
        </g>
        <g id="Path_1058" transform="matrix(1,0,0,1,2848.53,-371.402)">
            <path d="M135,129.915L135,131.315C135,132.015 135.7,132.715 136.4,134.115L136.4,132.715C136.4,131.614 135.881,130.575 135,129.915ZM207.166,3.8C201.016,3.8 195.956,8.86 195.956,15.01C195.941,15.243 195.934,15.477 195.934,15.711C195.934,21.861 200.994,26.921 207.144,26.921L207.166,26.921C213.7,26.921 219.077,21.544 219.077,15.01C218.708,8.743 213.444,3.789 207.166,3.8ZM207.166,25.52C201.921,25.18 197.697,20.956 197.357,15.711C197.357,10.33 201.785,5.902 207.166,5.902C212.547,5.902 216.975,10.33 216.975,15.711C216.975,21.092 212.547,25.52 207.166,25.52Z" style="fill:rgb(16,16,16);fill-rule:nonzero;"/>
        </g>
        <g id="Path_1059" transform="matrix(1,0,0,1,2906.79,-366.596)">
            <path d="M153.108,10.205C153.808,9.505 154.508,8.805 154.508,8.105C154.573,7.339 154.32,6.579 153.808,6.005L152.408,4.605L144.7,4.605L144.7,16.511L146.8,16.511L146.8,12.311L149.6,12.311L152.4,16.511L155.2,16.511L151.7,11.611L153.108,10.205ZM148.908,10.205L146.808,10.205L146.808,6.7L151.708,6.7C152.408,7.4 152.408,7.4 152.408,8.1C152.408,8.8 151.708,8.8 151.708,9.5L148.908,10.205Z" style="fill:rgb(16,16,16);fill-rule:nonzero;"/>
        </g>
    </g>
</svg>
