<svg version="1" xmlns="http://www.w3.org/2000/svg" width="666.667" height="666.667" viewBox="0 0 500.000000 500.000000"><path d="M142.6 6.5c-12.1 3-23 5.9-24.3 6.6-1.3.7-2.6 2.4-3 3.8-.6 2.4 1.2 33 2.3 40.1.6 3.5.4 3.7-5.8 7.7-3.5 2.3-7.2 5.1-8.2 6.2-1.1 1.2-2.3 2.1-2.7 2.1-.5 0-9-3.4-19-7.5s-19-7.5-20-7.5C58.7 58 54 63.1 46 75.1c-9.7 14.7-18 30.7-18 34.8 0 3.3-.6 2.7 21 20.4 6.3 5.2 11.4 9.9 11.2 10.6-.1.6-.9 5.3-1.8 10.4-.9 5-1.9 9.5-2.2 9.9-.4.3-8.8 3.9-18.7 7.9-18.3 7.3-22.5 10-22.5 14.2 0 1.2 2.7 13.6 6.1 27.5 5.3 22 6.4 25.5 8.5 26.9 2.2 1.4 4.1 1.4 20.6-.1 26.4-2.3 23.2-3.2 31 7.8l6.7 9.4-8 18.2c-10.4 23.4-10.5 23.2 2.4 32.3 17.8 12.5 34.4 21.7 39.2 21.7 4.2 0 5-.7 18.9-17.8 6.8-8.2 12.4-14.2 13.4-14.2 2.7.1 19.2 2.7 19.7 3.1.2.2 4 8.5 8.5 18.4 4.5 9.9 8.9 18.8 9.8 19.7.8 1 2.8 1.8 4.4 1.8 1.6 0 13.5-2.5 26.6-5.6 16.8-4 24.4-6.2 26-7.7 1.9-1.8 2.2-3 2.2-9.6 0-6.9-1-19-2.5-32.6l-.6-5 4.8-3.1c2.6-1.8 6.6-4.6 8.9-6.2l4-3.1 17.3 8c9.6 4.4 18.7 8.3 20.3 8.6 2.6.5 3.6-.1 8.1-4.9 5.9-6.3 15.8-21.7 23.1-36 4.3-8.4 4.9-10.1 4-12.5-.6-1.8-5.9-6.8-14.7-13.8-19.8-15.9-18-13.1-16-25.6l1.7-10.6 19.3-7.8c10.6-4.3 20-8.6 20.8-9.5 2.4-2.6 1.9-6.3-4-31.2-6-25.2-6.8-26.8-12.9-26.8-1.7 0-10.3.7-19.1 1.5-21.5 2-20.7 2.1-22.9-1.6-1-1.7-4-5.9-6.6-9.4l-4.7-6.2 7.5-16.4c8.7-19.2 9.7-23.6 5.8-27.2-4.4-4.1-21.5-15.6-33.1-22.3-16.3-9.5-15.6-9.7-30.6 7.8-6.7 7.9-12.8 14.9-13.5 15.7-1 1.1-2.6 1.2-9.6.1-13.7-2-12-.2-21.4-22-4.7-10.7-9.2-20.1-10.1-20.8-2.8-2-8.8-1.2-31.7 4.3zM197 115.1c8.4 1.8 19 7.9 26.1 14.9 24.4 24.4 20.2 65.5-8.6 85.1-32.1 21.9-75.4 5.6-85.2-32.1-8.2-32 13.4-63.9 46.7-69 5.8-.8 13.5-.4 21 1.1z"/><path d="M337.6 263.6c-2 1.9-2.2 3-4.5 18.7-1 7-2 12.9-2.2 13.1-.2.1-3.4 1.5-7.1 3l-6.7 2.8-11.5-8.1c-6.3-4.5-12.4-8.1-13.5-8.1-4.8 0-31.1 26.3-31.1 31.1 0 .9 4.1 6.9 9.1 13.3l9.1 11.6-2.8 6.8c-1.5 3.7-2.9 6.9-3.1 7.1-.2.3-26.6 5.1-28.5 5.1-.4 0-1.4.7-2.2 1.6-1.3 1.3-1.6 4.6-1.6 20.8 0 14.2.3 19.7 1.3 21 1 1.4 4.7 2.2 16.5 3.8 13.6 1.9 15.2 2.3 15.8 4.2.3 1.2 1.7 4.7 3.1 7.8l2.5 5.6-7.4 9.9c-8.5 11.2-9.8 13.3-9.8 16.4 0 1.4 4.4 6.5 13.5 15.5 10.7 10.7 14 13.4 16.2 13.4 1.9 0 6.2-2.7 14.3-8.8l11.5-8.8 7 2.7 6.9 2.7 3.1 14.8c2.7 13 3.4 15 5.4 16 1.6.9 7.8 1 20.5.7 14.9-.4 18.4-.8 19.8-2.2 1.2-1.1 2.3-5.8 3.7-15.6 1.2-7.7 2.1-14.6 2.1-15.3 0-.6.5-1.2 1.1-1.2.6 0 3.8-1.2 7-2.6l5.9-2.7 9.7 7.4c11.3 8.7 13.1 9.8 15.9 9.9 4.9 0 30.4-26.1 30.4-31.1 0-1.5-3.2-6.3-8.1-12.4-4.4-5.5-8.4-10.7-8.9-11.5-.8-1.6 3.1-12.5 5.3-14.6.7-.6 7.5-2.1 15.2-3.3 18.9-2.9 17.8-1.3 17-25-.5-13.8-1.1-18.9-2.1-19.7-.7-.6-7.9-1.9-15.8-2.9l-14.5-1.9-3-7.3c-1.7-4-3.1-7.6-3.1-7.9 0-.4 3.5-5.5 7.9-11.3 4.3-5.8 8.2-11.6 8.5-12.8.5-1.6-.2-3.2-2.5-6-6.4-7.5-22.5-23.5-25.2-24.9-3.4-1.8-3.8-1.6-17.5 8.7l-10.2 7.7-6.8-2.8c-3.6-1.6-7-3.7-7.4-4.7-.4-1-1.9-7.9-3.3-15.3-1.7-9.4-3-13.9-4.2-14.8-1.2-.8-7-1.2-20.4-1.2-15.7 0-19 .3-20.3 1.6zm28.9 78.5c25.5 4.7 39.8 32.6 28.3 55.5-13.6 27.4-51.3 30.1-68.2 4.9-15.4-22.9-2.7-54.1 24.4-60.1 7.1-1.6 8.5-1.6 15.5-.3z"/></svg>