<?xml version="1.0" encoding="UTF-8" standalone="no"?>
<!DOCTYPE svg PUBLIC "-//W3C//DTD SVG 1.1//EN" "http://www.w3.org/Graphics/SVG/1.1/DTD/svg11.dtd">
<svg width="200px" height="57px" version="1.1" xmlns="http://www.w3.org/2000/svg" xmlns:xlink="http://www.w3.org/1999/xlink" xml:space="preserve" xmlns:serif="http://www.serif.com/" style="fill-rule:evenodd;clip-rule:evenodd;stroke-linejoin:round;stroke-miterlimit:2;">
    <g transform="matrix(0.0903342,0,0,0.0903342,-4.14246,0.691921)">
        <path d="M541.322,500.219L541.322,405.847C541.322,385.57 524.884,369.131 504.607,369.131L495.009,369.131L495.009,24.598C495.009,21.516 493.462,18.64 490.892,16.941L467.587,1.537C461.484,-2.496 453.348,1.879 453.348,9.194L453.348,119.846L446.403,101.112C437.063,75.916 413.03,59.194 386.158,59.194L225.702,59.194C198.672,59.194 174.533,76.11 165.308,101.517L158.653,119.846L158.653,9.194C158.653,1.88 150.516,-2.496 144.413,1.537L121.107,16.94C118.536,18.639 116.989,21.515 116.989,24.597L116.989,369.131L107.392,369.131C87.115,369.131 70.677,385.569 70.677,405.847L70.677,500.219L55.035,500.219C49.966,500.219 45.857,504.328 45.857,509.398L45.857,560.141C45.857,565.21 49.966,569.32 55.035,569.32L94.633,569.32L94.633,593.642C94.633,603.781 102.852,611.999 112.991,611.999L161.636,611.999C171.775,611.999 179.994,603.78 179.994,593.642L179.994,569.32L432.008,569.32L432.008,593.642C432.008,603.781 440.228,611.999 450.365,611.999L499.011,611.999C509.15,611.999 517.368,603.78 517.368,593.642L517.368,569.32L556.966,569.32C562.036,569.32 566.145,565.21 566.145,560.141L566.145,509.399C566.145,504.329 562.036,500.22 556.966,500.22L541.322,500.219ZM170.814,170.975L441.186,170.975L441.186,261.415L170.814,261.415L170.814,170.975ZM164.527,474.533L133.17,474.533C123.589,474.533 115.822,466.765 115.822,457.184L115.822,456.746C115.822,447.165 123.589,439.398 133.17,439.398L164.526,439.398C174.107,439.398 181.874,447.165 181.874,456.746L181.874,457.184C181.875,466.765 174.108,474.533 164.527,474.533ZM368.398,479.648L243.602,479.648C233.463,479.648 225.244,471.428 225.244,461.291L225.244,344.976C225.244,334.838 233.463,326.619 243.602,326.619L368.398,326.619C378.536,326.619 386.755,334.839 386.755,344.976L386.755,461.29C386.756,471.428 378.536,479.648 368.398,479.648ZM478.829,474.533L447.473,474.533C437.893,474.533 430.125,466.765 430.125,457.184L430.125,456.746C430.125,447.165 437.893,439.398 447.473,439.398L478.829,439.398C488.41,439.398 496.178,447.165 496.178,456.746L496.178,457.184C496.178,466.765 488.41,474.533 478.829,474.533ZM365.607,393.801L246.099,393.801C241.08,393.801 237.012,389.733 237.012,384.713L237.012,384.529C237.012,379.51 241.08,375.443 246.099,375.443L365.607,375.443C370.626,375.443 374.694,379.51 374.694,384.529L374.694,384.713C374.694,389.733 370.626,393.801 365.607,393.801ZM365.607,357.085L246.099,357.085C241.08,357.085 237.012,353.017 237.012,347.998L237.012,347.814C237.012,342.796 241.08,338.728 246.099,338.728L365.607,338.728C370.626,338.728 374.694,342.796 374.694,347.814L374.694,347.998C374.694,353.017 370.626,357.085 365.607,357.085ZM365.607,467.232L246.099,467.232C241.08,467.232 237.012,463.164 237.012,458.145L237.012,457.961C237.012,452.942 241.08,448.874 246.099,448.874L365.607,448.874C370.626,448.874 374.694,452.942 374.694,457.961L374.694,458.145C374.694,463.164 370.626,467.232 365.607,467.232ZM365.607,430.516L246.099,430.516C241.08,430.516 237.012,426.448 237.012,421.43L237.012,421.246C237.012,416.227 241.08,412.159 246.099,412.159L365.607,412.159C370.626,412.159 374.694,416.227 374.694,421.246L374.694,421.43C374.694,426.448 370.626,430.516 365.607,430.516Z" style="fill:rgb(14,0,133);fill-rule:nonzero;"/>
    </g>
    <g transform="matrix(0.0903342,0,0,0.0903342,-48.9482,3.13095)">
        <g transform="matrix(450,0,0,450,990.037,328.548)">
            <path d="M0.041,-0.791L0.389,-0.791L0.389,-0.632L0.247,-0.632L0.247,-0.482L0.374,-0.482L0.374,-0.332L0.247,-0.332L0.247,0L0.041,0L0.041,-0.791Z" style="fill:rgb(174,0,6);fill-rule:nonzero;"/>
        </g>
        <g transform="matrix(450,0,0,450,1169.11,328.548)">
            <path d="M0.232,-0.648L0.225,-0.563C0.253,-0.624 0.295,-0.656 0.349,-0.66L0.349,-0.432C0.313,-0.432 0.286,-0.427 0.27,-0.417C0.253,-0.407 0.242,-0.394 0.238,-0.376C0.234,-0.359 0.232,-0.319 0.232,-0.256L0.232,0L0.035,0L0.035,-0.648L0.232,-0.648Z" style="fill:rgb(174,0,6);fill-rule:nonzero;"/>
        </g>
        <g transform="matrix(450,0,0,450,1330.17,328.548)">
            <path d="M0.482,-0.313L0.227,-0.313L0.227,-0.172C0.227,-0.143 0.229,-0.124 0.233,-0.116C0.237,-0.107 0.245,-0.103 0.257,-0.103C0.272,-0.103 0.282,-0.109 0.287,-0.12C0.292,-0.131 0.295,-0.153 0.295,-0.185L0.295,-0.271L0.482,-0.271L0.482,-0.223C0.482,-0.183 0.479,-0.152 0.474,-0.13C0.469,-0.109 0.458,-0.086 0.439,-0.062C0.42,-0.037 0.397,-0.019 0.368,-0.007C0.34,0.006 0.304,0.012 0.261,0.012C0.22,0.012 0.183,0.006 0.151,-0.006C0.119,-0.018 0.094,-0.035 0.076,-0.056C0.059,-0.077 0.046,-0.1 0.04,-0.125C0.033,-0.15 0.029,-0.187 0.029,-0.235L0.029,-0.424C0.029,-0.481 0.037,-0.526 0.052,-0.558C0.068,-0.591 0.093,-0.616 0.127,-0.634C0.162,-0.651 0.202,-0.66 0.248,-0.66C0.303,-0.66 0.349,-0.649 0.385,-0.628C0.42,-0.607 0.446,-0.579 0.46,-0.545C0.475,-0.51 0.482,-0.461 0.482,-0.398L0.482,-0.313ZM0.284,-0.418L0.284,-0.465C0.284,-0.499 0.282,-0.521 0.279,-0.53C0.275,-0.54 0.268,-0.545 0.257,-0.545C0.243,-0.545 0.235,-0.541 0.231,-0.532C0.228,-0.524 0.227,-0.502 0.227,-0.465L0.227,-0.418L0.284,-0.418Z" style="fill:rgb(174,0,6);fill-rule:nonzero;"/>
        </g>
        <g transform="matrix(450,0,0,450,1560.23,328.548)">
            <path d="M0.238,-0.791L0.238,-0.688L0.035,-0.688L0.035,-0.791L0.238,-0.791ZM0.238,-0.648L0.238,0L0.035,0L0.035,-0.648L0.238,-0.648Z" style="fill:rgb(174,0,6);fill-rule:nonzero;"/>
        </g>
        <g transform="matrix(450,0,0,450,1683.49,328.548)">
            <path d="M0.483,-0.648L0.483,-0.149C0.483,-0.082 0.482,-0.038 0.479,-0.018C0.476,0.001 0.465,0.022 0.446,0.044C0.427,0.066 0.401,0.083 0.367,0.094C0.333,0.106 0.291,0.112 0.24,0.112C0.177,0.112 0.126,0.101 0.088,0.08C0.05,0.059 0.031,0.017 0.029,-0.046L0.221,-0.046C0.221,-0.017 0.231,-0.003 0.252,-0.003C0.267,-0.003 0.277,-0.007 0.282,-0.016C0.287,-0.025 0.289,-0.043 0.289,-0.071L0.289,-0.12C0.272,-0.105 0.254,-0.093 0.236,-0.085C0.217,-0.078 0.197,-0.074 0.177,-0.074C0.141,-0.074 0.112,-0.081 0.089,-0.095C0.066,-0.11 0.05,-0.128 0.042,-0.152C0.034,-0.175 0.029,-0.208 0.029,-0.251L0.029,-0.486C0.029,-0.548 0.04,-0.592 0.063,-0.619C0.085,-0.646 0.118,-0.66 0.164,-0.66C0.188,-0.66 0.211,-0.655 0.231,-0.645C0.252,-0.634 0.27,-0.619 0.286,-0.599L0.3,-0.648L0.483,-0.648ZM0.286,-0.476C0.286,-0.506 0.284,-0.525 0.281,-0.533C0.277,-0.541 0.27,-0.545 0.258,-0.545C0.246,-0.545 0.238,-0.54 0.234,-0.531C0.229,-0.522 0.227,-0.503 0.227,-0.476L0.227,-0.258C0.227,-0.229 0.228,-0.211 0.232,-0.202C0.236,-0.193 0.243,-0.189 0.254,-0.189C0.267,-0.189 0.276,-0.194 0.28,-0.205C0.284,-0.215 0.286,-0.239 0.286,-0.275L0.286,-0.476Z" style="fill:rgb(174,0,6);fill-rule:nonzero;"/>
        </g>
        <g transform="matrix(450,0,0,450,1916.84,328.548)">
            <path d="M0.232,-0.791L0.232,-0.613C0.249,-0.628 0.268,-0.64 0.287,-0.648C0.307,-0.656 0.328,-0.66 0.351,-0.66C0.385,-0.66 0.414,-0.651 0.439,-0.633C0.463,-0.616 0.478,-0.595 0.483,-0.573C0.489,-0.55 0.491,-0.508 0.491,-0.447L0.491,0L0.294,0L0.294,-0.456C0.294,-0.494 0.292,-0.518 0.288,-0.529C0.285,-0.54 0.276,-0.545 0.263,-0.545C0.251,-0.545 0.243,-0.539 0.239,-0.528C0.235,-0.517 0.232,-0.495 0.232,-0.462L0.232,0L0.035,0L0.035,-0.791L0.232,-0.791Z" style="fill:rgb(174,0,6);fill-rule:nonzero;"/>
        </g>
        <g transform="matrix(450,0,0,450,2152.61,328.548)">
            <path d="M0.243,-0.734L0.243,-0.632L0.296,-0.632L0.296,-0.53L0.243,-0.53L0.243,-0.183C0.243,-0.14 0.245,-0.117 0.25,-0.112C0.254,-0.107 0.272,-0.104 0.305,-0.104L0.305,0L0.225,0C0.18,0 0.148,-0.002 0.129,-0.006C0.11,-0.009 0.093,-0.018 0.078,-0.031C0.063,-0.045 0.054,-0.06 0.051,-0.078C0.047,-0.095 0.045,-0.136 0.045,-0.201L0.045,-0.53L0.003,-0.53L0.003,-0.632L0.045,-0.632L0.045,-0.734L0.243,-0.734Z" style="fill:rgb(174,0,6);fill-rule:nonzero;"/>
        </g>
        <g transform="matrix(450,0,0,450,2289.72,328.548)">
            <path d="M0.521,-0.446L0.315,-0.446L0.315,-0.584C0.315,-0.624 0.313,-0.649 0.309,-0.658C0.304,-0.668 0.295,-0.673 0.28,-0.673C0.263,-0.673 0.252,-0.667 0.248,-0.655C0.243,-0.643 0.241,-0.617 0.241,-0.577L0.241,-0.21C0.241,-0.172 0.243,-0.146 0.248,-0.135C0.252,-0.123 0.262,-0.117 0.278,-0.117C0.294,-0.117 0.304,-0.123 0.308,-0.135C0.313,-0.147 0.315,-0.174 0.315,-0.218L0.315,-0.317L0.521,-0.317L0.521,-0.286C0.521,-0.204 0.515,-0.146 0.504,-0.112C0.492,-0.078 0.467,-0.048 0.427,-0.022C0.387,0.004 0.339,0.017 0.281,0.017C0.221,0.017 0.171,0.006 0.132,-0.016C0.093,-0.038 0.067,-0.068 0.054,-0.107C0.042,-0.145 0.035,-0.203 0.035,-0.281L0.035,-0.512C0.035,-0.569 0.037,-0.611 0.041,-0.64C0.045,-0.668 0.057,-0.696 0.076,-0.722C0.095,-0.749 0.122,-0.769 0.156,-0.784C0.191,-0.8 0.23,-0.807 0.275,-0.807C0.335,-0.807 0.385,-0.795 0.425,-0.772C0.464,-0.749 0.49,-0.719 0.502,-0.684C0.515,-0.65 0.521,-0.595 0.521,-0.521L0.521,-0.446Z" style="fill:rgb(14,0,133);fill-rule:nonzero;"/>
        </g>
        <g transform="matrix(450,0,0,450,2538.89,328.548)">
            <path d="M0.481,-0.42L0.481,-0.262C0.481,-0.203 0.479,-0.161 0.473,-0.134C0.467,-0.106 0.454,-0.081 0.435,-0.057C0.416,-0.034 0.391,-0.016 0.361,-0.005C0.331,0.006 0.296,0.012 0.257,0.012C0.214,0.012 0.177,0.007 0.146,-0.003C0.116,-0.012 0.093,-0.027 0.076,-0.046C0.059,-0.066 0.047,-0.089 0.04,-0.116C0.033,-0.144 0.029,-0.185 0.029,-0.24L0.029,-0.406C0.029,-0.466 0.036,-0.514 0.049,-0.547C0.062,-0.581 0.085,-0.608 0.119,-0.629C0.153,-0.649 0.196,-0.66 0.249,-0.66C0.293,-0.66 0.331,-0.653 0.363,-0.64C0.395,-0.627 0.419,-0.61 0.437,-0.588C0.454,-0.567 0.466,-0.545 0.472,-0.523C0.478,-0.5 0.481,-0.466 0.481,-0.42ZM0.284,-0.469C0.284,-0.502 0.282,-0.523 0.279,-0.532C0.275,-0.541 0.268,-0.545 0.256,-0.545C0.244,-0.545 0.236,-0.541 0.232,-0.532C0.229,-0.523 0.227,-0.502 0.227,-0.469L0.227,-0.177C0.227,-0.146 0.229,-0.126 0.232,-0.117C0.236,-0.108 0.244,-0.103 0.255,-0.103C0.267,-0.103 0.275,-0.107 0.279,-0.116C0.282,-0.124 0.284,-0.142 0.284,-0.17L0.284,-0.469Z" style="fill:rgb(14,0,133);fill-rule:nonzero;"/>
        </g>
    </g>
</svg>
