<?xml version="1.0" encoding="UTF-8" standalone="no"?>
<!DOCTYPE svg PUBLIC "-//W3C//DTD SVG 1.1//EN" "http://www.w3.org/Graphics/SVG/1.1/DTD/svg11.dtd">
<svg width="15px" height="15px" version="1.1" xmlns="http://www.w3.org/2000/svg" xmlns:xlink="http://www.w3.org/1999/xlink" xml:space="preserve" xmlns:serif="http://www.serif.com/" style="fill-rule:evenodd;clip-rule:evenodd;stroke-linejoin:round;stroke-miterlimit:2;">
    <g transform="matrix(0.75,0,0,0.75,-2.38623,-2.11359)">
        <path d="M20.963,4.818C20.184,4.818 19.545,5.456 19.545,6.233C19.545,6.404 19.592,6.56 19.639,6.7L13,18.05C12.361,18.19 11.862,18.719 11.862,19.403C11.862,20.181 12.501,20.818 13.28,20.818C14.06,20.818 14.698,20.181 14.698,19.403C14.698,19.248 14.652,19.108 14.605,18.968L21.275,7.57C21.898,7.415 22.366,6.886 22.366,6.218C22.382,5.456 21.743,4.818 20.963,4.818ZM13.28,20.181C12.86,20.181 12.501,19.839 12.501,19.403C12.501,18.968 12.844,18.626 13.28,18.626C13.701,18.626 14.06,18.968 14.06,19.403C14.06,19.839 13.717,20.181 13.28,20.181ZM20.963,6.995C20.543,6.995 20.184,6.653 20.184,6.218C20.184,5.782 20.527,5.44 20.963,5.44C21.4,5.44 21.743,5.782 21.743,6.218C21.743,6.653 21.384,6.995 20.963,6.995Z" style="fill:rgb(22,41,72);fill-rule:nonzero;"/>
    </g>
    <g transform="matrix(0.75,0,0,0.75,-2.38623,-2.11359)">
        <path d="M15.166,4.818C14.387,4.818 13.748,5.456 13.748,6.233C13.748,6.404 13.795,6.56 13.841,6.7L7.202,18.05C6.563,18.19 6.065,18.719 6.065,19.403C6.065,20.181 6.704,20.818 7.483,20.818C8.262,20.818 8.901,20.181 8.901,19.403C8.901,19.248 8.854,19.108 8.808,18.968L15.493,7.57C16.117,7.415 16.584,6.886 16.584,6.218C16.584,5.456 15.961,4.818 15.166,4.818ZM7.498,20.181C7.078,20.181 6.719,19.839 6.719,19.403C6.719,18.968 7.062,18.626 7.498,18.626C7.935,18.626 8.278,18.968 8.278,19.403C8.278,19.839 7.919,20.181 7.498,20.181ZM15.166,6.995C14.745,6.995 14.387,6.653 14.387,6.218C14.387,5.782 14.73,5.44 15.166,5.44C15.602,5.44 15.945,5.782 15.945,6.218C15.945,6.653 15.602,6.995 15.166,6.995Z" style="fill:rgb(22,41,72);fill-rule:nonzero;"/>
    </g>
    <g transform="matrix(0.75,0,0,0.75,-2.38623,-2.11359)">
        <path d="M4.6,11.551C5.379,11.551 6.018,10.913 6.018,10.136C6.018,9.98 5.971,9.84 5.925,9.7C5.737,9.141 5.223,8.736 4.6,8.736C4.506,8.736 4.413,8.768 4.319,8.799C3.68,8.907 3.182,9.452 3.182,10.136C3.182,10.913 3.821,11.551 4.6,11.551ZM4.6,9.358C5.021,9.358 5.379,9.7 5.379,10.136C5.379,10.571 5.036,10.913 4.6,10.913C4.163,10.913 3.821,10.571 3.821,10.136C3.821,9.7 4.163,9.358 4.6,9.358Z" style="fill:rgb(22,41,72);fill-rule:nonzero;"/>
    </g>
    <g transform="matrix(0.75,0,0,0.75,-2.38623,-2.11359)">
        <path d="M6.018,15.065C6.018,14.91 5.971,14.77 5.925,14.63C5.737,14.07 5.223,13.666 4.6,13.666C4.506,13.666 4.413,13.697 4.319,13.728C3.68,13.852 3.182,14.381 3.182,15.065C3.182,15.842 3.821,16.48 4.6,16.48C5.379,16.48 6.018,15.842 6.018,15.065ZM3.821,15.065C3.821,14.645 4.163,14.288 4.6,14.288C5.036,14.288 5.379,14.63 5.379,15.065C5.379,15.485 5.036,15.842 4.6,15.842C4.163,15.842 3.821,15.5 3.821,15.065Z" style="fill:rgb(22,41,72);fill-rule:nonzero;"/>
    </g>
</svg>
