<?xml version="1.0" encoding="UTF-8" standalone="no"?>
<!DOCTYPE svg PUBLIC "-//W3C//DTD SVG 1.1//EN" "http://www.w3.org/Graphics/SVG/1.1/DTD/svg11.dtd">
<svg width="15px" height="15px" version="1.1" xmlns="http://www.w3.org/2000/svg" xmlns:xlink="http://www.w3.org/1999/xlink" xml:space="preserve" xmlns:serif="http://www.serif.com/" style="fill-rule:evenodd;clip-rule:evenodd;stroke-linejoin:round;stroke-miterlimit:2;">
    <path d="M14.982,7C14.736,3.256 11.744,0.263 8,0.017L8,0L7.5,0L7,0L7,0.017C3.256,0.263 0.263,3.256 0.017,7L0,7L0,8L0.017,8C0.263,11.744 3.256,14.736 7,14.982L7,15L8,15L8,14.982C11.744,14.736 14.736,11.744 14.982,8L15,8L15,7.5L15,7L14.982,7ZM4.695,1.635C4.212,2.277 3.811,3.082 3.519,4L2.021,4C2.673,2.983 3.599,2.16 4.695,1.635ZM1.498,5L3.256,5C3.122,5.632 3.037,6.303 3.01,7L1.019,7C1.072,6.296 1.238,5.623 1.498,5ZM1.019,8L3.01,8C3.037,8.697 3.122,9.368 3.256,10L1.498,10C1.238,9.377 1.072,8.704 1.019,8ZM2.021,11L3.518,11C3.81,11.918 4.211,12.723 4.695,13.365C3.599,12.84 2.673,12.018 2.021,11ZM7,13.936C5.972,13.661 5.087,12.557 4.55,11L7,11L7,13.936ZM7,10L4.269,10C4.128,9.377 4.039,8.704 4.01,8L7,8L7,10ZM7,7L4.01,7C4.039,6.296 4.128,5.623 4.269,5L7,5L7,7ZM7,4L4.55,4C5.087,2.443 5.972,1.339 7,1.065L7,4ZM12.979,4L11.483,4C11.19,3.082 10.79,2.277 10.305,1.635C11.4,2.16 12.327,2.983 12.979,4ZM8,1.065C9.027,1.339 9.913,2.443 10.45,4L8,4L8,1.065ZM8,5L10.73,5C10.872,5.623 10.959,6.296 10.99,7L8,7L8,5ZM8,8L10.99,8C10.961,8.704 10.872,9.377 10.73,10L8,10L8,8ZM8,13.936L8,11L10.45,11C9.913,12.557 9.027,13.661 8,13.936ZM10.305,13.365C10.788,12.722 11.19,11.918 11.483,11L12.979,11C12.327,12.018 11.4,12.84 10.305,13.365ZM13.502,10L11.744,10C11.878,9.368 11.963,8.697 11.99,8L13.98,8C13.928,8.704 13.762,9.377 13.502,10ZM11.99,7C11.963,6.303 11.878,5.632 11.744,5L13.502,5C13.762,5.623 13.928,6.296 13.981,7L11.99,7Z" style="fill:rgb(22,41,72);fill-rule:nonzero;"/>
</svg>
