<?xml version="1.0" encoding="UTF-8" standalone="no"?>
<!DOCTYPE svg PUBLIC "-//W3C//DTD SVG 1.1//EN" "http://www.w3.org/Graphics/SVG/1.1/DTD/svg11.dtd">
<svg width="100%" height="100%" viewBox="0 0 15 15" version="1.1" xmlns="http://www.w3.org/2000/svg" xmlns:xlink="http://www.w3.org/1999/xlink" xml:space="preserve" xmlns:serif="http://www.serif.com/" style="fill-rule:evenodd;clip-rule:evenodd;stroke-linejoin:round;stroke-miterlimit:2;">
    <g transform="matrix(0.832085,0,0,0.836447,-3.33686,-3.35485)">
        <path d="M12.959,4.005C8.382,4.005 8.668,5.99 8.668,5.99L8.673,8.046L13.04,8.046L13.04,8.663L6.939,8.663C6.939,8.663 4.01,8.331 4.01,12.948C4.01,17.566 6.566,17.402 6.566,17.402L8.092,17.402L8.092,15.26C8.092,15.26 8.009,12.704 10.607,12.704L14.938,12.704C14.938,12.704 17.372,12.743 17.372,10.352L17.372,6.398C17.372,6.398 17.741,4.005 12.959,4.005ZM10.551,5.388C10.654,5.388 10.756,5.408 10.852,5.447C10.947,5.487 11.034,5.545 11.107,5.618C11.18,5.691 11.237,5.777 11.277,5.873C11.316,5.968 11.336,6.07 11.336,6.173C11.336,6.277 11.316,6.379 11.277,6.474C11.237,6.57 11.18,6.656 11.107,6.729C11.034,6.802 10.947,6.86 10.852,6.899C10.756,6.939 10.654,6.959 10.551,6.959C10.448,6.959 10.345,6.939 10.25,6.899C10.155,6.86 10.068,6.802 9.995,6.729C9.922,6.656 9.864,6.57 9.825,6.474C9.785,6.379 9.765,6.277 9.765,6.173C9.765,6.07 9.785,5.968 9.825,5.873C9.864,5.777 9.922,5.691 9.995,5.618C10.068,5.545 10.155,5.487 10.25,5.447C10.345,5.408 10.448,5.388 10.551,5.388Z" style="fill:rgb(22,41,72);fill-rule:nonzero;"/>
    </g>
    <g transform="matrix(0.832085,0,0,0.836447,-3.33686,-3.35485)">
        <path d="M13.089,21.938C17.665,21.938 17.379,19.954 17.379,19.954L17.374,17.898L13.007,17.898L13.007,17.281L19.109,17.281C19.109,17.281 22.037,17.613 22.037,12.995C22.037,8.377 19.481,8.541 19.481,8.541L17.956,8.541L17.956,10.684C17.956,10.684 18.038,13.24 15.441,13.24L11.109,13.24C11.109,13.24 8.676,13.2 8.676,15.592L8.676,19.546C8.676,19.546 8.306,21.938 13.089,21.938ZM15.497,20.556C15.394,20.556 15.291,20.536 15.196,20.496C15.101,20.457 15.014,20.399 14.941,20.326C14.868,20.253 14.81,20.166 14.771,20.071C14.731,19.976 14.711,19.873 14.711,19.77C14.711,19.667 14.731,19.565 14.771,19.469C14.81,19.374 14.868,19.287 14.941,19.214C15.014,19.141 15.101,19.084 15.196,19.044C15.291,19.005 15.394,18.984 15.497,18.985C15.6,18.984 15.702,19.005 15.798,19.044C15.893,19.084 15.98,19.141 16.052,19.214C16.125,19.287 16.183,19.374 16.223,19.469C16.262,19.565 16.282,19.667 16.282,19.77C16.282,19.873 16.262,19.976 16.223,20.071C16.183,20.166 16.125,20.253 16.052,20.326C15.98,20.399 15.893,20.457 15.798,20.496C15.702,20.536 15.6,20.556 15.497,20.556Z" style="fill:rgb(22,41,72);fill-rule:nonzero;"/>
    </g>
</svg>
