<?xml version="1.0" encoding="UTF-8"?>
<svg id="ShipStation_-_Green_Blue" data-name="ShipStation - Green Blue" xmlns="http://www.w3.org/2000/svg" viewBox="0 0 64 64">
  <defs>
    <style>
      .cls-1 {
        fill: #11003a;
      }

      .cls-2 {
        fill: #00e664;
      }
    </style>
  </defs>
  <path class="cls-1" d="M42,20H4v-10h38v10ZM6,18h34v-6H6v6Z"/>
  <path class="cls-1" d="M42,29H4v-11h38v11ZM6,27h34v-7H6v7Z"/>
  <path class="cls-1" d="M42,38H4v-11h38v11ZM6,36h34v-7H6v7Z"/>
  <path class="cls-1" d="M42,46H4v-10h38v10ZM6,44h34v-6H6v6Z"/>
  <g>
    <circle class="cls-2" cx="41" cy="35" r="18"/>
    <path class="cls-2" d="M41,54c-10.48,0-19-8.52-19-19s8.52-19,19-19,19,8.52,19,19-8.52,19-19,19ZM41,18c-9.37,0-17,7.63-17,17s7.63,17,17,17,17-7.63,17-17-7.63-17-17-17Z"/>
  </g>
  <polygon class="cls-1" points="44.05 42 37.95 42 36 40.25 36 38 38 38 38 39.35 38.72 40 43.28 40 44 39.35 44 36.65 43.28 36 37.95 36 36 34.25 36 29.75 37.95 28 44.05 28 46 29.75 46 32 44 32 44 30.65 43.28 30 38.72 30 38 30.65 38 33.35 38.72 34 44.05 34 46 35.75 46 40.25 44.05 42"/>
  <rect class="cls-1" x="40" y="25" width="2" height="4"/>
  <rect class="cls-1" x="40" y="41" width="2" height="4"/>
</svg>