<?xml version="1.0" encoding="UTF-8"?> <svg xmlns="http://www.w3.org/2000/svg" width="52" height="52" fill="none"><path d="M29.29 18.5H7.5v-9h20.01" stroke="#5F27CD" stroke-miterlimit="10"></path><path d="M40.5 20.29V47.5h-36v-41h24.79" stroke="#5F27CD" stroke-miterlimit="10"></path><path d="M37.5 31.5h-6v13h6v-13zm-24 7h-6v6h6v-6zm8 0h-6v6h6v-6zm8 0h-6v6h6v-6zm-16-8h-6v6h6v-6zm8 0h-6v6h6v-6zm8 0h-6v6h6v-6zm-16-8h-6v6h6v-6zm8 0h-6v6h6v-6zm8 0h-6v6h6v-6z" stroke="#5F27CD" stroke-miterlimit="10"></path><path d="M36 21.5a9 9 0 1 0 0-18 9 9 0 0 0 0 18zm-7-9a7 7 0 0 1 7-7m7 7a7 7 0 0 1-7 7" stroke="#5F27CD" stroke-linecap="round" stroke-linejoin="round"></path><path d="M37.493 13.011c.265.235.453.558.457 1.092a1.7 1.7 0 0 1-1.622 1.568h0c.355-.06.67-.186.922-.382.373-.289.58-.706.58-1.169 0-.683-.438-1.079-.892-1.318-.334-.175-.76-.31-1.147-.431-.105-.033-.208-.065-.305-.097-.497-.163-.913-.334-1.207-.584-.264-.224-.445-.524-.449-1.023a1.69 1.69 0 0 1 1.355-1.53 1.75 1.75 0 0 0-1.23 1.448l-.005.032v.033c0 .675.464 1.047.905 1.263.308.15.702.272 1.068.384.129.04.254.078.37.117.492.161.907.338 1.2.597zm-3.09 2.218c.252.237.57.377.93.44a1.667 1.667 0 0 1-1.54-1.279h.149c.07.319.216.608.461.839zm2.733-5.645a1.759 1.759 0 0 0-.351-.272 1.71 1.71 0 0 1 .919 1.078h-.108a1.756 1.756 0 0 0-.46-.806z" fill="#265BD3" stroke="#5F27CD"></path></svg> 