<svg width="56" height="56" fill="none" xmlns="http://www.w3.org/2000/svg"><path d="M12.5 40a.5.5 0 0 0 0-1v1zm-6-3.5H6h.5zm0-28H6h.5zm3-3V5v.5zm34.5 7a.5.5 0 0 0 1 0h-1zM15.5 18a.5.5 0 0 0 0 1v-1zm32 1a.5.5 0 0 0 0-1v1zm-32 3a.5.5 0 0 0 0 1v-1zm6 1a.5.5 0 0 0 0-1v1zm22 18a.5.5 0 0 0 0 1v-1zm4 1a.5.5 0 0 0 0-1v1zm-6-8.15l.166.471A.5.5 0 0 0 42 33.85h-.5zm0-2.7h.5a.5.5 0 0 0-.333-.471l-.167.471zm-1.98-4.77l.452.214a.5.5 0 0 0-.098-.568l-.354.354zm-1.9-1.9l.354-.354a.5.5 0 0 0-.57-.097l.216.451zm-3.09.7l-.192.462.005.002.187-.464zm-1.68-2.68l.472-.165A.5.5 0 0 0 32.85 22v.5zm-2.7 0V22a.5.5 0 0 0-.471.334l.471.166zm-4.77 1.98l.214-.452a.5.5 0 0 0-.568.098l.354.354zm-1.9 1.9l-.354-.354a.5.5 0 0 0-.098.568l.452-.214zm-1.98 4.77l-.166-.471a.5.5 0 0 0-.334.471h.5zm0 2.7H21a.5.5 0 0 0 .334.471l.166-.471zm1.98 4.77l-.452-.214a.5.5 0 0 0 .098.568l.354-.354zm1.9 1.9l-.354.354a.5.5 0 0 0 .57.097l-.216-.451zm3.09-.7l.192-.462-.005-.002-.187.464zm1.68 2.68l-.472.165a.5.5 0 0 0 .472.335v-.5zm2.7 0v.5a.5.5 0 0 0 .471-.334l-.471-.166zm1.69-2.69l-.19-.463-.004.002.194.461zm3.08.71l-.213.453a.5.5 0 0 0 .567-.1l-.354-.353zm1.9-1.9l.354.354a.5.5 0 0 0 .097-.57l-.451.216zm-8.02-2.77v.5a.5.5 0 0 0 .5-.5h-.5zm3.33-3.33l.5.003v-.003h-.5zm-3.33 3.31v-.5a.5.5 0 0 0-.5.5h.5zM12.5 39h-3v1h3v-1zm-3 0a2.5 2.5 0 0 1-1.768-.732l-.707.707A3.5 3.5 0 0 0 9.5 40v-1zm-1.768-.732A2.5 2.5 0 0 1 7 36.5H6a3.5 3.5 0 0 0 1.025 2.475l.707-.707zM7 36.5v-28H6v28h1zm0-28a2.5 2.5 0 0 1 .732-1.768l-.707-.707A3.5 3.5 0 0 0 6 8.5h1zm.732-1.768A2.5 2.5 0 0 1 9.5 6V5a3.5 3.5 0 0 0-2.475 1.025l.707.707zM9.5 6h32V5h-32v1zm32 0a2.5 2.5 0 0 1 1.768.732l.707-.707A3.5 3.5 0 0 0 41.5 5v1zm1.768.732A2.5 2.5 0 0 1 44 8.5h1a3.5 3.5 0 0 0-1.025-2.475l-.707.707zM44 8.5v4h1v-4h-1zm-33 0a.5.5 0 0 1-.5.5v1A1.5 1.5 0 0 0 12 8.5h-1zm-.5.5a.5.5 0 0 1-.5-.5H9a1.5 1.5 0 0 0 1.5 1.5V9zm-.5-.5a.5.5 0 0 1 .5-.5V7A1.5 1.5 0 0 0 9 8.5h1zm.5-.5a.5.5 0 0 1 .5.5h1A1.5 1.5 0 0 0 10.5 7v1zm4.5.5a.5.5 0 0 1-.5.5v1A1.5 1.5 0 0 0 16 8.5h-1zm-.5.5a.5.5 0 0 1-.5-.5h-1a1.5 1.5 0 0 0 1.5 1.5V9zm-.5-.5a.5.5 0 0 1 .5-.5V7A1.5 1.5 0 0 0 13 8.5h1zm.5-.5a.5.5 0 0 1 .5.5h1A1.5 1.5 0 0 0 14.5 7v1zm4.5.5a.5.5 0 0 1-.5.5v1A1.5 1.5 0 0 0 20 8.5h-1zm-.5.5a.5.5 0 0 1-.5-.5h-1a1.5 1.5 0 0 0 1.5 1.5V9zm-.5-.5a.5.5 0 0 1 .5-.5V7A1.5 1.5 0 0 0 17 8.5h1zm.5-.5a.5.5 0 0 1 .5.5h1A1.5 1.5 0 0 0 18.5 7v1zm-3 5h32v-1h-32v1zm32 0a2.5 2.5 0 0 1 2.5 2.5h1a3.5 3.5 0 0 0-3.5-3.5v1zm2.5 2.5v28h1v-28h-1zm0 28a2.5 2.5 0 0 1-2.5 2.5v1a3.5 3.5 0 0 0 3.5-3.5h-1zM47.5 46h-32v1h32v-1zm-32 0a2.5 2.5 0 0 1-2.5-2.5h-1a3.5 3.5 0 0 0 3.5 3.5v-1zM13 43.5v-28h-1v28h1zm0-28a2.5 2.5 0 0 1 2.5-2.5v-1a3.5 3.5 0 0 0-3.5 3.5h1zm2.5 3.5h32v-1h-32v1zm0 4h6v-1h-6v1zm28 19h4v-1h-4v1zM17 15.5a.5.5 0 0 1-.5.5v1a1.5 1.5 0 0 0 1.5-1.5h-1zm-.5.5a.5.5 0 0 1-.5-.5h-1a1.5 1.5 0 0 0 1.5 1.5v-1zm-.5-.5a.5.5 0 0 1 .5-.5v-1a1.5 1.5 0 0 0-1.5 1.5h1zm.5-.5a.5.5 0 0 1 .5.5h1a1.5 1.5 0 0 0-1.5-1.5v1zm4.5.5a.5.5 0 0 1-.5.5v1a1.5 1.5 0 0 0 1.5-1.5h-1zm-.5.5a.5.5 0 0 1-.5-.5h-1a1.5 1.5 0 0 0 1.5 1.5v-1zm-.5-.5a.5.5 0 0 1 .5-.5v-1a1.5 1.5 0 0 0-1.5 1.5h1zm.5-.5a.5.5 0 0 1 .5.5h1a1.5 1.5 0 0 0-1.5-1.5v1zm4.5.5a.5.5 0 0 1-.5.5v1a1.5 1.5 0 0 0 1.5-1.5h-1zm-.5.5a.5.5 0 0 1-.5-.5h-1a1.5 1.5 0 0 0 1.5 1.5v-1zm-.5-.5a.5.5 0 0 1 .5-.5v-1a1.5 1.5 0 0 0-1.5 1.5h1zm.5-.5a.5.5 0 0 1 .5.5h1a1.5 1.5 0 0 0-1.5-1.5v1zM42 33.85v-2.7h-1v2.7h1zm-.333-3.171c-.74-.263-1.228-.394-1.632-.6-.353-.181-.585-.396-.753-.8l-.924.383c.272.655.69 1.035 1.222 1.307.481.246 1.114.425 1.753.652l.334-.942zm-2.385-1.4c-.168-.404-.156-.725-.033-1.108.139-.434.39-.874.723-1.577l-.904-.428c-.287.607-.606 1.182-.772 1.7-.182.57-.21 1.14.062 1.796l.924-.384zm.592-3.253l-1.9-1.9-.708.708 1.9 1.9.708-.708zm-2.47-1.997c-.699.333-1.13.584-1.561.723-.377.121-.703.135-1.126-.036l-.374.928c.667.27 1.236.243 1.806.06.516-.167 1.086-.486 1.686-.773l-.43-.902zm-2.682.69c-.405-.169-.623-.403-.805-.758-.206-.404-.338-.893-.595-1.626l-.944.33c.223.637.401 1.268.65 1.752.273.532.655.953 1.31 1.225l.384-.924zM32.85 22h-2.7v1h2.7v-1zm-3.172.334c-.257.73-.388 1.218-.596 1.623-.182.358-.4.594-.804.761l.384.924c.657-.273 1.038-.697 1.31-1.23.248-.484.427-1.115.65-1.746l-.944-.332zm-1.4 2.384c-.403.168-.724.156-1.107.033-.434-.139-.874-.39-1.577-.723l-.428.904c.607.287 1.182.606 1.7.772.57.182 1.14.21 1.796-.062l-.384-.924zm-3.252-.592l-1.9 1.9.708.708 1.9-1.9-.708-.708zm-1.998 2.468c.334.706.584 1.135.724 1.567.121.376.135.7-.036 1.122l.928.374c.269-.667.243-1.234.06-1.803-.166-.513-.486-1.084-.772-1.688l-.904.428zm.688 2.689c-.168.416-.403.632-.756.809-.19.096-.413.18-.69.273-.263.089-.595.193-.936.314l.332.943c.339-.12.627-.21.925-.31.285-.096.563-.198.819-.327.537-.27.962-.654 1.234-1.328l-.928-.374zM21 31.15v2.7h1v-2.7h-1zm.334 3.172c.73.257 1.218.388 1.623.596.358.182.594.4.761.804l.924-.384c-.273-.657-.697-1.038-1.23-1.31-.484-.248-1.115-.427-1.746-.65l-.332.944zm2.384 1.4c.167.401.154.727.03 1.114-.14.437-.392.878-.72 1.57l.904.428c.282-.598.6-1.172.768-1.692.183-.57.215-1.145-.058-1.804l-.924.384zm-.592 3.252l1.9 1.9.708-.708-1.9-1.9-.708.708zm2.47 1.997c.699-.333 1.13-.584 1.561-.723.377-.121.703-.135 1.126.036l.374-.928c-.667-.27-1.236-.243-1.806-.06-.516.167-1.086.486-1.686.773l.43.902zm2.682-.69c.405.169.623.403.805.758.206.404.338.893.595 1.626l.944-.33c-.223-.637-.401-1.268-.65-1.752-.273-.532-.655-.953-1.31-1.225l-.384.924zM30.15 43h2.7v-1h-2.7v1zm3.172-.334c.257-.729.388-1.218.597-1.624.183-.358.405-.599.815-.771l-.388-.922c-.66.278-1.043.703-1.317 1.237-.25.486-.428 1.117-.65 1.748l.943.332zm1.407-2.393c.398-.163.714-.15 1.095-.026.435.14.874.392 1.583.726l.426-.906c-.61-.286-1.187-.605-1.7-.771-.566-.184-1.13-.216-1.783.051l.38.926zm3.245.6l1.9-1.9-.708-.707-1.9 1.9.708.708zm1.997-2.468c-.333-.7-.584-1.13-.723-1.562-.121-.377-.135-.703.036-1.126l-.928-.374c-.27.667-.243 1.236-.06 1.806.167.516.486 1.086.773 1.686l.902-.43zm-.687-2.688c.168-.416.403-.632.756-.809.19-.096.413-.18.69-.273.263-.089.595-.193.936-.313l-.332-.944c-.339.12-.627.21-.925.31a6.377 6.377 0 0 0-.819.326c-.537.27-.962.655-1.234 1.329l.928.374zM31.5 35.35a2.83 2.83 0 0 1-1.572-.477l-.556.832c.63.42 1.37.645 2.128.645v-1zm-1.572-.477a2.83 2.83 0 0 1-1.043-1.27l-.924.383c.29.7.781 1.298 1.411 1.719l.556-.832zm-1.043-1.27a2.83 2.83 0 0 1-.16-1.635l-.981-.195a3.83 3.83 0 0 0 .218 2.213l.923-.383zm-.16-1.635a2.83 2.83 0 0 1 .774-1.45l-.707-.706a3.83 3.83 0 0 0-1.048 1.96l.98.196zm.774-1.45a2.83 2.83 0 0 1 1.449-.774l-.195-.98a3.83 3.83 0 0 0-1.961 1.048l.707.707zm1.449-.774a2.83 2.83 0 0 1 1.635.161l.383-.924a3.83 3.83 0 0 0-2.213-.217l.195.98zm1.635.161c.517.215.96.577 1.27 1.043l.831-.556a3.83 3.83 0 0 0-1.718-1.41l-.383.923zm1.27 1.043a2.83 2.83 0 0 1 .477 1.572h1a3.83 3.83 0 0 0-.645-2.128l-.832.556zm.477 1.569a2.83 2.83 0 0 1-.835 1.99l.705.71a3.83 3.83 0 0 0 1.13-2.694l-1-.006zm-.835 1.99a2.83 2.83 0 0 1-1.995.823v1a3.83 3.83 0 0 0 2.7-1.114l-.705-.709zM31 35.83v.02h1v-.02h-1z" fill="url(#paint0_linear)"/><defs><linearGradient id="paint0_linear" x1="28.5" y1="5.5" x2="28.5" y2="46.5" gradientUnits="userSpaceOnUse"><stop stop-color="#352BEB"/><stop offset="1" stop-color="#5F27CD"/></linearGradient></defs></svg>