<?xml version="1.0" encoding="UTF-8"?>
<svg id="ShipStation_-_Green_Blue" data-name="ShipStation - Green Blue" xmlns="http://www.w3.org/2000/svg" viewBox="0 0 64 64">
  <defs>
    <style>
      .cls-1 {
        fill: #11003a;
      }

      .cls-2 {
        fill: #00e664;
      }
    </style>
  </defs>
  <path class="cls-1" d="M51.65,60H12.35l-.99-.83-4.35-25,.99-1.17h48l.99,1.17-4.35,25-.99.83ZM13.19,58h37.62l4-23H9.19l4,23Z"/>
  <g>
    <rect class="cls-2" x="5" y="25" width="54" height="9"/>
    <path class="cls-2" d="M60,35H4v-11h56v11ZM6,33h52v-7H6v7Z"/>
  </g>
  <rect class="cls-1" x="10.88" y="16.5" width="26.25" height="2" transform="translate(.02 35.03) rotate(-72.26)"/>
  <rect class="cls-1" x="39" y="4.38" width="2" height="26.25" transform="translate(-3.43 13.02) rotate(-17.74)"/>
  <rect class="cls-1" x="31" y="38.65" width="2" height="15"/>
  <rect class="cls-1" x="19.65" y="38.62" width="2" height="15.06" transform="translate(-3.89 1.95) rotate(-4.93)"/>
  <rect class="cls-1" x="35.82" y="45.15" width="15.06" height="2" transform="translate(-6.36 85.38) rotate(-85.07)"/>
</svg>