<svg width="64" height="64" fill="none" xmlns="http://www.w3.org/2000/svg"><path d="M38 50H26l-2 8h16l-2-8z" stroke="#5F27CD" stroke-width="2" stroke-miterlimit="10"/><path d="M17 58h30" stroke="#5F27CD" stroke-width="2" stroke-miterlimit="10" stroke-linecap="round"/><path d="M59.54 6H4.46A3.46 3.46 0 0 0 1 9.46v37.08A3.46 3.46 0 0 0 4.46 50h55.08A3.46 3.46 0 0 0 63 46.54V9.46A3.46 3.46 0 0 0 59.54 6z" stroke="#5F27CD" stroke-width="2" stroke-miterlimit="10"/><rect x="5" y="10" width="54" height="36" rx="1" stroke="#5F27CD" stroke-width="2"/><path d="M35.52 50a3.52 3.52 0 0 1-7 0" stroke="#5F27CD" stroke-width="2" stroke-miterlimit="10"/><path d="M18 16l3.31 2.49c.445.326.758.802.88 1.34l2.64 11.43c.11.479.05.98-.17 1.42l-1 2a.88.88 0 0 0 .75 1.32H42" stroke="#5F27CD" stroke-width="2" stroke-linecap="round" stroke-linejoin="round"/><path d="M21.9 19.14l22.87.86c-2.48 11.12-2.48 11.12-10.48 11.12l-8.95-.07M33 19.55V31m-5.82-11.362L28.99 31m9.87-11.2L37.07 31m-13.65-5.87h20.16M26 40a2 2 0 1 0 0-4 2 2 0 0 0 0 4zm14 0a2 2 0 1 0 0-4 2 2 0 0 0 0 4z" stroke="#5F27CD" stroke-width="2" stroke-linecap="round" stroke-linejoin="round"/></svg>