<?xml version="1.0" encoding="UTF-8"?> <svg xmlns="http://www.w3.org/2000/svg" width="64" height="64" fill="none"><path d="M37.9 54.39L16 60.78A5.6 5.6 0 0 1 9.05 57l-7.5-25.75a7.53 7.53 0 0 1 .24-4.91l4.71-11.7a5.33 5.33 0 0 1 3.5-3.15l6.43-1.89a5.34 5.34 0 0 1 4.57.77l10.33 7.34a7.5 7.5 0 0 1 2.86 4l7.5 25.73a5.582 5.582 0 0 1-3.79 6.95v0z" stroke="#5F27CD" stroke-width="2" stroke-linecap="round" stroke-linejoin="round"></path><path d="M16.3 25.1a4 4 0 1 0 0-8 4 4 0 0 0 0 8zm0-4s10.36 10.52 23.8 6.6M11.18 39.26l19.2-5.6m-17.8 10.4l19.2-5.6m-17.8 10.4l7.68-2.24m2.88-.84l2.88-.84m2.88-.84l2.88-.84" stroke="#5F27CD" stroke-width="2" stroke-linecap="round" stroke-linejoin="round"></path></svg> 