<svg width="56" height="56" fill="none" xmlns="http://www.w3.org/2000/svg"><path d="M26.884 7.266a.5.5 0 0 0-.492-.871l.492.87zm-16.802 8.329a.5.5 0 1 0 .49.87l-.49-.87zm36.345.87a.5.5 0 0 0 .492-.87l-.492.87zm-15.635-9.97a.5.5 0 1 0-.491.87l.491-.87zM47.953 37.31a.5.5 0 1 0 1 0h-1zM30.147 49.305a.5.5 0 0 0 .492.87l-.492-.87zm16.782-8.32a.5.5 0 1 0-.491-.87l.491.87zm-36.387-.88a.5.5 0 0 0-.491.87l.49-.87zm15.82 10.07a.5.5 0 1 0 .49-.87l-.49.87zm20.608-12.2a.5.5 0 0 0 .86-.51l-.86.51zM30.137 7.746a.5.5 0 0 0-.859.51l.86-.51zM10.84 39a.5.5 0 0 0 0 1v-1zm35.384 1a.5.5 0 1 0 0-1v1zM27.886 7.966a.5.5 0 1 0-.86-.512l.86.512zM9.14 37.524a.5.5 0 0 0 .86.512l-.86-.512zm21.775-11.21a.5.5 0 0 0 .491.872l-.491-.872zm16.014-7.878a.5.5 0 0 0-.491-.872l.49.872zM10.07 38.065a.5.5 0 0 0 .491.87l-.49-.87zm15.84-7.78a.5.5 0 0 0-.49-.87l.49.87zm5.598-.91a.5.5 0 1 0-.492.87l.492-.87zm14.929 9.56a.5.5 0 0 0 .49-.87l-.49.87zm-35.876-21.37a.5.5 0 1 0-.49.87l.49-.87zm14.92 9.56a.5.5 0 1 0 .49-.87l-.49.87zM29 31.37a.5.5 0 0 0-1 0h1zm-1 17.01a.5.5 0 1 0 1 0h-1zm1-40.21a.5.5 0 0 0-1 0h1zm-2.608-1.775l-16.31 9.2.49.87 16.312-9.2-.492-.87zm20.527 9.2l-16.127-9.1-.491.87 16.126 9.1.492-.87zm2.035 21.715V19h-1v18.31h1zM30.638 50.175l16.29-9.19-.491-.87-16.29 9.19.49.87zm-20.588-9.2l16.31 9.2.492-.87-16.311-9.2-.491.87zM8.047 19v18.5h1V19h-1zm39.782 18.464L30.137 7.744l-.859.512 17.692 29.72.86-.512zM10.84 40h35.384v-1H10.839v1zM27.027 7.454L9.14 37.524l.86.512 17.886-30.07-.86-.512zm4.38 19.732l15.522-8.75-.491-.872-15.523 8.75.491.872zm-20.845 11.75l15.349-8.65-.49-.872-15.35 8.65.491.872zm20.456-8.69l15.42 8.69.49-.871-15.42-8.69-.49.87zM10.07 18.436l15.41 8.69.492-.872-15.41-8.69-.492.872zM28 31.37v17.01h1V31.37h-1zm0-23.2v17.08h1V8.17h-1zM10.093 17c0 .818-.681 1.5-1.546 1.5v1c1.395 0 2.546-1.108 2.546-2.5h-1zm-1.546 1.5C7.68 18.5 7 17.818 7 17H6c0 1.392 1.151 2.5 2.547 2.5v-1zM7 17c0-.818.681-1.5 1.547-1.5v-1C7.15 14.5 6 15.608 6 17h1zm1.547-1.5c.865 0 1.546.682 1.546 1.5h1c0-1.392-1.151-2.5-2.546-2.5v1zM50 17c0 .818-.681 1.5-1.547 1.5v1C49.85 19.5 51 18.392 51 17h-1zm-1.547 1.5c-.864 0-1.546-.682-1.546-1.5h-1c0 1.392 1.151 2.5 2.547 2.5v-1zM46.907 17c0-.818.682-1.5 1.547-1.5v-1c-1.396 0-2.547 1.108-2.547 2.5h1zm1.547-1.5c.864 0 1.546.682 1.546 1.5h1c0-1.392-1.151-2.5-2.547-2.5v1zM50 39.5c0 .818-.681 1.5-1.547 1.5v1C49.85 42 51 40.892 51 39.5h-1zM48.453 41c-.864 0-1.546-.682-1.546-1.5h-1c0 1.392 1.151 2.5 2.547 2.5v-1zm-1.546-1.5c0-.818.682-1.5 1.547-1.5v-1c-1.396 0-2.547 1.108-2.547 2.5h1zm1.547-1.5c.864 0 1.546.682 1.546 1.5h1c0-1.392-1.151-2.5-2.547-2.5v1zm-38.361 1.5c0 .818-.681 1.5-1.546 1.5v1c1.395 0 2.546-1.108 2.546-2.5h-1zM8.547 41C7.68 41 7 40.318 7 39.5H6C6 40.892 7.151 42 8.547 42v-1zM7 39.5c0-.818.681-1.5 1.547-1.5v-1C7.15 37 6 38.108 6 39.5h1zM8.547 38c.865 0 1.546.682 1.546 1.5h1c0-1.392-1.151-2.5-2.546-2.5v1zm21.5 12.5c0 .818-.682 1.5-1.547 1.5v1c1.395 0 2.547-1.108 2.547-2.5h-1zM28.5 52c-.865 0-1.547-.682-1.547-1.5h-1c0 1.392 1.152 2.5 2.547 2.5v-1zm-1.547-1.5c0-.818.682-1.5 1.547-1.5v-1c-1.395 0-2.547 1.108-2.547 2.5h1zM28.5 49c.865 0 1.547.682 1.547 1.5h1c0-1.392-1.152-2.5-2.547-2.5v1zm2.57-20.75c0 1.37-1.14 2.5-2.57 2.5v1c1.96 0 3.57-1.556 3.57-3.5h-1zm-2.57 2.5c-1.43 0-2.57-1.13-2.57-2.5h-1c0 1.944 1.61 3.5 3.57 3.5v-1zm-2.57-2.5c0-1.37 1.14-2.5 2.57-2.5v-1c-1.96 0-3.57 1.556-3.57 3.5h1zm2.57-2.5c1.43 0 2.57 1.13 2.57 2.5h1c0-1.944-1.61-3.5-3.57-3.5v1zM30.047 6c0 .818-.682 1.5-1.547 1.5v1c1.395 0 2.547-1.109 2.547-2.5h-1zM28.5 7.5c-.865 0-1.547-.682-1.547-1.5h-1c0 1.391 1.152 2.5 2.547 2.5v-1zM26.953 6c0-.818.682-1.5 1.547-1.5v-1c-1.395 0-2.547 1.109-2.547 2.5h1zM28.5 4.5c.865 0 1.547.682 1.547 1.5h1c0-1.391-1.152-2.5-2.547-2.5v1z" fill="url(#paint0_linear)"/><defs><linearGradient id="paint0_linear" x1="28.5" y1="4" x2="28.5" y2="52.5" gradientUnits="userSpaceOnUse"><stop stop-color="#352BEB"/><stop offset="1" stop-color="#5F27CD"/></linearGradient></defs></svg>