<?xml version="1.0" encoding="UTF-8" standalone="no"?>
<!DOCTYPE svg PUBLIC "-//W3C//DTD SVG 1.1//EN" "http://www.w3.org/Graphics/SVG/1.1/DTD/svg11.dtd">
<svg width="100px" height="100px" version="1.1" xmlns="http://www.w3.org/2000/svg" xmlns:xlink="http://www.w3.org/1999/xlink" xml:space="preserve" xmlns:serif="http://www.serif.com/" style="fill-rule:evenodd;clip-rule:evenodd;stroke-linejoin:round;stroke-miterlimit:2;">
    <g transform="matrix(0.329471,0,0,0.329471,-57.0557,-102.619)">
        <path d="M411.009,397.007L411.009,426.68C411.009,427.821 411.009,428.962 409.868,430.103C408.727,431.245 408.727,431.245 407.586,432.386L382.478,435.809C381.337,440.375 379.054,444.939 376.771,447.222C380.195,451.787 384.76,457.494 391.608,465.482C392.749,466.624 392.749,467.765 392.749,468.906C392.749,470.048 392.749,471.189 391.608,472.33C389.325,475.754 384.76,480.319 379.054,487.167C373.347,494.014 368.782,496.297 366.5,496.297C365.359,496.297 364.217,496.297 363.076,495.155L343.675,480.319C340.251,482.601 335.686,483.743 331.12,484.885C329.979,497.438 328.838,505.427 327.697,509.992C327.697,513.416 325.414,514.557 323.132,514.557L293.459,514.557C292.318,514.557 291.176,514.557 290.035,513.416C288.894,512.274 288.894,511.134 288.894,509.992L285.47,484.885C280.905,483.743 277.481,481.461 272.916,480.319L253.514,495.155C252.373,496.297 251.232,496.297 250.091,496.297C248.949,496.297 247.808,496.297 246.667,495.155C235.254,484.885 228.406,478.037 224.983,472.33C223.842,471.189 223.842,470.048 223.842,468.906C223.842,467.765 223.842,466.624 224.983,465.482C226.124,463.2 228.406,460.918 231.83,456.352C235.254,451.787 237.536,449.505 238.678,447.222C236.395,442.657 234.113,438.092 232.971,433.527L209.005,430.103C207.863,430.103 206.722,428.962 206.722,428.962C206.722,428.962 205.581,427.821 205.581,426.68L205.581,397.007C205.581,395.865 205.581,394.723 206.722,393.583C207.863,392.441 207.863,392.441 209.005,391.3L234.113,387.877C235.254,383.311 237.536,379.888 239.819,375.322C236.395,370.758 231.83,363.91 224.983,357.062C223.842,355.921 223.842,354.779 223.842,353.638C223.842,352.497 223.842,351.355 224.983,350.215C227.265,346.791 231.83,342.225 238.678,335.378C245.526,328.53 248.949,326.248 251.232,326.248C252.373,326.248 253.514,326.248 254.655,327.389L272.916,342.225C276.34,339.943 280.905,338.802 285.47,337.66C286.611,325.106 287.752,317.118 288.894,312.553C290.035,310.27 291.176,309.129 293.459,309.129L323.132,309.129C324.273,309.129 325.414,309.129 326.555,310.27C327.697,311.411 327.697,312.553 327.697,313.694L331.121,338.802C335.686,339.943 339.11,342.225 343.675,343.367L363.076,328.53C364.217,327.389 365.359,327.389 366.5,327.389C367.641,327.389 368.782,327.389 369.924,328.53C381.337,338.802 389.325,346.791 391.608,351.355C392.749,352.497 392.749,352.497 392.749,354.779C392.749,355.921 392.749,357.062 391.608,358.203C390.467,360.486 388.184,362.768 384.76,367.334C381.337,371.898 379.054,374.181 377.913,376.464C380.195,381.029 382.478,385.594 383.619,389.017L407.586,392.441C408.727,392.441 409.868,393.583 409.868,393.583C409.868,393.583 411.009,395.865 411.009,397.007ZM342.533,411.843C342.533,402.713 339.11,394.723 332.262,387.876C325.414,381.029 317.426,377.605 308.295,377.605C299.165,377.605 291.176,381.029 284.328,387.876C277.481,394.723 274.057,402.713 274.057,411.843C274.057,420.973 277.481,428.962 284.328,435.809C291.176,442.657 299.165,446.081 308.295,446.081C317.426,446.081 325.414,442.657 332.262,435.809C339.11,428.962 342.533,420.973 342.533,411.843Z" style="fill:rgb(86,166,220);fill-rule:nonzero;"/>
    </g>
    <g transform="matrix(0.329471,0,0,0.329471,-57.0557,-102.619)">
        <path d="M444.277,555.064L442.577,572.045C442.511,572.698 442.446,573.351 441.728,573.938C441.009,574.526 441.009,574.526 440.291,575.114L425.726,575.635C424.811,578.181 423.243,580.664 421.807,581.839C423.504,584.647 425.79,588.175 429.251,593.138C429.839,593.857 429.773,594.511 429.708,595.163C429.642,595.816 429.577,596.47 428.858,597.057C427.356,598.886 424.482,601.237 420.824,604.828C417.166,608.42 414.423,609.465 413.117,609.334C412.464,609.268 411.811,609.203 411.223,608.484L400.97,598.883C398.88,599.993 396.202,600.384 393.525,600.775C392.152,607.894 391.041,612.4 390.127,614.948C389.93,616.907 388.559,617.43 387.253,617.299L370.272,615.598C369.619,615.533 368.966,615.468 368.378,614.749C367.79,614.03 367.856,613.378 367.921,612.724L367.4,598.16C364.853,597.245 363.025,595.743 360.478,594.828L348.525,602.207C347.806,602.795 347.153,602.729 346.5,602.664C345.847,602.598 345.194,602.533 344.606,601.814C338.664,595.283 335.137,590.971 333.505,587.51C332.917,586.792 332.983,586.138 333.048,585.485C333.113,584.832 333.179,584.179 333.898,583.592C334.681,582.35 336.118,581.175 338.339,578.759C340.56,576.343 341.997,575.167 342.781,573.927C341.737,571.183 340.692,568.44 340.3,565.763L326.781,562.43C326.128,562.364 325.54,561.645 325.54,561.645C325.54,561.645 324.953,560.928 325.018,560.274L326.718,543.294C326.784,542.64 326.849,541.987 327.568,541.399C328.286,540.811 328.286,540.811 329.005,540.224L343.569,539.703C344.484,537.156 345.986,535.328 347.554,532.846C345.856,530.038 343.636,525.857 340.11,521.547C339.522,520.828 339.588,520.175 339.653,519.521C339.718,518.87 339.784,518.216 340.502,517.628C342.005,515.8 344.879,513.448 349.19,509.922C353.501,506.396 355.591,505.286 356.897,505.417C357.55,505.482 358.203,505.548 358.791,506.265L368.39,515.803C370.481,514.692 373.158,514.302 375.836,513.909C377.209,506.791 378.32,502.284 379.234,499.737C380.018,498.497 380.737,497.909 382.043,498.04L399.023,499.74C399.676,499.805 400.329,499.871 400.917,500.589C401.505,501.307 401.44,501.961 401.374,502.614L401.895,517.179C404.442,518.093 406.27,519.596 408.818,520.51L420.77,513.133C421.489,512.544 422.142,512.609 422.795,512.675C423.448,512.74 424.101,512.805 424.689,513.523C430.632,520.055 434.745,525.086 435.79,527.828C436.378,528.547 436.378,528.547 436.247,529.853C436.181,530.506 436.116,531.159 435.398,531.747C434.614,532.988 433.177,534.163 430.956,536.579C428.735,538.996 427.298,540.171 426.514,541.412C427.559,544.155 428.603,546.898 429.06,548.923L442.579,552.256C443.233,552.321 443.82,553.04 443.82,553.04C443.82,553.04 444.342,554.411 444.277,555.064ZM404.24,559.631C404.764,554.406 403.262,549.638 399.736,545.327C396.21,541.016 391.834,538.599 386.61,538.076C381.384,537.553 376.616,539.055 372.305,542.581C367.995,546.107 365.577,550.482 365.054,555.707C364.531,560.932 366.033,565.7 369.559,570.011C373.085,574.322 377.461,576.739 382.686,577.263C387.91,577.785 392.678,576.284 396.989,572.758C401.301,569.231 403.717,564.855 404.24,559.631Z" style="fill:rgb(86,166,220);fill-rule:nonzero;"/>
    </g>
</svg>
