<?xml version="1.0" encoding="UTF-8" standalone="no"?>
<!DOCTYPE svg PUBLIC "-//W3C//DTD SVG 1.1//EN" "http://www.w3.org/Graphics/SVG/1.1/DTD/svg11.dtd">
<svg width="228px" height="50px" version="1.1" xmlns="http://www.w3.org/2000/svg" xmlns:xlink="http://www.w3.org/1999/xlink" xml:space="preserve" xmlns:serif="http://www.serif.com/" style="fill-rule:evenodd;clip-rule:evenodd;stroke-linejoin:round;stroke-miterlimit:2;">
    <g transform="matrix(0.228,0,0,0.228,0,0)">
        <g transform="matrix(141.714,0,0,157.46,222.062,173.497)">
            <path d="M0.712,-0.208L0.712,-0.059C0.627,-0.014 0.537,0.009 0.444,0.009C0.323,0.009 0.226,-0.025 0.155,-0.092C0.083,-0.158 0.047,-0.241 0.047,-0.339C0.047,-0.437 0.085,-0.52 0.16,-0.588C0.236,-0.657 0.335,-0.691 0.457,-0.691C0.554,-0.691 0.637,-0.671 0.704,-0.631L0.704,-0.479C0.621,-0.526 0.543,-0.549 0.469,-0.549C0.397,-0.549 0.337,-0.529 0.291,-0.49C0.245,-0.452 0.222,-0.402 0.222,-0.342C0.222,-0.281 0.245,-0.231 0.29,-0.192C0.336,-0.153 0.394,-0.133 0.465,-0.133C0.5,-0.133 0.534,-0.137 0.566,-0.147C0.599,-0.156 0.647,-0.176 0.712,-0.208Z" style="fill:rgb(22,41,72);fill-rule:nonzero;"/>
        </g>
        <g transform="matrix(141.714,0,0,157.46,336.39,173.497)">
            <path d="M0.438,-0.691C0.554,-0.691 0.648,-0.656 0.72,-0.586C0.792,-0.516 0.828,-0.434 0.828,-0.341C0.828,-0.246 0.792,-0.165 0.719,-0.095C0.646,-0.026 0.552,0.009 0.438,0.009C0.322,0.009 0.228,-0.026 0.156,-0.095C0.083,-0.164 0.047,-0.246 0.047,-0.341C0.047,-0.434 0.083,-0.516 0.155,-0.586C0.227,-0.656 0.321,-0.691 0.438,-0.691ZM0.438,-0.133C0.502,-0.133 0.554,-0.152 0.594,-0.19C0.633,-0.228 0.653,-0.279 0.653,-0.341C0.653,-0.403 0.633,-0.454 0.594,-0.492C0.554,-0.53 0.502,-0.549 0.438,-0.549C0.373,-0.549 0.321,-0.53 0.281,-0.492C0.242,-0.454 0.222,-0.403 0.222,-0.341C0.222,-0.279 0.242,-0.228 0.281,-0.19C0.321,-0.152 0.373,-0.133 0.438,-0.133Z" style="fill:rgb(22,41,72);fill-rule:nonzero;"/>
        </g>
        <g transform="matrix(141.714,0,0,157.46,460.39,173.497)">
            <path d="M0.767,-0.682L0.767,-0L0.624,-0L0.247,-0.437L0.247,-0L0.077,-0L0.077,-0.682L0.233,-0.682L0.597,-0.265L0.597,-0.682L0.767,-0.682Z" style="fill:rgb(22,41,72);fill-rule:nonzero;"/>
        </g>
        <g transform="matrix(141.714,0,0,157.46,580.03,173.497)">
            <path d="M0.767,-0.682L0.767,-0L0.624,-0L0.247,-0.437L0.247,-0L0.077,-0L0.077,-0.682L0.233,-0.682L0.597,-0.265L0.597,-0.682L0.767,-0.682Z" style="fill:rgb(22,41,72);fill-rule:nonzero;"/>
        </g>
        <g transform="matrix(141.714,0,0,157.46,699.67,173.497)">
            <path d="M0.581,-0.125L0.581,-0L0.078,-0L0.078,-0.682L0.574,-0.682L0.574,-0.557L0.248,-0.557L0.248,-0.414L0.559,-0.414L0.559,-0.289L0.248,-0.289L0.248,-0.125L0.581,-0.125Z" style="fill:rgb(22,41,72);fill-rule:nonzero;"/>
        </g>
        <g transform="matrix(141.714,0,0,157.46,789.625,173.497)">
            <path d="M0.712,-0.208L0.712,-0.059C0.627,-0.014 0.537,0.009 0.444,0.009C0.323,0.009 0.226,-0.025 0.155,-0.092C0.083,-0.158 0.047,-0.241 0.047,-0.339C0.047,-0.437 0.085,-0.52 0.16,-0.588C0.236,-0.657 0.335,-0.691 0.457,-0.691C0.554,-0.691 0.637,-0.671 0.704,-0.631L0.704,-0.479C0.621,-0.526 0.543,-0.549 0.469,-0.549C0.397,-0.549 0.337,-0.529 0.291,-0.49C0.245,-0.452 0.222,-0.402 0.222,-0.342C0.222,-0.281 0.245,-0.231 0.29,-0.192C0.336,-0.153 0.394,-0.133 0.465,-0.133C0.5,-0.133 0.534,-0.137 0.566,-0.147C0.599,-0.156 0.647,-0.176 0.712,-0.208Z" style="fill:rgb(22,41,72);fill-rule:nonzero;"/>
        </g>
        <g transform="matrix(141.714,0,0,157.46,898.886,173.497)">
            <path d="M0.692,-0.682L0.692,-0.557L0.445,-0.557L0.445,-0L0.275,-0L0.275,-0.557L0.028,-0.557L0.028,-0.682L0.692,-0.682Z" style="fill:rgb(22,41,72);fill-rule:nonzero;"/>
        </g>
    </g>
    <g transform="matrix(0.898965,0,0,0.88877,22.5597,-7.55382)">
        <path d="M50.54,12.33L50.54,16.33L45.06,16.33L45.06,12.33L43.89,12.33L43.89,21.71L45.06,21.71L45.06,17.4L50.54,17.4L50.54,21.71L51.71,21.71L51.71,12.33L50.54,12.33ZM56.13,21.71L57.29,21.71L57.29,12.33L56.13,12.33L56.13,21.71ZM62.87,13.37L65.33,13.37C65.83,13.347 66.32,13.523 66.69,13.86C67.38,14.579 67.38,15.731 66.69,16.45C66.32,16.787 65.83,16.963 65.33,16.94L62.87,16.94L62.87,13.37ZM61.71,12.37L61.71,21.75L62.87,21.75L62.87,18L65.48,18C66.276,18.039 67.054,17.742 67.62,17.18C68.147,16.65 68.436,15.927 68.42,15.18C68.433,14.435 68.149,13.715 67.63,13.18C67.057,12.624 66.278,12.33 65.48,12.37L61.71,12.37ZM71.93,12.37L71.93,21.75L78.8,21.75L78.8,19.6L74.35,19.6L74.35,18L78.71,18L78.71,15.9L74.35,15.9L74.35,14.43L78.8,14.43L78.8,12.33L71.93,12.37ZM88.72,12.37L88.72,17.53L84.92,12.37L82.43,12.37L82.43,21.75L84.85,21.75L84.85,16.27L88.85,21.71L91.18,21.71L91.18,12.33L88.72,12.37ZM107.44,21.75L109.86,21.75L109.86,12.33L107.44,12.33L107.44,21.75ZM120.06,12.37L120.06,17.53L116.26,12.37L113.77,12.37L113.77,21.75L116.19,21.75L116.19,16.27L120.19,21.71L122.52,21.71L122.52,12.33L120.06,12.37ZM126.4,12.37L126.4,21.75L133.27,21.75L133.27,19.6L128.82,19.6L128.82,18L133.18,18L133.18,15.9L128.82,15.9L128.82,14.43L133.27,14.43L133.27,12.33L126.4,12.37ZM34.07,12.95C33.489,13.395 33.151,14.089 33.16,14.82C33.146,15.163 33.211,15.506 33.35,15.82C33.471,16.08 33.645,16.311 33.86,16.5C34.089,16.681 34.337,16.835 34.6,16.96C34.882,17.1 35.177,17.214 35.48,17.3L36.4,17.56C36.71,17.64 37,17.73 37.28,17.82C37.535,17.91 37.782,18.021 38.02,18.15C38.226,18.267 38.401,18.431 38.53,18.63C38.657,18.83 38.723,19.063 38.72,19.3C38.72,19.493 38.679,19.684 38.6,19.86C38.52,20.052 38.401,20.226 38.25,20.37C38.051,20.556 37.811,20.693 37.55,20.77C37.227,20.872 36.889,20.922 36.55,20.92C35.968,20.927 35.392,20.797 34.87,20.54C34.385,20.288 33.951,19.949 33.59,19.54L32.91,20.42C33.823,21.434 35.147,21.986 36.51,21.92C36.955,21.927 37.399,21.873 37.83,21.76C38.186,21.682 38.525,21.54 38.83,21.34C39.085,21.174 39.308,20.964 39.49,20.72C39.657,20.494 39.782,20.24 39.86,19.97C39.94,19.708 39.981,19.434 39.98,19.16C39.984,18.817 39.919,18.477 39.79,18.16C39.675,17.883 39.501,17.634 39.28,17.43C39.054,17.235 38.805,17.067 38.54,16.93C38.256,16.788 37.962,16.667 37.66,16.57L36.74,16.31C36.43,16.23 36.14,16.14 35.86,16.05C35.605,15.977 35.357,15.88 35.12,15.76C34.922,15.663 34.748,15.523 34.61,15.35C34.486,15.178 34.419,14.972 34.42,14.76C34.413,14.334 34.615,13.93 34.96,13.68C35.363,13.39 35.854,13.245 36.35,13.27C37.347,13.232 38.314,13.626 39,14.35L39.7,13.49C38.826,12.603 37.614,12.13 36.37,12.19C35.54,12.158 34.724,12.412 34.06,12.91M97.67,12.51C97.074,12.738 96.528,13.077 96.06,13.51C95.607,13.928 95.246,14.435 95,15C94.476,16.281 94.476,17.719 95,19C95.249,19.583 95.621,20.105 96.09,20.53C96.556,20.966 97.103,21.306 97.7,21.53C98.342,21.758 99.019,21.873 99.7,21.87C101.285,21.901 102.805,21.231 103.85,20.04L103.85,16.32L99.27,16.32L99.27,18.45L101.38,18.45L101.38,19.17C101.156,19.347 100.902,19.483 100.63,19.57C100.309,19.683 99.971,19.741 99.63,19.74C98.937,19.764 98.265,19.495 97.78,19C96.798,17.904 96.798,16.226 97.78,15.13C98.265,14.612 98.951,14.328 99.66,14.35C100.075,14.344 100.483,14.462 100.83,14.69C101.164,14.909 101.441,15.204 101.64,15.55L103.64,14.49C103.473,14.18 103.268,13.891 103.03,13.63C102.777,13.363 102.496,13.125 102.19,12.92C101.842,12.684 101.457,12.508 101.05,12.4C100.591,12.27 100.117,12.206 99.64,12.21C98.958,12.202 98.281,12.317 97.64,12.55" style="fill:rgb(22,41,72);fill-rule:nonzero;"/>
    </g>
    <g transform="matrix(2.60877,-0.622326,0.622326,2.60877,-32.4337,-18.2708)">
        <path d="M13.36,18.49C12.957,18.101 12.736,17.56 12.75,17C12.741,16.447 12.962,15.914 13.36,15.53C14.167,14.724 15.493,14.724 16.3,15.53C16.698,15.914 16.919,16.447 16.91,17C16.91,18.141 15.971,19.08 14.83,19.08C14.277,19.089 13.744,18.868 13.36,18.47M13.93,10.76C13.789,10.748 13.661,10.85 13.64,10.99C13.532,11.488 13.452,11.993 13.4,12.5C13.144,12.58 12.896,12.684 12.66,12.81L11.54,12C11.482,11.948 11.408,11.919 11.33,11.92C11.21,11.92 10.95,12.11 10.56,12.5C10.275,12.773 10.008,13.063 9.76,13.37C9.718,13.425 9.693,13.491 9.69,13.56C9.689,13.632 9.718,13.7 9.77,13.75C10.13,14.19 10.42,14.57 10.64,14.88C10.506,15.114 10.399,15.362 10.32,15.62L8.81,15.85C8.745,15.866 8.688,15.905 8.65,15.96C8.612,16.013 8.591,16.075 8.59,16.14L8.59,17.95C8.59,18.018 8.611,18.084 8.65,18.14C8.691,18.195 8.752,18.231 8.82,18.24L10.31,18.46C10.394,18.74 10.505,19.011 10.64,19.27C10.55,19.4 10.4,19.59 10.2,19.84L9.79,20.38C9.751,20.436 9.73,20.502 9.73,20.57C9.709,20.628 9.709,20.692 9.73,20.75C10.134,21.247 10.582,21.706 11.07,22.12C11.125,22.177 11.201,22.21 11.28,22.21C11.353,22.21 11.423,22.185 11.48,22.14L12.63,21.27C12.866,21.387 13.11,21.487 13.36,21.57L13.64,23C13.641,23.071 13.674,23.137 13.73,23.18C13.788,23.223 13.858,23.248 13.93,23.25L15.73,23.25C15.869,23.246 15.985,23.138 16,23C16.102,22.501 16.179,21.997 16.23,21.49C16.485,21.407 16.732,21.304 16.97,21.18L18.09,22.06C18.154,22.098 18.226,22.122 18.3,22.13C18.42,22.13 18.68,21.94 19.07,21.55C19.361,21.279 19.628,20.985 19.87,20.67C19.92,20.623 19.949,20.558 19.95,20.49C19.947,20.411 19.915,20.337 19.86,20.28C19.47,19.81 19.18,19.43 19,19.16C19.119,18.92 19.223,18.673 19.31,18.42L20.82,18.19C20.885,18.181 20.943,18.145 20.98,18.09C21.019,18.034 21.04,17.968 21.04,17.9L21.04,16.1C21.033,16.065 21.019,16.031 21,16C20.959,15.943 20.898,15.904 20.83,15.89L19.34,15.67C19.254,15.394 19.144,15.126 19.01,14.87C19.146,14.672 19.293,14.482 19.45,14.3L19.86,13.76C19.901,13.704 19.925,13.639 19.93,13.57C19.936,13.504 19.914,13.439 19.87,13.39C19.469,12.888 19.024,12.423 18.54,12C18.482,11.948 18.408,11.919 18.33,11.92C18.26,11.915 18.191,11.941 18.14,11.99L17,12.82C16.764,12.703 16.52,12.603 16.27,12.52L16,11C15.991,10.932 15.955,10.871 15.9,10.83C15.845,10.782 15.773,10.757 15.7,10.76L13.93,10.76Z" style="fill:rgb(69,170,242);fill-rule:nonzero;"/>
    </g>
    <g transform="matrix(1.89802,-0.0203984,0.0203984,1.89802,5.91877,6.00088)">
        <path d="M13.36,18.49C12.957,18.101 12.736,17.56 12.75,17C12.741,16.447 12.962,15.914 13.36,15.53C14.167,14.724 15.493,14.724 16.3,15.53C16.698,15.914 16.919,16.447 16.91,17C16.91,18.141 15.971,19.08 14.83,19.08C14.277,19.089 13.744,18.868 13.36,18.47M13.93,10.76C13.789,10.748 13.661,10.85 13.64,10.99C13.532,11.488 13.452,11.993 13.4,12.5C13.144,12.58 12.896,12.684 12.66,12.81L11.54,12C11.482,11.948 11.408,11.919 11.33,11.92C11.21,11.92 10.95,12.11 10.56,12.5C10.275,12.773 10.008,13.063 9.76,13.37C9.718,13.425 9.693,13.491 9.69,13.56C9.689,13.632 9.718,13.7 9.77,13.75C10.13,14.19 10.42,14.57 10.64,14.88C10.506,15.114 10.399,15.362 10.32,15.62L8.81,15.85C8.745,15.866 8.688,15.905 8.65,15.96C8.612,16.013 8.591,16.075 8.59,16.14L8.59,17.95C8.59,18.018 8.611,18.084 8.65,18.14C8.691,18.195 8.752,18.231 8.82,18.24L10.31,18.46C10.394,18.74 10.505,19.011 10.64,19.27C10.55,19.4 10.4,19.59 10.2,19.84L9.79,20.38C9.751,20.436 9.73,20.502 9.73,20.57C9.709,20.628 9.709,20.692 9.73,20.75C10.134,21.247 10.582,21.706 11.07,22.12C11.125,22.177 11.201,22.21 11.28,22.21C11.353,22.21 11.423,22.185 11.48,22.14L12.63,21.27C12.866,21.387 13.11,21.487 13.36,21.57L13.64,23C13.641,23.071 13.674,23.137 13.73,23.18C13.788,23.223 13.858,23.248 13.93,23.25L15.73,23.25C15.869,23.246 15.985,23.138 16,23C16.102,22.501 16.179,21.997 16.23,21.49C16.485,21.407 16.732,21.304 16.97,21.18L18.09,22.06C18.154,22.098 18.226,22.122 18.3,22.13C18.42,22.13 18.68,21.94 19.07,21.55C19.361,21.279 19.628,20.985 19.87,20.67C19.92,20.623 19.949,20.558 19.95,20.49C19.947,20.411 19.915,20.337 19.86,20.28C19.47,19.81 19.18,19.43 19,19.16C19.119,18.92 19.223,18.673 19.31,18.42L20.82,18.19C20.885,18.181 20.943,18.145 20.98,18.09C21.019,18.034 21.04,17.968 21.04,17.9L21.04,16.1C21.033,16.065 21.019,16.031 21,16C20.959,15.943 20.898,15.904 20.83,15.89L19.34,15.67C19.254,15.394 19.144,15.126 19.01,14.87C19.146,14.672 19.293,14.482 19.45,14.3L19.86,13.76C19.901,13.704 19.925,13.639 19.93,13.57C19.936,13.504 19.914,13.439 19.87,13.39C19.469,12.888 19.024,12.423 18.54,12C18.482,11.948 18.408,11.919 18.33,11.92C18.26,11.915 18.191,11.941 18.14,11.99L17,12.82C16.764,12.703 16.52,12.603 16.27,12.52L16,11C15.991,10.932 15.955,10.871 15.9,10.83C15.845,10.782 15.773,10.757 15.7,10.76L13.93,10.76Z" style="fill:rgb(69,170,242);fill-rule:nonzero;"/>
    </g>
</svg>
