<?xml version="1.0" encoding="UTF-8" standalone="no"?>
<!DOCTYPE svg PUBLIC "-//W3C//DTD SVG 1.1//EN" "http://www.w3.org/Graphics/SVG/1.1/DTD/svg11.dtd">
<svg width="500px" height="500px" version="1.1" xmlns="http://www.w3.org/2000/svg" xmlns:xlink="http://www.w3.org/1999/xlink" xml:space="preserve" xmlns:serif="http://www.serif.com/" style="fill-rule:evenodd;clip-rule:evenodd;stroke-linejoin:round;stroke-miterlimit:2;">
    <g transform="matrix(26.1243,-6.23198,6.23198,26.1243,-309.958,-182.52)">
        <path d="M13.36,18.49C12.957,18.101 12.736,17.56 12.75,17C12.741,16.447 12.962,15.914 13.36,15.53C14.167,14.724 15.493,14.724 16.3,15.53C16.698,15.914 16.919,16.447 16.91,17C16.91,18.141 15.971,19.08 14.83,19.08C14.277,19.089 13.744,18.868 13.36,18.47M13.93,10.76C13.789,10.748 13.661,10.85 13.64,10.99C13.532,11.488 13.452,11.993 13.4,12.5C13.144,12.58 12.896,12.684 12.66,12.81L11.54,12C11.482,11.948 11.408,11.919 11.33,11.92C11.21,11.92 10.95,12.11 10.56,12.5C10.275,12.773 10.008,13.063 9.76,13.37C9.718,13.425 9.693,13.491 9.69,13.56C9.689,13.632 9.718,13.7 9.77,13.75C10.13,14.19 10.42,14.57 10.64,14.88C10.506,15.114 10.399,15.362 10.32,15.62L8.81,15.85C8.745,15.866 8.688,15.905 8.65,15.96C8.612,16.013 8.591,16.075 8.59,16.14L8.59,17.95C8.59,18.018 8.611,18.084 8.65,18.14C8.691,18.195 8.752,18.231 8.82,18.24L10.31,18.46C10.394,18.74 10.505,19.011 10.64,19.27C10.55,19.4 10.4,19.59 10.2,19.84L9.79,20.38C9.751,20.436 9.73,20.502 9.73,20.57C9.709,20.628 9.709,20.692 9.73,20.75C10.134,21.247 10.582,21.706 11.07,22.12C11.125,22.177 11.201,22.21 11.28,22.21C11.353,22.21 11.423,22.185 11.48,22.14L12.63,21.27C12.866,21.387 13.11,21.487 13.36,21.57L13.64,23C13.641,23.071 13.674,23.137 13.73,23.18C13.788,23.223 13.858,23.248 13.93,23.25L15.73,23.25C15.869,23.246 15.985,23.138 16,23C16.102,22.501 16.179,21.997 16.23,21.49C16.485,21.407 16.732,21.304 16.97,21.18L18.09,22.06C18.154,22.098 18.226,22.122 18.3,22.13C18.42,22.13 18.68,21.94 19.07,21.55C19.361,21.279 19.628,20.985 19.87,20.67C19.92,20.623 19.949,20.558 19.95,20.49C19.947,20.411 19.915,20.337 19.86,20.28C19.47,19.81 19.18,19.43 19,19.16C19.119,18.92 19.223,18.673 19.31,18.42L20.82,18.19C20.885,18.181 20.943,18.145 20.98,18.09C21.019,18.034 21.04,17.968 21.04,17.9L21.04,16.1C21.033,16.065 21.019,16.031 21,16C20.959,15.943 20.898,15.904 20.83,15.89L19.34,15.67C19.254,15.394 19.144,15.126 19.01,14.87C19.146,14.672 19.293,14.482 19.45,14.3L19.86,13.76C19.901,13.704 19.925,13.639 19.93,13.57C19.936,13.504 19.914,13.439 19.87,13.39C19.469,12.888 19.024,12.423 18.54,12C18.482,11.948 18.408,11.919 18.33,11.92C18.26,11.915 18.191,11.941 18.14,11.99L17,12.82C16.764,12.703 16.52,12.603 16.27,12.52L16,11C15.991,10.932 15.955,10.871 15.9,10.83C15.845,10.782 15.773,10.757 15.7,10.76L13.93,10.76Z" style="fill:rgb(69,170,242);fill-rule:nonzero;"/>
    </g>
    <g transform="matrix(19.0068,-0.20427,0.20427,19.0068,74.104,60.537)">
        <path d="M13.36,18.49C12.957,18.101 12.736,17.56 12.75,17C12.741,16.447 12.962,15.914 13.36,15.53C14.167,14.724 15.493,14.724 16.3,15.53C16.698,15.914 16.919,16.447 16.91,17C16.91,18.141 15.971,19.08 14.83,19.08C14.277,19.089 13.744,18.868 13.36,18.47M13.93,10.76C13.789,10.748 13.661,10.85 13.64,10.99C13.532,11.488 13.452,11.993 13.4,12.5C13.144,12.58 12.896,12.684 12.66,12.81L11.54,12C11.482,11.948 11.408,11.919 11.33,11.92C11.21,11.92 10.95,12.11 10.56,12.5C10.275,12.773 10.008,13.063 9.76,13.37C9.718,13.425 9.693,13.491 9.69,13.56C9.689,13.632 9.718,13.7 9.77,13.75C10.13,14.19 10.42,14.57 10.64,14.88C10.506,15.114 10.399,15.362 10.32,15.62L8.81,15.85C8.745,15.866 8.688,15.905 8.65,15.96C8.612,16.013 8.591,16.075 8.59,16.14L8.59,17.95C8.59,18.018 8.611,18.084 8.65,18.14C8.691,18.195 8.752,18.231 8.82,18.24L10.31,18.46C10.394,18.74 10.505,19.011 10.64,19.27C10.55,19.4 10.4,19.59 10.2,19.84L9.79,20.38C9.751,20.436 9.73,20.502 9.73,20.57C9.709,20.628 9.709,20.692 9.73,20.75C10.134,21.247 10.582,21.706 11.07,22.12C11.125,22.177 11.201,22.21 11.28,22.21C11.353,22.21 11.423,22.185 11.48,22.14L12.63,21.27C12.866,21.387 13.11,21.487 13.36,21.57L13.64,23C13.641,23.071 13.674,23.137 13.73,23.18C13.788,23.223 13.858,23.248 13.93,23.25L15.73,23.25C15.869,23.246 15.985,23.138 16,23C16.102,22.501 16.179,21.997 16.23,21.49C16.485,21.407 16.732,21.304 16.97,21.18L18.09,22.06C18.154,22.098 18.226,22.122 18.3,22.13C18.42,22.13 18.68,21.94 19.07,21.55C19.361,21.279 19.628,20.985 19.87,20.67C19.92,20.623 19.949,20.558 19.95,20.49C19.947,20.411 19.915,20.337 19.86,20.28C19.47,19.81 19.18,19.43 19,19.16C19.119,18.92 19.223,18.673 19.31,18.42L20.82,18.19C20.885,18.181 20.943,18.145 20.98,18.09C21.019,18.034 21.04,17.968 21.04,17.9L21.04,16.1C21.033,16.065 21.019,16.031 21,16C20.959,15.943 20.898,15.904 20.83,15.89L19.34,15.67C19.254,15.394 19.144,15.126 19.01,14.87C19.146,14.672 19.293,14.482 19.45,14.3L19.86,13.76C19.901,13.704 19.925,13.639 19.93,13.57C19.936,13.504 19.914,13.439 19.87,13.39C19.469,12.888 19.024,12.423 18.54,12C18.482,11.948 18.408,11.919 18.33,11.92C18.26,11.915 18.191,11.941 18.14,11.99L17,12.82C16.764,12.703 16.52,12.603 16.27,12.52L16,11C15.991,10.932 15.955,10.871 15.9,10.83C15.845,10.782 15.773,10.757 15.7,10.76L13.93,10.76Z" style="fill:rgb(69,170,242);fill-rule:nonzero;"/>
    </g>
</svg>
