<?xml version="1.0" encoding="UTF-8" standalone="no"?>
<!DOCTYPE svg PUBLIC "-//W3C//DTD SVG 1.1//EN" "http://www.w3.org/Graphics/SVG/1.1/DTD/svg11.dtd">
<svg width="16px" height="14px" version="1.1" xmlns="http://www.w3.org/2000/svg" xmlns:xlink="http://www.w3.org/1999/xlink" xml:space="preserve" xmlns:serif="http://www.serif.com/" style="fill-rule:evenodd;clip-rule:evenodd;stroke-linejoin:round;stroke-miterlimit:2;">
    <g transform="matrix(0.0228571,0,0,0.0228571,0,0)">
        <path d="M700,67.3C674,78.7 646.2,86.3 617.3,90C647.1,72.2 669.8,44.3 680.4,10.7C652.7,27.2 622,38.9 589.4,45.4C563.1,17.4 525.6,0 484.6,0C405.1,0 341.2,64.5 341.2,143.5C341.2,154.9 342.2,165.8 344.5,176.2C225.2,170.4 119.6,113.2 48.7,26.1C36.4,47.6 29.1,72.2 29.1,98.7C29.1,148.4 54.7,192.5 92.8,218C69.7,217.6 47.1,210.9 28,200.3L28,201.9C28,271.6 77.7,329.6 143,342.9C131.3,346.1 118.6,347.6 105.4,347.6C96.2,347.6 86.9,347.1 78.2,345.1C96.8,401.9 149.6,443.7 212.3,445.1C163.5,483.3 101.5,506.3 34.4,506.3C22.6,506.3 11.3,505.8 0.1,504.3C63.7,545.3 139,568.7 220.2,568.7C484.3,568.7 628.6,349.9 628.6,160.3C628.6,154 628.4,147.8 628.1,141.7C656.6,121.6 680.5,96.4 700,67.3Z" style="fill:white;fill-rule:nonzero;"/>
    </g>
</svg>
