<?xml version="1.0" encoding="UTF-8" standalone="no"?>
<!DOCTYPE svg PUBLIC "-//W3C//DTD SVG 1.1//EN" "http://www.w3.org/Graphics/SVG/1.1/DTD/svg11.dtd">
<svg width="100%" height="100%" viewBox="0 0 260 114" version="1.1" xmlns="http://www.w3.org/2000/svg" xmlns:xlink="http://www.w3.org/1999/xlink" xml:space="preserve" xmlns:serif="http://www.serif.com/" style="fill-rule:evenodd;clip-rule:evenodd;stroke-linejoin:round;stroke-miterlimit:2;">
    <g>
        <g transform="matrix(2.22639,0,0,2.22639,-249.65,-108.869)">
            <g transform="matrix(12,0,0,12,170.075,83.5)">
                <path d="M0.073,0L0.073,-0.716L0.305,-0.716C0.393,-0.716 0.45,-0.712 0.477,-0.705C0.518,-0.694 0.552,-0.671 0.58,-0.635C0.607,-0.599 0.621,-0.553 0.621,-0.496C0.621,-0.452 0.613,-0.415 0.597,-0.385C0.581,-0.355 0.561,-0.331 0.536,-0.314C0.512,-0.297 0.487,-0.286 0.461,-0.28C0.427,-0.273 0.377,-0.27 0.312,-0.27L0.217,-0.27L0.217,0L0.073,0ZM0.217,-0.595L0.217,-0.392L0.296,-0.392C0.353,-0.392 0.391,-0.395 0.411,-0.403C0.43,-0.41 0.445,-0.422 0.456,-0.438C0.467,-0.454 0.472,-0.472 0.472,-0.494C0.472,-0.52 0.465,-0.541 0.449,-0.558C0.434,-0.575 0.415,-0.586 0.391,-0.59C0.374,-0.593 0.339,-0.595 0.287,-0.595L0.217,-0.595Z" style="fill:rgb(69,90,100);fill-rule:nonzero;"/>
            </g>
            <g transform="matrix(12,0,0,12,178.079,83.5)">
                <path d="M0.203,0L0.066,0L0.066,-0.519L0.193,-0.519L0.193,-0.445C0.215,-0.48 0.235,-0.503 0.252,-0.514C0.27,-0.525 0.289,-0.53 0.312,-0.53C0.343,-0.53 0.373,-0.522 0.402,-0.504L0.359,-0.385C0.336,-0.4 0.315,-0.407 0.295,-0.407C0.276,-0.407 0.259,-0.402 0.246,-0.391C0.233,-0.381 0.222,-0.362 0.215,-0.334C0.207,-0.306 0.203,-0.248 0.203,-0.16L0.203,0Z" style="fill:rgb(69,90,100);fill-rule:nonzero;"/>
            </g>
            <g transform="matrix(12,0,0,12,182.749,83.5)">
                <path d="M0.04,-0.267C0.04,-0.312 0.051,-0.356 0.074,-0.399C0.096,-0.442 0.128,-0.474 0.169,-0.497C0.21,-0.519 0.256,-0.53 0.307,-0.53C0.386,-0.53 0.45,-0.505 0.5,-0.454C0.55,-0.403 0.575,-0.339 0.575,-0.261C0.575,-0.182 0.55,-0.117 0.499,-0.066C0.449,-0.014 0.385,0.012 0.308,0.012C0.261,0.012 0.215,0.001 0.172,-0.021C0.129,-0.042 0.096,-0.073 0.074,-0.115C0.051,-0.156 0.04,-0.207 0.04,-0.267ZM0.181,-0.259C0.181,-0.208 0.193,-0.168 0.217,-0.141C0.242,-0.114 0.272,-0.1 0.308,-0.1C0.343,-0.1 0.373,-0.114 0.398,-0.141C0.422,-0.168 0.434,-0.208 0.434,-0.26C0.434,-0.311 0.422,-0.35 0.398,-0.377C0.373,-0.405 0.343,-0.418 0.308,-0.418C0.272,-0.418 0.242,-0.405 0.217,-0.377C0.193,-0.35 0.181,-0.311 0.181,-0.259Z" style="fill:rgb(69,90,100);fill-rule:nonzero;"/>
            </g>
            <g transform="matrix(12,0,0,12,190.079,83.5)">
                <path d="M0.547,0L0.42,0L0.42,-0.076C0.399,-0.047 0.374,-0.024 0.345,-0.01C0.316,0.004 0.287,0.012 0.258,0.012C0.198,0.012 0.147,-0.012 0.105,-0.06C0.062,-0.108 0.041,-0.175 0.041,-0.261C0.041,-0.349 0.062,-0.416 0.103,-0.462C0.144,-0.507 0.197,-0.53 0.26,-0.53C0.318,-0.53 0.368,-0.506 0.41,-0.458L0.41,-0.716L0.547,-0.716L0.547,0ZM0.181,-0.271C0.181,-0.215 0.189,-0.175 0.204,-0.15C0.226,-0.115 0.257,-0.097 0.297,-0.097C0.328,-0.097 0.355,-0.11 0.377,-0.137C0.4,-0.164 0.411,-0.204 0.411,-0.257C0.411,-0.317 0.4,-0.36 0.378,-0.386C0.357,-0.412 0.329,-0.425 0.296,-0.425C0.263,-0.425 0.236,-0.412 0.214,-0.386C0.192,-0.361 0.181,-0.322 0.181,-0.271Z" style="fill:rgb(69,90,100);fill-rule:nonzero;"/>
            </g>
            <g transform="matrix(12,0,0,12,197.409,83.5)">
                <path d="M0.413,0L0.413,-0.078C0.394,-0.05 0.369,-0.028 0.339,-0.012C0.308,0.004 0.275,0.012 0.241,0.012C0.206,0.012 0.175,0.004 0.147,-0.011C0.12,-0.027 0.1,-0.048 0.087,-0.076C0.075,-0.103 0.069,-0.142 0.069,-0.19L0.069,-0.519L0.206,-0.519L0.206,-0.28C0.206,-0.207 0.209,-0.163 0.214,-0.146C0.219,-0.13 0.228,-0.117 0.241,-0.107C0.255,-0.098 0.271,-0.093 0.292,-0.093C0.315,-0.093 0.336,-0.099 0.355,-0.112C0.374,-0.125 0.386,-0.141 0.393,-0.16C0.4,-0.179 0.403,-0.226 0.403,-0.3L0.403,-0.519L0.541,-0.519L0.541,0L0.413,0Z" style="fill:rgb(69,90,100);fill-rule:nonzero;"/>
            </g>
            <g transform="matrix(12,0,0,12,204.739,83.5)">
                <path d="M0.524,-0.365L0.389,-0.341C0.384,-0.368 0.374,-0.388 0.358,-0.402C0.342,-0.416 0.321,-0.422 0.295,-0.422C0.261,-0.422 0.233,-0.411 0.213,-0.387C0.193,-0.363 0.183,-0.324 0.183,-0.269C0.183,-0.207 0.193,-0.164 0.214,-0.138C0.234,-0.113 0.262,-0.1 0.297,-0.1C0.323,-0.1 0.344,-0.108 0.361,-0.122C0.377,-0.137 0.389,-0.163 0.396,-0.199L0.531,-0.176C0.517,-0.114 0.49,-0.067 0.45,-0.036C0.41,-0.004 0.357,0.012 0.291,0.012C0.215,0.012 0.154,-0.012 0.109,-0.06C0.064,-0.108 0.042,-0.174 0.042,-0.259C0.042,-0.344 0.064,-0.411 0.109,-0.459C0.155,-0.506 0.216,-0.53 0.293,-0.53C0.356,-0.53 0.406,-0.517 0.444,-0.49C0.481,-0.462 0.508,-0.421 0.524,-0.365Z" style="fill:rgb(69,90,100);fill-rule:nonzero;"/>
            </g>
            <g transform="matrix(12,0,0,12,211.413,83.5)">
                <path d="M0.31,-0.519L0.31,-0.409L0.216,-0.409L0.216,-0.2C0.216,-0.158 0.217,-0.133 0.219,-0.126C0.22,-0.119 0.224,-0.113 0.231,-0.109C0.237,-0.104 0.245,-0.102 0.254,-0.102C0.267,-0.102 0.285,-0.106 0.309,-0.115L0.321,-0.009C0.289,0.005 0.253,0.012 0.212,0.012C0.188,0.012 0.165,0.008 0.146,-0.001C0.126,-0.009 0.111,-0.02 0.102,-0.033C0.093,-0.046 0.086,-0.064 0.083,-0.086C0.08,-0.102 0.078,-0.135 0.078,-0.183L0.078,-0.409L0.015,-0.409L0.015,-0.519L0.078,-0.519L0.078,-0.622L0.216,-0.702L0.216,-0.519L0.31,-0.519Z" style="fill:rgb(69,90,100);fill-rule:nonzero;"/>
            </g>
            <g transform="matrix(12,0,0,12,215.409,83.5)">
                <path d="M0.023,-0.148L0.161,-0.169C0.167,-0.142 0.179,-0.122 0.197,-0.108C0.215,-0.094 0.24,-0.087 0.272,-0.087C0.307,-0.087 0.334,-0.094 0.352,-0.107C0.364,-0.116 0.37,-0.128 0.37,-0.144C0.37,-0.154 0.367,-0.163 0.36,-0.169C0.354,-0.176 0.338,-0.182 0.314,-0.188C0.204,-0.212 0.134,-0.234 0.104,-0.254C0.063,-0.282 0.042,-0.321 0.042,-0.371C0.042,-0.416 0.06,-0.454 0.096,-0.484C0.131,-0.515 0.186,-0.53 0.261,-0.53C0.332,-0.53 0.384,-0.519 0.419,-0.496C0.453,-0.472 0.477,-0.438 0.49,-0.393L0.361,-0.369C0.355,-0.389 0.345,-0.405 0.329,-0.416C0.314,-0.426 0.292,-0.432 0.263,-0.432C0.227,-0.432 0.201,-0.427 0.186,-0.417C0.175,-0.409 0.17,-0.4 0.17,-0.389C0.17,-0.379 0.174,-0.371 0.184,-0.364C0.196,-0.355 0.239,-0.342 0.312,-0.325C0.385,-0.309 0.436,-0.288 0.465,-0.264C0.493,-0.24 0.508,-0.206 0.508,-0.162C0.508,-0.115 0.488,-0.074 0.448,-0.04C0.409,-0.005 0.35,0.012 0.272,0.012C0.201,0.012 0.145,-0.003 0.104,-0.031C0.063,-0.06 0.036,-0.099 0.023,-0.148Z" style="fill:rgb(69,90,100);fill-rule:nonzero;"/>
            </g>
        </g>
        <g transform="matrix(2.00306,0,0,2.00306,-217.344,-122.097)">
            <g transform="matrix(12,0,0,12,170.075,83.5)">
                <path d="M0.036,-0.233L0.177,-0.247C0.185,-0.199 0.202,-0.165 0.228,-0.143C0.254,-0.12 0.289,-0.109 0.333,-0.109C0.38,-0.109 0.415,-0.119 0.438,-0.139C0.462,-0.159 0.474,-0.182 0.474,-0.208C0.474,-0.225 0.469,-0.239 0.459,-0.251C0.449,-0.263 0.431,-0.273 0.407,-0.282C0.39,-0.288 0.351,-0.299 0.291,-0.313C0.214,-0.333 0.159,-0.356 0.128,-0.384C0.084,-0.424 0.062,-0.472 0.062,-0.528C0.062,-0.565 0.072,-0.599 0.093,-0.631C0.114,-0.662 0.143,-0.687 0.182,-0.703C0.221,-0.72 0.268,-0.728 0.323,-0.728C0.413,-0.728 0.481,-0.708 0.526,-0.669C0.572,-0.63 0.595,-0.577 0.598,-0.511L0.453,-0.505C0.447,-0.542 0.434,-0.568 0.413,-0.584C0.393,-0.6 0.362,-0.608 0.322,-0.608C0.28,-0.608 0.247,-0.6 0.223,-0.583C0.208,-0.571 0.2,-0.557 0.2,-0.538C0.2,-0.521 0.207,-0.507 0.222,-0.495C0.24,-0.479 0.284,-0.463 0.354,-0.447C0.425,-0.43 0.477,-0.413 0.51,-0.395C0.544,-0.378 0.571,-0.353 0.59,-0.323C0.609,-0.292 0.618,-0.254 0.618,-0.208C0.618,-0.167 0.607,-0.129 0.584,-0.093C0.561,-0.057 0.529,-0.031 0.487,-0.013C0.446,0.004 0.394,0.013 0.332,0.013C0.241,0.013 0.172,-0.008 0.123,-0.05C0.075,-0.092 0.046,-0.153 0.036,-0.233Z" style="fill:rgb(69,90,100);fill-rule:nonzero;"/>
            </g>
            <g transform="matrix(12,0,0,12,178.079,83.5)">
                <path d="M0.04,-0.267C0.04,-0.312 0.051,-0.356 0.074,-0.399C0.096,-0.442 0.128,-0.474 0.169,-0.497C0.21,-0.519 0.256,-0.53 0.307,-0.53C0.386,-0.53 0.45,-0.505 0.5,-0.454C0.55,-0.403 0.575,-0.339 0.575,-0.261C0.575,-0.182 0.55,-0.117 0.499,-0.066C0.449,-0.014 0.385,0.012 0.308,0.012C0.261,0.012 0.215,0.001 0.172,-0.021C0.129,-0.042 0.096,-0.073 0.074,-0.115C0.051,-0.156 0.04,-0.207 0.04,-0.267ZM0.181,-0.259C0.181,-0.208 0.193,-0.168 0.217,-0.141C0.242,-0.114 0.272,-0.1 0.308,-0.1C0.343,-0.1 0.373,-0.114 0.398,-0.141C0.422,-0.168 0.434,-0.208 0.434,-0.26C0.434,-0.311 0.422,-0.35 0.398,-0.377C0.373,-0.405 0.343,-0.418 0.308,-0.418C0.272,-0.418 0.242,-0.405 0.217,-0.377C0.193,-0.35 0.181,-0.311 0.181,-0.259Z" style="fill:rgb(69,90,100);fill-rule:nonzero;"/>
            </g>
            <g transform="matrix(12,0,0,12,185.409,83.5)">
                <path d="M0.413,0L0.413,-0.078C0.394,-0.05 0.369,-0.028 0.339,-0.012C0.308,0.004 0.275,0.012 0.241,0.012C0.206,0.012 0.175,0.004 0.147,-0.011C0.12,-0.027 0.1,-0.048 0.087,-0.076C0.075,-0.103 0.069,-0.142 0.069,-0.19L0.069,-0.519L0.206,-0.519L0.206,-0.28C0.206,-0.207 0.209,-0.163 0.214,-0.146C0.219,-0.13 0.228,-0.117 0.241,-0.107C0.255,-0.098 0.271,-0.093 0.292,-0.093C0.315,-0.093 0.336,-0.099 0.355,-0.112C0.374,-0.125 0.386,-0.141 0.393,-0.16C0.4,-0.179 0.403,-0.226 0.403,-0.3L0.403,-0.519L0.541,-0.519L0.541,0L0.413,0Z" style="fill:rgb(69,90,100);fill-rule:nonzero;"/>
            </g>
            <g transform="matrix(12,0,0,12,192.739,83.5)">
                <path d="M0.31,-0.519L0.31,-0.409L0.216,-0.409L0.216,-0.2C0.216,-0.158 0.217,-0.133 0.219,-0.126C0.22,-0.119 0.224,-0.113 0.231,-0.109C0.237,-0.104 0.245,-0.102 0.254,-0.102C0.267,-0.102 0.285,-0.106 0.309,-0.115L0.321,-0.009C0.289,0.005 0.253,0.012 0.212,0.012C0.188,0.012 0.165,0.008 0.146,-0.001C0.126,-0.009 0.111,-0.02 0.102,-0.033C0.093,-0.046 0.086,-0.064 0.083,-0.086C0.08,-0.102 0.078,-0.135 0.078,-0.183L0.078,-0.409L0.015,-0.409L0.015,-0.519L0.078,-0.519L0.078,-0.622L0.216,-0.702L0.216,-0.519L0.31,-0.519Z" style="fill:rgb(69,90,100);fill-rule:nonzero;"/>
            </g>
            <g transform="matrix(12,0,0,12,196.735,83.5)">
                <path d="M0.208,-0.716L0.208,-0.453C0.253,-0.504 0.306,-0.53 0.367,-0.53C0.399,-0.53 0.427,-0.524 0.453,-0.513C0.478,-0.501 0.497,-0.486 0.51,-0.468C0.523,-0.45 0.532,-0.429 0.536,-0.407C0.541,-0.385 0.543,-0.351 0.543,-0.304L0.543,0L0.406,0L0.406,-0.274C0.406,-0.328 0.404,-0.363 0.398,-0.377C0.393,-0.392 0.384,-0.404 0.371,-0.412C0.358,-0.421 0.341,-0.425 0.321,-0.425C0.299,-0.425 0.278,-0.42 0.26,-0.409C0.242,-0.398 0.229,-0.381 0.221,-0.359C0.213,-0.336 0.208,-0.303 0.208,-0.26L0.208,0L0.071,0L0.071,-0.716L0.208,-0.716Z" style="fill:rgb(69,90,100);fill-rule:nonzero;"/>
            </g>
            <g transform="matrix(12,0,0,12,204.065,83.5)">
                <path d="M0.174,0L0.003,-0.716L0.151,-0.716L0.259,-0.224L0.39,-0.716L0.562,-0.716L0.688,-0.216L0.797,-0.716L0.943,-0.716L0.769,0L0.616,0L0.473,-0.535L0.331,0L0.174,0Z" style="fill:rgb(69,90,100);fill-rule:nonzero;"/>
            </g>
            <g transform="matrix(12,0,0,12,215.175,83.5)">
                <path d="M0.372,-0.165L0.509,-0.142C0.491,-0.092 0.463,-0.054 0.426,-0.028C0.388,-0.001 0.34,0.012 0.283,0.012C0.193,0.012 0.126,-0.018 0.083,-0.077C0.049,-0.124 0.032,-0.183 0.032,-0.255C0.032,-0.341 0.054,-0.409 0.099,-0.457C0.144,-0.506 0.201,-0.53 0.27,-0.53C0.347,-0.53 0.408,-0.505 0.452,-0.454C0.497,-0.403 0.518,-0.325 0.516,-0.22L0.172,-0.22C0.173,-0.179 0.184,-0.147 0.206,-0.125C0.227,-0.102 0.253,-0.091 0.285,-0.091C0.306,-0.091 0.324,-0.097 0.339,-0.108C0.354,-0.12 0.365,-0.139 0.372,-0.165ZM0.38,-0.304C0.379,-0.343 0.369,-0.374 0.349,-0.394C0.33,-0.415 0.306,-0.425 0.278,-0.425C0.248,-0.425 0.223,-0.414 0.204,-0.393C0.184,-0.371 0.174,-0.341 0.175,-0.304L0.38,-0.304Z" style="fill:rgb(69,90,100);fill-rule:nonzero;"/>
            </g>
            <g transform="matrix(12,0,0,12,221.848,83.5)">
                <path d="M0.023,-0.148L0.161,-0.169C0.167,-0.142 0.179,-0.122 0.197,-0.108C0.215,-0.094 0.24,-0.087 0.272,-0.087C0.307,-0.087 0.334,-0.094 0.352,-0.107C0.364,-0.116 0.37,-0.128 0.37,-0.144C0.37,-0.154 0.367,-0.163 0.36,-0.169C0.354,-0.176 0.338,-0.182 0.314,-0.188C0.204,-0.212 0.134,-0.234 0.104,-0.254C0.063,-0.282 0.042,-0.321 0.042,-0.371C0.042,-0.416 0.06,-0.454 0.096,-0.484C0.131,-0.515 0.186,-0.53 0.261,-0.53C0.332,-0.53 0.384,-0.519 0.419,-0.496C0.453,-0.472 0.477,-0.438 0.49,-0.393L0.361,-0.369C0.355,-0.389 0.345,-0.405 0.329,-0.416C0.314,-0.426 0.292,-0.432 0.263,-0.432C0.227,-0.432 0.201,-0.427 0.186,-0.417C0.175,-0.409 0.17,-0.4 0.17,-0.389C0.17,-0.379 0.174,-0.371 0.184,-0.364C0.196,-0.355 0.239,-0.342 0.312,-0.325C0.385,-0.309 0.436,-0.288 0.465,-0.264C0.493,-0.24 0.508,-0.206 0.508,-0.162C0.508,-0.115 0.488,-0.074 0.448,-0.04C0.409,-0.005 0.35,0.012 0.272,0.012C0.201,0.012 0.145,-0.003 0.104,-0.031C0.063,-0.06 0.036,-0.099 0.023,-0.148Z" style="fill:rgb(69,90,100);fill-rule:nonzero;"/>
            </g>
            <g transform="matrix(12,0,0,12,228.522,83.5)">
                <path d="M0.31,-0.519L0.31,-0.409L0.216,-0.409L0.216,-0.2C0.216,-0.158 0.217,-0.133 0.219,-0.126C0.22,-0.119 0.224,-0.113 0.231,-0.109C0.237,-0.104 0.245,-0.102 0.254,-0.102C0.267,-0.102 0.285,-0.106 0.309,-0.115L0.321,-0.009C0.289,0.005 0.253,0.012 0.212,0.012C0.188,0.012 0.165,0.008 0.146,-0.001C0.126,-0.009 0.111,-0.02 0.102,-0.033C0.093,-0.046 0.086,-0.064 0.083,-0.086C0.08,-0.102 0.078,-0.135 0.078,-0.183L0.078,-0.409L0.015,-0.409L0.015,-0.519L0.078,-0.519L0.078,-0.622L0.216,-0.702L0.216,-0.519L0.31,-0.519Z" style="fill:rgb(69,90,100);fill-rule:nonzero;"/>
            </g>
        </g>
        <g id="supermarket" transform="matrix(0.233707,0,0,0.233707,57.775,57.7)">
            <g transform="matrix(1,0,0,1,-245.337,-245.337)">
                <clipPath id="_clip1">
                    <rect x="0" y="0" width="490.674" height="490.674"/>
                </clipPath>
                <g clip-path="url(#_clip1)">
                    <g>
                        <circle cx="394.667" cy="426.671" r="53.333" style="fill:rgb(69,90,100);"/>
                        <circle cx="181.333" cy="426.671" r="53.333" style="fill:rgb(69,90,100);"/>
                    </g>
                    <path d="M488,78.276C485.974,75.982 483.06,74.669 480,74.671L96,74.671C90.109,74.67 85.332,79.444 85.331,85.335C85.331,86.052 85.403,86.768 85.547,87.471L128.214,300.804C129.228,305.771 133.598,309.338 138.667,309.337C139.136,309.368 139.606,309.368 140.075,309.337L460.075,266.67C464.882,266.028 468.651,262.224 469.248,257.411L490.581,86.744C490.989,83.681 490.047,80.592 488,78.276Z" style="fill:rgb(255,193,7);fill-rule:nonzero;"/>
                    <g>
                        <path d="M181.333,266.671C176.119,266.669 171.671,262.897 170.816,257.754L149.483,129.754C148.692,123.916 152.783,118.543 158.621,117.752C164.211,116.994 169.425,120.721 170.518,126.256L191.851,254.256C192.814,260.064 188.89,265.554 183.083,266.523C182.505,266.622 181.92,266.672 181.333,266.671Z" style="fill:rgb(250,250,250);fill-rule:nonzero;"/>
                        <path d="M234.667,256.004C229.131,256.026 224.498,251.811 224,246.297L213.333,128.964C212.781,123.099 217.088,117.897 222.954,117.345C222.983,117.342 223.011,117.34 223.04,117.337C228.907,116.806 234.093,121.133 234.624,127L234.624,127.001L245.291,244.334C245.821,250.201 241.495,255.387 235.628,255.918L235.627,255.918L234.667,256.004Z" style="fill:rgb(250,250,250);fill-rule:nonzero;"/>
                        <path d="M288,245.337C282.109,245.337 277.333,240.561 277.333,234.67L277.333,128.004C277.333,122.113 282.109,117.337 288,117.337C293.891,117.337 298.667,122.113 298.667,128.004L298.667,234.671C298.667,240.562 293.891,245.337 288,245.337Z" style="fill:rgb(250,250,250);fill-rule:nonzero;"/>
                        <path d="M341.333,234.671L340.138,234.671C334.28,234.051 330.034,228.799 330.654,222.94C330.658,222.904 330.662,222.867 330.666,222.831L341.333,126.831C342.025,120.964 347.296,116.738 353.173,117.338C359.028,117.986 363.25,123.257 362.603,129.113L362.603,129.114L351.936,225.114C351.368,230.543 346.793,234.667 341.333,234.671Z" style="fill:rgb(250,250,250);fill-rule:nonzero;"/>
                        <path d="M394.667,224.004C388.776,224.002 384.002,219.225 384.003,213.334C384.003,212.465 384.11,211.599 384.32,210.756L405.653,125.423C406.946,119.676 412.654,116.065 418.401,117.358C424.148,118.651 427.759,124.359 426.466,130.106C426.43,130.267 426.39,130.427 426.346,130.586L405.013,215.919C403.829,220.669 399.562,224.003 394.667,224.004Z" style="fill:rgb(250,250,250);fill-rule:nonzero;"/>
                    </g>
                    <path d="M437.333,352.004L191.125,352.004C155.567,351.922 124.97,326.844 117.909,291.993L65.92,32.004L10.667,32.004C4.776,32.004 0,27.228 0,21.337C0,15.446 4.776,10.67 10.667,10.67L74.667,10.67C79.737,10.669 84.106,14.236 85.12,19.203L138.837,287.79C143.872,312.686 165.725,330.607 191.125,330.67L437.333,330.67C443.224,330.67 448,335.446 448,341.337C448,347.228 443.224,352.004 437.333,352.004Z" style="fill:rgb(69,90,100);fill-rule:nonzero;"/>
                </g>
            </g>
        </g>
    </g>
</svg>
