<svg width="476.3650390625px" height="122.021240234375px" xmlns="http://www.w3.org/2000/svg" viewBox="11.817480468750006 13.9893798828125 476.3650390625 122.021240234375" style="background:#596886" preserveAspectRatio="xMidYMid"><defs><filter id="editing-hover" x="-100%" y="-100%" width="300%" height="300%"><feFlood flood-color="#052b4a" result="flood"></feFlood><feComposite operator="in" in2="SourceAlpha" in="flood" result="shadow"></feComposite><feOffset dx="-4" dy="-4" in="SourceGraphic" result="offset-1"></feOffset><feOffset dx="4" dy="4" in="shadow" result="offset-2"></feOffset><feMerge><feMergeNode in="offset-2"></feMergeNode><feMergeNode in="offset-1"></feMergeNode></feMerge></filter></defs><g filter="url(#editing-hover)"><g transform="translate(83.34501340985298, 98.67218780517578)"><path d="M0.45-0.32L0.45-0.32L8.51-42.24L8.51-42.24Q16.06-42.88 20.93-42.88L20.93-42.88L20.93-42.88Q25.79-42.88 28.93-42.46L28.93-42.46L28.93-42.46Q32.06-42.05 34.18-40.96L34.18-40.96L34.18-40.96Q38.40-38.91 38.40-33.28L38.40-33.28L38.40-33.28Q38.40-30.02 35.58-27.26L35.58-27.26L35.58-27.26Q32.96-24.77 30.08-24.19L30.08-24.19L30.08-24.19Q33.15-23.68 35.33-21.38L35.33-21.38L35.33-21.38Q37.63-18.94 37.63-15.17L37.63-15.17L37.63-15.17Q37.63-7.87 32.19-3.62L32.19-3.62L32.19-3.62Q26.75 0.64 16.06 0.64L16.06 0.64L16.06 0.64Q8.70 0.64 0.45-0.32ZM17.86-20.61L14.66-4.03L14.66-4.03Q15.23-3.97 15.36-3.97L15.36-3.97L15.94-3.97L15.94-3.97Q21.18-3.97 23.42-7.42L23.42-7.42L23.42-7.42Q25.09-10.11 25.09-15.04L25.09-15.04L25.09-15.04Q25.09-17.66 23.39-19.07L23.39-19.07L23.39-19.07Q21.70-20.48 17.86-20.61L17.86-20.61ZM27.58-33.22L27.58-33.22L27.58-33.22Q27.58-38.53 22.46-38.53L22.46-38.53L21.89-38.53L21.89-38.53Q21.63-38.53 21.25-38.46L21.25-38.46L18.69-24.96L19.33-24.96L19.33-24.96Q27.58-25.15 27.58-33.22ZM61.89-17.98L61.89-17.98L61.89-17.98Q64.19-22.08 64.19-26.24L64.19-26.24L64.19-26.24Q64.19-28.99 62.21-28.99L62.21-28.99L62.21-28.99Q60.67-28.99 59.07-26.37L59.07-26.37L59.07-26.37Q57.41-23.74 56.90-20.35L56.90-20.35L53.57 0L40.32 1.28L46.85-32.64L57.41-33.92L56.26-27.46L56.26-27.46Q59.39-33.92 66.43-33.92L66.43-33.92L66.43-33.92Q70.14-33.92 72.16-32L72.16-32L72.16-32Q74.18-30.08 74.18-26.14L74.18-26.14L74.18-26.14Q74.18-22.21 71.58-19.71L71.58-19.71L71.58-19.71Q68.99-17.22 64.58-17.22L64.58-17.22L64.58-17.22Q62.66-17.22 61.89-17.98ZM77.98-1.92L77.98-1.92L77.98-1.92Q76.48-3.58 75.81-6.21L75.81-6.21L75.81-6.21Q75.14-8.83 75.14-13.12L75.14-13.12L75.14-13.12Q75.14-17.41 76.61-21.31L76.61-21.31L76.61-21.31Q78.08-25.22 80.77-28.03L80.77-28.03L80.77-28.03Q86.27-33.92 95.36-33.92L95.36-33.92L95.36-33.92Q98.62-33.92 100.99-32.83L100.99-32.83L111.94-33.92L107.20-8.96L107.20-8.96Q107.01-8.19 107.01-6.78L107.01-6.78L107.01-6.78Q107.01-5.38 107.87-4.48L107.87-4.48L107.87-4.48Q108.74-3.58 110.02-3.46L110.02-3.46L110.02-3.46Q109.38-1.28 107.04 0L107.04 0L107.04 0Q104.70 1.28 102.08 1.28L102.08 1.28L102.08 1.28Q99.46 1.28 97.70 0.29L97.70 0.29L97.70 0.29Q95.94-0.70 95.42-2.37L95.42-2.37L95.42-2.37Q94.40-0.77 92.22 0.26L92.22 0.26L92.22 0.26Q90.05 1.28 87.14 1.28L87.14 1.28L87.14 1.28Q84.22 1.28 81.86 0.51L81.86 0.51L81.86 0.51Q79.49-0.26 77.98-1.92ZM91.49-27.90L91.49-27.90L91.49-27.90Q90.75-26.75 90.11-24.80L90.11-24.80L90.11-24.80Q89.47-22.85 88.42-17.63L88.42-17.63L88.42-17.63Q87.36-12.42 87.36-8.70L87.36-8.70L87.36-8.70Q87.36-4.99 87.94-3.90L87.94-3.90L87.94-3.90Q88.51-2.82 89.54-2.82L89.54-2.82L89.54-2.82Q91.58-2.82 93.09-4.77L93.09-4.77L93.09-4.77Q94.59-6.72 95.17-10.18L95.17-10.18L98.56-28.93L98.56-28.93Q97.22-30.08 95.65-30.08L95.65-30.08L95.65-30.08Q94.08-30.08 93.15-29.57L93.15-29.57L93.15-29.57Q92.22-29.06 91.49-27.90ZM142.46 1.28L142.46 1.28L142.46 1.28Q134.72 1.28 134.72-4.74L134.72-4.74L134.72-4.74Q134.78-6.40 135.30-9.22L135.30-9.22L136.45-15.10L136.45-15.10Q138.18-23.42 138.18-25.28L138.18-25.28L138.18-25.28Q138.18-28.99 136-28.99L136-28.99L136-28.99Q132.35-28.99 130.43-19.46L130.43-19.46L126.66 0L113.79 1.28L120.45-32.70L130.94-33.92L129.92-27.65L129.92-27.65Q132.93-33.92 142.14-33.92L142.14-33.92L142.14-33.92Q146.62-33.92 148.51-32.03L148.51-32.03L148.51-32.03Q150.40-30.14 150.40-25.92L150.40-25.92L150.40-25.92Q150.40-21.95 148.35-12.67L148.35-12.67L148.35-12.67Q147.39-8.51 147.39-6.94L147.39-6.94L147.39-6.94Q147.39-5.38 148.26-4.48L148.26-4.48L148.26-4.48Q149.12-3.58 150.40-3.46L150.40-3.46L150.40-3.46Q149.76-1.28 147.55 0L147.55 0L147.55 0Q145.34 1.28 142.46 1.28ZM175.68-33.92L175.68-33.92L175.68-33.92Q177.98-33.92 179.78-33.41L179.78-33.41L179.78-33.41Q179.84-33.66 179.97-34.37L179.97-34.37L180.29-36.35L180.29-36.35Q180.54-37.63 180.93-39.74L180.93-39.74L181.95-44.80L194.69-46.08L187.58-8.96L187.58-8.96Q187.52-8.58 187.52-7.94L187.52-7.94L187.52-6.91L187.52-6.91Q187.52-5.50 188.22-4.45L188.22-4.45L188.22-4.45Q188.93-3.39 190.08-3.39L190.08-3.39L190.08-3.39Q188.80-0.38 184.90 0.90L184.90 0.90L184.90 0.90Q183.55 1.28 181.66 1.28L181.66 1.28L181.66 1.28Q179.78 1.28 178.05 0.29L178.05 0.29L178.05 0.29Q176.32-0.70 175.81-2.37L175.81-2.37L175.81-2.37Q174.78-0.70 172.74 0.29L172.74 0.29L172.74 0.29Q170.69 1.28 167.71 1.28L167.71 1.28L167.71 1.28Q164.74 1.28 162.27 0.51L162.27 0.51L162.27 0.51Q159.81-0.26 158.27-1.92L158.27-1.92L158.27-1.92Q155.46-5.18 155.46-12.61L155.46-12.61L155.46-12.61Q155.46-22.21 161.09-28.03L161.09-28.03L161.09-28.03Q166.72-33.92 175.68-33.92ZM175.23-30.08L175.23-30.08L175.23-30.08Q172.86-30.08 171.58-27.52L171.58-27.52L171.58-27.52Q170.30-24.96 168.99-18.62L168.99-18.62L168.99-18.62Q167.68-12.29 167.68-6.59L167.68-6.59L167.68-6.59Q167.68-2.69 169.98-2.69L169.98-2.69L169.98-2.69Q172.03-2.69 173.47-4.74L173.47-4.74L173.47-4.74Q174.91-6.78 175.49-10.18L175.49-10.18L178.94-28.93L178.94-28.93Q177.60-30.08 175.23-30.08ZM213.82-31.17L213.82-31.17L213.82-31.17Q211.65-32.83 211.65-36.38L211.65-36.38L211.65-36.38Q211.65-39.94 213.98-41.79L213.98-41.79L213.98-41.79Q216.32-43.65 220.35-43.65L220.35-43.65L220.35-43.65Q222.91-43.65 228.99-42.75L228.99-42.75L233.34-42.11L233.34-42.11Q235.52-41.86 237.79-41.86L237.79-41.86L237.79-41.86Q240.06-41.86 241.60-42.82L241.60-42.82L241.60-42.82Q243.90-40.77 243.90-37.82L243.90-37.82L243.90-37.82Q243.90-34.88 241.28-32.77L241.28-32.77L241.28-32.77Q238.59-30.53 235.14-30.53L235.14-30.53L235.14-30.53Q233.47-30.53 230.78-30.98L230.78-30.98L230.78-30.98Q227.65-21.12 227.65-14.27L227.65-14.27L227.65-14.27Q227.65-7.42 231.10-3.84L231.10-3.84L231.10-3.84Q229.50-0.96 227.14 0.16L227.14 0.16L227.14 0.16Q224.77 1.28 221.22 1.28L221.22 1.28L221.22 1.28Q217.66 1.28 215.46-0.67L215.46-0.67L215.46-0.67Q213.25-2.62 213.25-6.66L213.25-6.66L213.25-6.66Q213.25-11.33 215.81-19.01L215.81-19.01L215.81-19.01Q218.37-26.62 222.21-32.45L222.21-32.45L222.21-32.45Q220.35-32.64 218.43-32.64L218.43-32.64L218.43-32.64Q214.46-32.64 213.82-31.17ZM289.60-10.69L289.60-10.69Q285.38-4.86 281.31-1.79L281.31-1.79L281.31-1.79Q277.25 1.28 273.06 1.28L273.06 1.28L273.06 1.28Q268.86 1.28 267.39 0.45L267.39 0.45L267.39-13.63L267.39-13.63Q263.74-3.90 257.22-0.13L257.22-0.13L257.22-0.13Q254.85 1.28 252.61 1.28L252.61 1.28L252.61 1.28Q248.32 1.28 246.46 0.45L246.46 0.45L246.46 0.45Q246.02-14.21 245.63-18.27L245.63-18.27L245.63-18.27Q245.25-22.34 244.93-24.83L244.93-24.83L244.93-24.83Q244.29-29.82 242.11-31.87L242.11-31.87L242.11-31.87Q244.86-33.92 248.70-33.92L248.70-33.92L248.70-33.92Q256.13-33.92 257.15-24.70L257.15-24.70L257.15-24.70Q257.41-22.53 257.41-20.22L257.41-20.22L257.41-20.22Q257.41-16.77 256.64-4.74L256.64-4.74L256.64-4.74Q258.18-5.44 259.81-7.97L259.81-7.97L259.81-7.97Q261.44-10.50 262.78-13.95L262.78-13.95L262.78-13.95Q265.79-21.95 265.79-28.86L265.79-28.86L265.79-28.86Q265.79-29.95 265.50-31.10L265.50-31.10L265.50-31.10Q265.22-32.26 264.90-32.58L264.90-32.58L264.90-32.58Q267.14-33.92 270.56-33.92L270.56-33.92L270.56-33.92Q273.98-33.92 275.62-31.58L275.62-31.58L275.62-31.58Q277.25-29.25 277.70-24.96L277.70-24.96L277.70-24.96Q278.21-19.52 278.21-16.26L278.21-16.26L278.21-16.26Q278.21-11.71 277.76-4.99L277.76-4.99L277.76-4.99Q280.96-7.30 283.58-14.85L283.58-14.85L283.58-14.85Q286.21-22.40 286.21-27.78L286.21-27.78L286.21-27.78Q286.21-30.14 285.82-31.55L285.82-31.55L285.82-31.55Q287.94-33.92 291.58-33.92L291.58-33.92L291.58-33.92Q293.82-33.92 295.46-32.70L295.46-32.70L295.46-32.70Q297.09-31.49 297.09-29.22L297.09-29.22L297.09-29.22Q297.09-26.94 296.42-24.51L296.42-24.51L296.42-24.51Q295.74-22.08 294.66-19.58L294.66-19.58L294.66-19.58Q292.54-14.59 289.60-10.69L289.60-10.69ZM312.77 1.28L312.77 1.28L312.77 1.28Q298.69 1.28 298.69-11.97L298.69-11.97L298.69-11.97Q298.69-21.38 303.87-27.46L303.87-27.46L303.87-27.46Q309.38-33.92 318.91-33.92L318.91-33.92L318.91-33.92Q325.82-33.92 329.34-30.72L329.34-30.72L329.34-30.72Q332.86-27.52 332.86-20.80L332.86-20.80L332.86-20.80Q332.86-10.56 327.36-4.61L327.36-4.61L327.36-4.61Q321.98 1.28 312.77 1.28ZM314.43-26.56L314.43-26.56L314.43-26.56Q313.66-24.83 313.06-22.24L313.06-22.24L313.06-22.24Q312.45-19.65 311.68-15.55L311.68-15.55L311.68-15.55Q310.91-11.46 310.91-6.40L310.91-6.40L310.91-6.40Q310.91-4.74 311.46-3.65L311.46-3.65L311.46-3.65Q312-2.56 313.47-2.56L313.47-2.56L313.47-2.56Q314.94-2.56 315.87-3.26L315.87-3.26L315.87-3.26Q316.80-3.97 317.50-5.63L317.50-5.63L317.50-5.63Q318.78-8.58 319.81-14.05L319.81-14.05L319.81-14.05Q320.83-19.52 320.93-21.89L320.93-21.89L320.93-21.89Q321.02-24.26 321.02-26.02L321.02-26.02L321.02-26.02Q321.02-27.78 320.51-28.93L320.51-28.93L320.51-28.93Q320-30.08 318.56-30.08L318.56-30.08L318.56-30.08Q317.12-30.08 316.16-29.18L316.16-29.18L316.16-29.18Q315.20-28.29 314.43-26.56Z" fill="#ffd5af"></path></g></g><style>text {
  font-size: 64px;
  font-family: Arial Black;
  dominant-baseline: central;
  text-anchor: middle;
}</style></svg>