<?xml version="1.0" encoding="utf-8"?>
<!-- Generator: Adobe Illustrator 24.0.0, SVG Export Plug-In . SVG Version: 6.00 Build 0)  -->
<svg version="1.1" id="Layer_1" xmlns:serif="http://www.serif.com/"
	 xmlns="http://www.w3.org/2000/svg" xmlns:xlink="http://www.w3.org/1999/xlink" x="0px" y="0px" viewBox="0 0 15 15"
	 style="enable-background:new 0 0 15 15;" xml:space="preserve">
<style type="text/css">
	.st0{fill:#162948;}
</style>
<g transform="matrix(0.0730326,0,0,0.0730326,-0.0511228,4.43678)">
	<path class="st0" d="M101.2,16.2c-8.6,2.2-14.4,3.8-22.9,6c-2,0.5-2.2,0.7-3.9-1.4c-2-2.3-3.5-3.8-6.4-5.2c-8.6-4.2-16.9-3-24.6,2
		c-9.3,6-14,14.8-13.9,25.9c0.1,10.9,7.6,19.9,18.4,21.4c9.3,1.2,17-2,23.1-9c1.2-1.5,2.3-3.1,3.7-5H48.3c-2.9,0-3.5-1.8-2.6-4.1
		c1.8-4.2,5-11.3,6.9-14.8c0.4-0.8,1.4-2.2,3.4-2.2h49.6c-0.3,3.7-0.3,7.4-0.8,11c-1.5,9.8-5.2,18.8-11.2,26.7
		c-9.8,12.9-22.6,21-38.8,23.1c-13.3,1.8-25.7-0.8-36.6-9C8.2,74,2.5,64,1,51.4c-1.8-14.8,2.6-28.2,11.6-39.9
		C22.2-1.1,35-9.1,50.6-12c12.8-2.3,25-0.8,36.1,6.7C93.9-0.6,99.1,6,102.5,13.9C103.3,15.1,102.8,15.8,101.2,16.2z"/>
	<path class="st0" d="M146.2,91.5c-12.4-0.3-23.7-3.8-33.2-12c-8-6.9-13.1-15.8-14.7-26.3c-2.5-15.4,1.8-29,11-41.1
		c9.9-13.1,21.9-19.9,38.1-22.7c13.9-2.5,27-1.1,38.8,6.9c10.8,7.4,17.4,17.3,19.2,30.4c2.3,18.4-3,33.4-15.7,46.1
		c-9,9.1-20,14.8-32.7,17.4C153.4,90.9,149.8,91.1,146.2,91.5z M178.6,36.5c-0.1-1.8-0.1-3.1-0.4-4.5c-2.5-13.5-14.8-21.1-27.8-18.1
		c-12.7,2.9-20.8,10.9-23.8,23.7c-2.5,10.6,2.7,21.4,12.5,25.7c7.5,3.3,15,2.9,22.2-0.8C172.1,56.9,177.9,48.2,178.6,36.5z"/>
</g>
</svg>
