<?xml version="1.0" encoding="UTF-8" standalone="no"?>
<!DOCTYPE svg PUBLIC "-//W3C//DTD SVG 1.1//EN" "http://www.w3.org/Graphics/SVG/1.1/DTD/svg11.dtd">
<svg width="15px" height="15px" version="1.1" xmlns="http://www.w3.org/2000/svg" xmlns:xlink="http://www.w3.org/1999/xlink" xml:space="preserve" xmlns:serif="http://www.serif.com/" style="fill-rule:evenodd;clip-rule:evenodd;stroke-linejoin:round;stroke-miterlimit:2;">
    <g transform="matrix(0.759109,0,0,0.759109,-1.70885,-1.41194)">
        <path d="M9.249,17.567C9.249,17.567 8.41,18.055 9.846,18.22C11.586,18.418 12.476,18.39 14.394,18.027C14.394,18.027 14.898,18.343 15.602,18.617C11.303,20.459 5.872,18.51 9.249,17.567ZM8.724,15.602C8.724,15.602 7.782,16.299 9.22,16.448C11.079,16.64 12.547,16.655 15.087,16.166C15.087,16.166 15.439,16.522 15.991,16.717C10.793,18.237 5.004,16.837 8.724,15.602Z" style="fill:rgb(22,41,72);fill-rule:nonzero;"/>
    </g>
    <g transform="matrix(0.759109,0,0,0.759109,-1.70885,-1.14474)">
        <path d="M13.152,11.524C14.212,12.744 12.874,13.841 12.874,13.841C12.874,13.841 15.564,12.453 14.328,10.714C13.175,9.092 12.29,8.287 17.08,5.509C17.08,5.509 9.561,7.387 13.152,11.524" style="fill:rgb(22,41,72);fill-rule:nonzero;"/>
    </g>
    <g transform="matrix(0.759109,0,0,0.759109,-1.70885,-1.74595)">
        <path d="M18.838,18.905C18.838,18.905 19.459,19.417 18.154,19.813C15.673,20.565 7.826,20.704 5.646,19.755C4.863,19.414 6.332,18.941 6.795,18.842C7.277,18.737 7.552,18.757 7.552,18.757C6.681,18.143 1.92,19.962 5.134,20.483C13.899,21.905 21.112,19.931 18.838,18.905ZM9.653,13.992C9.653,13.992 5.661,14.94 8.239,15.284C9.328,15.429 11.498,15.397 13.519,15.227C15.171,15.088 16.829,14.792 16.829,14.792C16.829,14.792 16.247,15.041 15.825,15.329C11.772,16.395 3.942,15.899 6.196,14.808C8.103,13.887 9.653,13.992 9.653,13.992ZM16.813,17.994C20.933,15.853 19.028,13.795 17.698,14.072C17.372,14.14 17.227,14.199 17.227,14.199C17.227,14.199 17.348,14.009 17.579,13.927C20.209,13.003 22.232,16.655 16.73,18.102C16.73,18.102 16.794,18.045 16.813,17.994Z" style="fill:rgb(22,41,72);fill-rule:nonzero;"/>
    </g>
    <g transform="matrix(0.759109,0,0,0.759109,-1.70885,-0.777328)">
        <path d="M14.329,1.024C14.329,1.024 16.61,3.306 12.164,6.816C8.599,9.632 11.351,11.237 12.163,13.071C10.082,11.194 8.555,9.541 9.579,8.002C11.083,5.744 15.249,4.649 14.329,1.024" style="fill:rgb(22,41,72);fill-rule:nonzero;"/>
    </g>
    <g transform="matrix(0.759109,0,0,0.759109,-1.70885,-2.44737)">
        <path d="M10.058,22.915C14.012,23.168 20.086,22.775 20.229,20.903C20.229,20.903 19.953,21.613 16.961,22.176C13.585,22.811 9.422,22.737 6.953,22.33C6.953,22.33 7.458,22.748 10.058,22.915" style="fill:rgb(22,41,72);fill-rule:nonzero;"/>
    </g>
</svg>
