<?xml version="1.0" encoding="UTF-8" standalone="no"?>
<!DOCTYPE svg PUBLIC "-//W3C//DTD SVG 1.1//EN" "http://www.w3.org/Graphics/SVG/1.1/DTD/svg11.dtd">
<svg width="15px" height="15px" version="1.1" xmlns="http://www.w3.org/2000/svg" xmlns:xlink="http://www.w3.org/1999/xlink" xml:space="preserve" xmlns:serif="http://www.serif.com/" style="fill-rule:evenodd;clip-rule:evenodd;stroke-linejoin:round;stroke-miterlimit:2;">
    <g transform="matrix(0.75,0,0,0.75,-2.25,-2.25)">
        <path d="M12.858,22.963C12.583,22.963 12.326,22.89 12.088,22.761L9.649,21.312C9.282,21.111 9.465,21.037 9.575,21.001C10.07,20.836 10.162,20.799 10.676,20.505C10.731,20.469 10.804,20.487 10.859,20.524L12.73,21.642C12.803,21.679 12.895,21.679 12.95,21.642L20.267,17.406C20.341,17.369 20.378,17.296 20.378,17.204L20.378,8.75C20.378,8.658 20.341,8.584 20.267,8.548L12.95,4.33C12.877,4.293 12.785,4.293 12.73,4.33L5.412,8.548C5.339,8.584 5.302,8.676 5.302,8.75L5.302,17.204C5.302,17.278 5.339,17.369 5.412,17.406L7.411,18.561C8.493,19.112 9.172,18.47 9.172,17.828L9.172,9.483C9.172,9.373 9.264,9.263 9.392,9.263L10.327,9.263C10.437,9.263 10.547,9.355 10.547,9.483L10.547,17.828C10.547,19.277 9.759,20.12 8.383,20.12C7.961,20.12 7.631,20.12 6.696,19.662L4.77,18.561C4.293,18.286 4,17.773 4,17.223L4,8.768C4,8.218 4.293,7.704 4.77,7.429L12.088,3.193C12.546,2.936 13.17,2.936 13.628,3.193L20.946,7.429C21.423,7.704 21.716,8.218 21.716,8.768L21.716,17.223C21.716,17.773 21.423,18.286 20.946,18.561L13.628,22.798C13.39,22.908 13.115,22.963 12.858,22.963ZM15.114,17.149C11.905,17.149 11.244,15.682 11.244,14.435C11.244,14.325 11.336,14.215 11.464,14.215L12.418,14.215C12.528,14.215 12.62,14.288 12.62,14.398C12.766,15.37 13.188,15.847 15.132,15.847C16.673,15.847 17.333,15.499 17.333,14.673C17.333,14.197 17.15,13.848 14.747,13.61C12.748,13.408 11.501,12.968 11.501,11.372C11.501,9.887 12.748,9.006 14.839,9.006C17.186,9.006 18.342,9.813 18.488,11.574C18.488,11.629 18.47,11.684 18.433,11.739C18.397,11.776 18.342,11.812 18.287,11.812L17.333,11.812C17.241,11.812 17.15,11.739 17.131,11.647C16.911,10.639 16.343,10.308 14.839,10.308C13.152,10.308 12.95,10.895 12.95,11.335C12.95,11.867 13.188,12.032 15.462,12.326C17.718,12.619 18.782,13.041 18.782,14.618C18.764,16.232 17.443,17.149 15.114,17.149Z" style="fill:rgb(22,41,72);fill-rule:nonzero;"/>
    </g>
</svg>
