<?xml version="1.0" encoding="UTF-8" standalone="no"?>
<!DOCTYPE svg PUBLIC "-//W3C//DTD SVG 1.1//EN" "http://www.w3.org/Graphics/SVG/1.1/DTD/svg11.dtd">
<svg width="100%" height="100%" viewBox="0 0 13 15" version="1.1" xmlns="http://www.w3.org/2000/svg" xmlns:xlink="http://www.w3.org/1999/xlink" xml:space="preserve" xmlns:serif="http://www.serif.com/" style="fill-rule:evenodd;clip-rule:evenodd;stroke-linejoin:round;stroke-miterlimit:2;">
    <g id="path4" transform="matrix(0.0126348,0,0,0.0126348,0,0)">
        <path d="M979,925.2C961,966.7 939.8,1004.9 915.2,1040C881.6,1087.9 854.2,1121 833,1139.4C800.2,1169.6 765,1185.1 727.3,1185.9C700.3,1185.9 667.6,1178.2 629.7,1162.6C591.6,1147.1 556.6,1139.4 524.6,1139.4C491,1139.4 455,1147.1 416.5,1162.6C377.9,1178.2 346.9,1186.3 323.1,1187.1C287,1188.6 251,1172.7 215,1139.3C192.1,1119.3 163.4,1085 129,1036.4C92.1,984.5 61.8,924.4 38.1,855.8C12.8,781.7 0,710 0,640.5C0,560.9 17.2,492.3 51.6,434.8C78.7,388.6 114.7,352.2 159.7,325.4C204.8,298.7 253.4,285 305.9,284.1C334.6,284.1 372.2,293 419,310.4C465.6,327.9 495.6,336.8 508.7,336.8C518.5,336.8 551.8,326.4 608.1,305.7C661.4,286.5 706.4,278.6 743.3,281.7C843.2,289.8 918.2,329.1 968.1,400.1C878.8,454.2 834.6,530 835.5,627.3C836.3,703.1 863.8,766.1 917.8,816.1C942.3,839.3 969.6,857.3 1000,870C993.4,889.3 986.4,907.6 979,925.2ZM750,23.8C750,83.2 728.3,138.6 685.1,189.9C632.9,250.9 569.8,286.1 501.4,280.6C500.5,273.5 500,266 500,258.1C500,201.1 524.8,140.1 568.9,90.2C590.9,64.9 618.9,43.9 652.8,27.2C686.7,10.7 718.7,1.6 748.8,0C749.6,7.9 750,15.9 750,23.8Z" style="fill:rgb(22,41,72);fill-rule:nonzero;"/>
    </g>
</svg>
