<?xml version="1.0" encoding="UTF-8" standalone="no"?>
<!DOCTYPE svg PUBLIC "-//W3C//DTD SVG 1.1//EN" "http://www.w3.org/Graphics/SVG/1.1/DTD/svg11.dtd">
<svg width="100%" height="100%" viewBox="0 0 15 15" version="1.1" xmlns="http://www.w3.org/2000/svg" xmlns:xlink="http://www.w3.org/1999/xlink" xml:space="preserve" xmlns:serif="http://www.serif.com/" style="fill-rule:evenodd;clip-rule:evenodd;stroke-linejoin:round;stroke-miterlimit:2;">
    <g transform="matrix(0.833333,0,0,0.833333,-2.42736,-4.02139)">
        <path d="M20.421,12.1C20.365,12.23 20.3,12.369 20.235,12.499C20.217,12.536 20.198,12.573 20.189,12.601C20.133,12.722 20.068,12.852 20.003,12.973C19.994,12.982 19.994,13 19.985,13.01C19.91,13.149 19.836,13.279 19.762,13.418C19.743,13.455 19.725,13.483 19.706,13.52C19.641,13.641 19.576,13.752 19.502,13.873C19.484,13.901 19.474,13.919 19.456,13.947C19.381,14.068 19.307,14.179 19.233,14.3L19.975,19.432L20.56,11.757C20.514,11.868 20.467,11.97 20.421,12.082C20.43,12.1 20.43,12.1 20.421,12.1Z" style="fill:rgb(22,41,72);fill-rule:nonzero;"/>
    </g>
    <g transform="matrix(0.833333,0,0,0.833333,-2.42736,-4.02139)">
        <path d="M15.725,18.578C15.669,18.634 15.613,18.68 15.557,18.736C15.437,18.848 15.325,18.959 15.205,19.07C15.177,19.089 15.158,19.117 15.131,19.135C15.019,19.237 14.908,19.339 14.796,19.432C14.769,19.451 14.75,19.479 14.722,19.497C14.629,19.581 14.527,19.664 14.434,19.748C14.416,19.766 14.388,19.785 14.37,19.804C14.258,19.896 14.156,19.98 14.045,20.063C14.017,20.091 13.989,20.11 13.952,20.138C13.84,20.221 13.729,20.314 13.618,20.388C13.608,20.398 13.599,20.407 13.581,20.416C13.479,20.49 13.367,20.574 13.265,20.648C13.237,20.667 13.209,20.685 13.182,20.704C13.07,20.778 12.959,20.862 12.847,20.936C12.829,20.954 12.801,20.964 12.782,20.982C12.68,21.047 12.569,21.121 12.467,21.186C12.458,21.196 12.448,21.205 12.439,21.205L19.27,21.743L16.179,18.987L15.725,18.578Z" style="fill:rgb(22,41,72);fill-rule:nonzero;"/>
    </g>
    <g transform="matrix(0.833333,0,0,0.833333,-2.42736,-4.02139)">
        <path d="M18.778,15.005C18.759,15.024 18.75,15.042 18.732,15.07C18.713,15.098 18.694,15.117 18.676,15.144C18.639,15.2 18.602,15.246 18.565,15.302C18.546,15.321 18.537,15.349 18.518,15.367C18.462,15.441 18.416,15.506 18.36,15.581C18.351,15.599 18.333,15.608 18.323,15.627C18.277,15.683 18.24,15.738 18.193,15.803C18.175,15.831 18.156,15.859 18.128,15.887C18.091,15.933 18.054,15.989 18.017,16.035C17.998,16.063 17.971,16.091 17.952,16.119C17.906,16.175 17.868,16.23 17.822,16.277C17.803,16.295 17.785,16.323 17.766,16.342C17.711,16.416 17.646,16.49 17.581,16.564C17.562,16.583 17.544,16.602 17.534,16.62C17.488,16.676 17.442,16.731 17.386,16.796C17.367,16.824 17.339,16.852 17.312,16.88C17.265,16.936 17.219,16.982 17.172,17.038C17.145,17.066 17.126,17.093 17.098,17.121C17.042,17.186 16.987,17.242 16.94,17.307C16.922,17.325 16.912,17.344 16.894,17.363C16.82,17.446 16.755,17.52 16.68,17.604C16.662,17.622 16.643,17.641 16.625,17.669C16.569,17.734 16.513,17.79 16.458,17.855C16.43,17.882 16.411,17.91 16.383,17.938C16.328,17.994 16.272,18.059 16.216,18.114C16.189,18.142 16.17,18.17 16.142,18.189C16.133,18.207 16.114,18.216 16.105,18.226L18.602,20.444L19.669,21.391L19.613,21.038L18.778,15.005Z" style="fill:rgb(22,41,72);fill-rule:nonzero;"/>
    </g>
    <g transform="matrix(0.833333,0,0,0.833333,-2.42736,-4.02139)">
        <path d="M15.428,21.985L11.595,21.688C11.585,21.697 11.576,21.697 11.557,21.697C11.548,21.697 11.548,21.697 11.539,21.706C11.52,21.716 11.492,21.725 11.474,21.743C11.418,21.78 11.353,21.808 11.298,21.845C11.288,21.845 11.279,21.855 11.27,21.855C11.242,21.873 11.214,21.883 11.186,21.901C11.149,21.92 11.112,21.938 11.075,21.957C11.047,21.975 11.019,21.985 10.991,22.003C10.973,22.013 10.945,22.022 10.926,22.031C10.871,22.059 10.815,22.087 10.75,22.115C10.731,22.124 10.713,22.133 10.694,22.142C10.685,22.142 10.685,22.152 10.676,22.152C10.639,22.17 10.601,22.189 10.564,22.207C10.499,22.235 10.434,22.263 10.369,22.291C10.351,22.3 10.332,22.3 10.323,22.31C10.286,22.328 10.258,22.337 10.221,22.356L10.212,22.356C10.165,22.374 10.11,22.402 10.063,22.421C10.017,22.439 9.98,22.458 9.933,22.467C9.915,22.477 9.887,22.486 9.868,22.495L10.527,22.449L16.272,22.059L15.428,21.985Z" style="fill:rgb(22,41,72);fill-rule:nonzero;"/>
    </g>
    <g transform="matrix(0.833333,0,0,0.833333,-2.42736,-4.02139)">
        <path d="M8.235,16.369L4.401,17.233C4.42,17.261 4.438,17.298 4.448,17.335C4.476,17.39 4.503,17.455 4.541,17.53C4.559,17.576 4.587,17.632 4.615,17.687C4.624,17.715 4.643,17.743 4.652,17.771C4.875,18.281 5.209,19.07 5.719,20.323C5.775,20.472 5.84,20.62 5.905,20.778C5.933,20.852 5.97,20.936 5.998,21.01C5.998,21.019 6.007,21.029 6.007,21.029C6.072,21.187 6.137,21.354 6.211,21.53C6.22,21.539 6.22,21.558 6.23,21.567C6.258,21.632 6.285,21.706 6.313,21.781C6.323,21.799 6.332,21.827 6.341,21.845C6.378,21.929 6.406,22.013 6.443,22.096L6.471,22.17L7.241,19.627L8.235,16.369Z" style="fill:rgb(22,41,72);fill-rule:nonzero;"/>
    </g>
    <g transform="matrix(0.833333,0,0,0.833333,-2.42736,-4.02139)">
        <path d="M15.53,6.81L14.286,10.754L18.991,10.448L19.799,10.392L19.91,10.383L19.836,10.327L15.53,6.81Z" style="fill:rgb(22,41,72);fill-rule:nonzero;"/>
    </g>
    <g transform="matrix(0.833333,0,0,0.833333,-2.42736,-4.02139)">
        <path d="M17.08,5.019L13.989,5L15.363,5.965L17.08,5.019Z" style="fill:rgb(22,41,72);fill-rule:nonzero;"/>
    </g>
    <g transform="matrix(0.833333,0,0,0.833333,-2.42736,-4.02139)">
        <path d="M3.176,15.627L3.056,18.115L3.659,17.01L3.176,15.627Z" style="fill:rgb(22,41,72);fill-rule:nonzero;"/>
    </g>
    <g transform="matrix(0.833333,0,0,0.833333,-2.42736,-4.02139)">
        <path d="M8.727,14.866L12.699,11.135C14.184,9.167 14.806,7.237 14.305,6.197L13.534,5.51C13.339,5.445 13.117,5.408 12.875,5.408C11.325,5.408 8.903,6.726 6.842,8.768C5.543,10.058 4.504,11.562 3.993,12.908C3.483,14.235 3.52,15.274 4.077,15.84C4.847,16.629 6.629,16.249 8.727,14.866Z" style="fill:rgb(22,41,72);fill-rule:nonzero;"/>
    </g>
    <g transform="matrix(0.833333,0,0,0.833333,-2.42736,-4.02139)">
        <path d="M10.118,21.781C10.156,21.762 10.193,21.753 10.23,21.734C10.286,21.706 10.341,21.688 10.397,21.66C10.434,21.641 10.471,21.623 10.508,21.604C10.564,21.576 10.62,21.548 10.675,21.521C10.713,21.502 10.75,21.483 10.787,21.465C10.843,21.437 10.907,21.409 10.963,21.372C11,21.354 11.028,21.335 11.065,21.316C11.075,21.307 11.084,21.307 11.093,21.298L11.065,21.251L10.87,20.88L10.805,20.75L10.675,20.5L10.666,20.481L10.546,20.249L8.717,16.722L7,22.356L6.935,22.551L6.907,22.653C6.954,22.644 7,22.644 7.046,22.634L7.074,22.634C7.093,22.634 7.121,22.625 7.139,22.625C7.223,22.616 7.306,22.597 7.39,22.588C7.408,22.588 7.418,22.579 7.436,22.579C7.538,22.56 7.631,22.542 7.733,22.523C7.752,22.523 7.77,22.514 7.798,22.514C7.872,22.495 7.947,22.486 8.021,22.467C8.058,22.458 8.086,22.449 8.123,22.439C8.188,22.421 8.253,22.412 8.309,22.393C8.346,22.384 8.383,22.375 8.42,22.365C8.476,22.347 8.541,22.337 8.596,22.319C8.634,22.31 8.671,22.3 8.708,22.291C8.763,22.272 8.828,22.254 8.884,22.235C8.921,22.226 8.958,22.217 8.996,22.198C9.06,22.18 9.125,22.161 9.19,22.133C9.218,22.124 9.255,22.115 9.283,22.105C9.376,22.078 9.469,22.04 9.562,22.003C9.571,22.003 9.571,21.994 9.58,21.994C9.664,21.957 9.757,21.929 9.84,21.892C9.868,21.883 9.905,21.864 9.933,21.855C9.998,21.836 10.054,21.808 10.118,21.781Z" style="fill:rgb(22,41,72);fill-rule:nonzero;"/>
    </g>
    <g transform="matrix(0.833333,0,0,0.833333,-2.42736,-4.02139)">
        <path d="M15.817,17.455L15.836,17.53L15.854,17.585L15.873,17.65C15.91,17.604 15.947,17.567 15.994,17.52C16.012,17.502 16.04,17.474 16.059,17.455C16.124,17.381 16.189,17.307 16.263,17.233C16.272,17.223 16.281,17.214 16.291,17.205C16.309,17.177 16.337,17.158 16.356,17.131C16.393,17.094 16.43,17.056 16.458,17.01C16.476,16.991 16.495,16.973 16.513,16.945C16.523,16.936 16.532,16.926 16.532,16.917C16.597,16.843 16.662,16.778 16.718,16.704C16.736,16.685 16.755,16.657 16.773,16.639C16.82,16.583 16.866,16.527 16.913,16.472C16.931,16.444 16.959,16.416 16.977,16.388C16.987,16.379 16.987,16.369 16.996,16.369C17.033,16.323 17.07,16.286 17.107,16.24C17.135,16.212 17.154,16.184 17.172,16.156C17.219,16.11 17.256,16.054 17.293,16.008C17.302,15.989 17.321,15.98 17.33,15.961C17.339,15.952 17.349,15.933 17.358,15.924C17.367,15.915 17.367,15.915 17.377,15.906C17.414,15.859 17.451,15.813 17.488,15.766C17.507,15.748 17.525,15.72 17.544,15.701C17.599,15.627 17.655,15.562 17.711,15.488C17.711,15.479 17.72,15.479 17.72,15.469C17.776,15.395 17.831,15.321 17.887,15.246C17.906,15.228 17.915,15.209 17.933,15.182C17.971,15.126 18.017,15.079 18.054,15.024C18.073,14.996 18.091,14.968 18.11,14.94C18.147,14.894 18.175,14.847 18.212,14.801C18.23,14.773 18.249,14.745 18.267,14.717C18.295,14.671 18.333,14.625 18.36,14.578C18.379,14.55 18.398,14.523 18.416,14.495C18.444,14.448 18.481,14.402 18.509,14.355C18.527,14.328 18.546,14.309 18.555,14.281C18.565,14.272 18.574,14.263 18.574,14.253C18.527,14.226 18.472,14.198 18.416,14.161C18.388,14.142 18.351,14.124 18.323,14.105C18.305,14.096 18.286,14.086 18.267,14.068C18.258,14.068 18.258,14.059 18.249,14.059C18.184,14.021 18.11,13.975 18.036,13.929C17.358,13.511 16.337,12.889 15.39,12.304C15.353,12.286 15.316,12.258 15.288,12.239C14.954,12.035 14.629,11.84 14.342,11.655L14.936,13.993L15.743,17.158L15.817,17.455Z" style="fill:rgb(22,41,72);fill-rule:nonzero;"/>
    </g>
    <g transform="matrix(0.833333,0,0,0.833333,-2.42736,-4.02139)">
        <path d="M20.737,7.339L16.319,6.717L20.096,9.808L20.161,9.863L20.319,9.993L20.532,10.17C20.542,10.123 20.56,10.077 20.569,10.031C20.579,10.003 20.579,9.984 20.588,9.956C20.607,9.873 20.634,9.789 20.653,9.696C20.653,9.687 20.653,9.678 20.662,9.659C20.681,9.585 20.69,9.511 20.709,9.436C20.718,9.409 20.718,9.381 20.727,9.353C20.737,9.297 20.746,9.242 20.755,9.186C20.764,9.158 20.764,9.121 20.764,9.093L20.764,9.074C20.774,9.028 20.774,8.982 20.783,8.935C20.783,8.907 20.792,8.87 20.792,8.842C20.801,8.787 20.801,8.731 20.811,8.685C20.811,8.657 20.811,8.629 20.82,8.61C20.829,8.536 20.829,8.453 20.829,8.378L20.829,8.323C20.82,7.979 20.792,7.645 20.737,7.339Z" style="fill:rgb(22,41,72);fill-rule:nonzero;"/>
    </g>
    <g transform="matrix(0.833333,0,0,0.833333,-2.42736,-4.02139)">
        <path d="M18.778,13.724C18.787,13.734 18.806,13.743 18.815,13.752C18.824,13.752 18.824,13.752 18.834,13.743L18.889,13.743L18.899,13.734C18.917,13.706 18.936,13.687 18.945,13.66L18.954,13.65C18.973,13.622 18.991,13.585 19.019,13.548C19.029,13.539 19.029,13.53 19.038,13.52C19.057,13.483 19.084,13.446 19.103,13.4C19.131,13.353 19.149,13.316 19.177,13.27C19.186,13.26 19.186,13.251 19.196,13.242C19.224,13.195 19.251,13.149 19.279,13.103C19.279,13.093 19.289,13.093 19.289,13.084C19.316,13.038 19.335,12.991 19.363,12.945C19.372,12.935 19.372,12.926 19.381,12.908C19.409,12.852 19.437,12.806 19.465,12.75C19.465,12.741 19.474,12.731 19.474,12.722C19.502,12.676 19.53,12.62 19.548,12.574C19.558,12.564 19.558,12.555 19.567,12.536C19.595,12.481 19.623,12.425 19.651,12.369C19.66,12.36 19.66,12.342 19.669,12.332C19.697,12.277 19.715,12.23 19.743,12.175C19.743,12.165 19.753,12.156 19.753,12.147C19.78,12.091 19.808,12.026 19.836,11.97C19.845,11.961 19.845,11.942 19.855,11.933C19.883,11.878 19.901,11.822 19.929,11.766C19.929,11.757 19.929,11.757 19.938,11.748C19.966,11.692 19.985,11.627 20.012,11.571C20.022,11.553 20.022,11.543 20.031,11.525C20.059,11.469 20.077,11.404 20.105,11.348L20.105,11.339C20.124,11.284 20.142,11.228 20.17,11.172C20.18,11.163 20.18,11.144 20.189,11.135C20.207,11.079 20.226,11.024 20.245,10.968L20.245,10.959L20.133,10.968L19.808,10.987L19.483,11.005L14.796,11.311C14.908,11.376 15.019,11.451 15.14,11.525C15.994,12.044 16.978,12.648 17.757,13.13C17.813,13.168 17.869,13.195 17.924,13.233C17.943,13.242 17.961,13.26 17.98,13.27C18.082,13.335 18.184,13.39 18.277,13.455C18.36,13.511 18.444,13.557 18.518,13.604C18.527,13.604 18.537,13.613 18.537,13.613C18.611,13.66 18.676,13.697 18.741,13.734C18.769,13.724 18.769,13.724 18.778,13.724Z" style="fill:rgb(22,41,72);fill-rule:nonzero;"/>
    </g>
    <g transform="matrix(0.833333,0,0,0.833333,-2.42736,-4.02139)">
        <path d="M14.954,18.291L14.834,18.254L14.602,18.179L14.249,18.068L12.022,17.344L9.794,16.629L9.209,16.444L11.038,19.971L11.168,20.221L11.177,20.24L11.298,20.472L11.595,21.047C11.604,21.047 11.613,21.038 11.613,21.038C11.752,20.954 11.892,20.871 12.031,20.787C12.049,20.778 12.059,20.769 12.077,20.76C12.133,20.722 12.198,20.685 12.254,20.648C12.281,20.63 12.3,20.62 12.328,20.602C12.374,20.565 12.43,20.537 12.476,20.5C12.504,20.481 12.532,20.462 12.56,20.444C12.606,20.416 12.653,20.379 12.699,20.342C12.727,20.323 12.755,20.305 12.792,20.277C12.838,20.249 12.885,20.212 12.931,20.175C12.959,20.156 12.996,20.128 13.024,20.11C13.07,20.073 13.117,20.045 13.163,20.008C13.191,19.98 13.228,19.961 13.256,19.934C13.302,19.896 13.349,19.869 13.386,19.831C13.423,19.804 13.451,19.785 13.488,19.757C13.534,19.72 13.581,19.692 13.618,19.655C13.655,19.627 13.683,19.599 13.72,19.581C13.766,19.544 13.813,19.507 13.85,19.469C13.887,19.442 13.915,19.414 13.952,19.386C13.998,19.349 14.045,19.312 14.091,19.275C14.128,19.247 14.156,19.219 14.193,19.191C14.24,19.154 14.286,19.117 14.333,19.07C14.37,19.043 14.398,19.015 14.435,18.987C14.481,18.94 14.537,18.903 14.583,18.857C14.611,18.829 14.639,18.801 14.676,18.783C14.759,18.718 14.834,18.643 14.917,18.569C14.954,18.541 14.982,18.504 15.019,18.476C15.066,18.439 15.103,18.393 15.149,18.356L14.954,18.291Z" style="fill:rgb(22,41,72);fill-rule:nonzero;"/>
    </g>
    <g transform="matrix(0.833333,0,0,0.833333,-2.42736,-4.02139)">
        <path d="M15.326,17.817L15.307,17.762L15.289,17.678L15.242,17.474L14.398,14.142L13.748,11.599L9.172,15.85L9.933,16.091L12.189,16.815L14.899,17.678L15.001,17.706C15.01,17.706 15.01,17.706 15.019,17.715L15.251,17.79L15.326,17.817Z" style="fill:rgb(22,41,72);fill-rule:nonzero;"/>
    </g>
    <g transform="matrix(0.833333,0,0,0.833333,-2.42736,-4.02139)">
        <path d="M5.905,22.263L4.142,18.142L3.947,17.678L3.891,17.771L3.557,18.374L3,19.405C3.028,20.082 3.149,20.62 3.343,21.047C3.418,21.214 3.492,21.363 3.585,21.493C4.244,22.477 5.32,22.662 6.1,22.699L6.091,22.681L5.905,22.263Z" style="fill:rgb(22,41,72);fill-rule:nonzero;"/>
    </g>
    <g transform="matrix(0.833333,0,0,0.833333,-2.42736,-4.02139)">
        <path d="M20.551,6.754C20.542,6.736 20.533,6.717 20.533,6.708C20.514,6.661 20.486,6.615 20.468,6.569C20.458,6.55 20.449,6.531 20.44,6.504C20.421,6.466 20.403,6.429 20.375,6.392C20.366,6.374 20.347,6.346 20.338,6.327C20.319,6.29 20.291,6.262 20.273,6.225C20.254,6.207 20.245,6.188 20.226,6.169C20.199,6.132 20.171,6.104 20.143,6.067C20.124,6.049 20.115,6.03 20.096,6.012C20.059,5.975 20.031,5.937 19.994,5.9C19.985,5.891 19.976,5.882 19.966,5.872C19.92,5.826 19.874,5.78 19.818,5.742C19.809,5.733 19.799,5.724 19.781,5.715C19.744,5.687 19.697,5.65 19.66,5.622C19.642,5.613 19.623,5.594 19.605,5.585C19.567,5.557 19.53,5.538 19.493,5.51C19.475,5.501 19.447,5.483 19.428,5.473C19.391,5.455 19.354,5.427 19.317,5.408C19.289,5.399 19.27,5.381 19.243,5.371C19.205,5.353 19.159,5.334 19.113,5.316C19.094,5.306 19.066,5.297 19.048,5.288C18.992,5.269 18.946,5.251 18.89,5.223C18.871,5.213 18.862,5.213 18.843,5.204C18.769,5.176 18.704,5.158 18.63,5.139C18.611,5.13 18.593,5.13 18.574,5.121C18.519,5.102 18.463,5.093 18.407,5.074C18.379,5.065 18.352,5.065 18.314,5.056C18.277,5.046 18.249,5.037 18.212,5.037L16.208,6.142L20.551,6.754Z" style="fill:rgb(22,41,72);fill-rule:nonzero;"/>
    </g>
</svg>
