<?xml version="1.0" encoding="UTF-8" standalone="no"?>
<!DOCTYPE svg PUBLIC "-//W3C//DTD SVG 1.1//EN" "http://www.w3.org/Graphics/SVG/1.1/DTD/svg11.dtd">
<svg width="15px" height="15px" version="1.1" xmlns="http://www.w3.org/2000/svg" xmlns:xlink="http://www.w3.org/1999/xlink" xml:space="preserve" xmlns:serif="http://www.serif.com/" style="fill-rule:evenodd;clip-rule:evenodd;stroke-linejoin:round;stroke-miterlimit:2;">
    <g transform="matrix(0.00143864,0,0,0.00154689,-0.798939,7.19985)">
        <g>
            <g transform="matrix(5000,0,0,5000,570.84,1983.58)">
                <path d="M0.248,0L0.248,-0.317L-0.001,-0.716L0.209,-0.716L0.336,-0.499L0.468,-0.716L0.668,-0.716L0.438,-0.316L0.438,0L0.248,0Z" style="fill:rgb(22,41,72);fill-rule:nonzero;"/>
            </g>
            <g transform="matrix(5000,0,0,5000,3905.8,1983.58)">
                <path d="M0.108,0L0.108,-0.716L0.324,-0.716L0.454,-0.411L0.583,-0.716L0.8,-0.716L0.8,0L0.637,0L0.637,-0.357L0.523,-0.165L0.384,-0.165L0.271,-0.359L0.271,0L0.108,0Z" style="fill:rgb(22,41,72);fill-rule:nonzero;"/>
            </g>
            <g transform="matrix(5000,0,0,5000,8070.84,1983.58)">
                <path d="M0.139,0L0.139,-0.71L0.339,-0.71L0.339,-0.19L0.581,-0.19L0.581,-0L0.139,0Z" style="fill:rgb(22,41,72);fill-rule:nonzero;"/>
            </g>
        </g>
    </g>
</svg>
