<?xml version="1.0" encoding="UTF-8" standalone="no"?>
<!DOCTYPE svg PUBLIC "-//W3C//DTD SVG 1.1//EN" "http://www.w3.org/Graphics/SVG/1.1/DTD/svg11.dtd">
<svg width="225px" height="50px" version="1.1" xmlns="http://www.w3.org/2000/svg" xmlns:xlink="http://www.w3.org/1999/xlink" xml:space="preserve" xmlns:serif="http://www.serif.com/" style="fill-rule:evenodd;clip-rule:evenodd;stroke-linejoin:round;stroke-miterlimit:2;">
    <g transform="matrix(0.25,0,0,0.25,0,0)">
        <g transform="matrix(1.56011,0,0,1.56011,-130.226,-56.1951)">
            <path d="M232.5,128.6L232.5,70.7C232.5,70 232.8,69.4 233.3,68.9C233.9,68.4 234.6,68.1 235.4,68.2L251.7,68.2C256.5,68 261.3,69.6 265,72.7C268.3,75.7 270,80.4 270,86.8L270,87.6C270,94 268.3,98.8 264.9,101.8C261.1,104.9 256.3,106.6 251.4,106.3L239.8,106.3L239.8,128.6C239.8,129.4 239.4,130.1 238.7,130.5C237.1,131.4 235.2,131.4 233.6,130.5C232.9,130.1 232.5,129.4 232.5,128.6ZM239.7,100.3L251.4,100.3C254.5,100.5 257.6,99.4 259.8,97.2C262,94.7 263.1,91.4 262.8,88L262.8,87C263.1,83.7 262,80.4 259.8,77.8C257.5,75.7 254.5,74.6 251.4,74.8L239.8,74.8L239.7,100.3Z" style="fill:rgb(255,108,55);fill-rule:nonzero;"/>
            <path d="M295.2,112.9L295.2,87C295.2,80.5 296.9,75.8 300.2,72.8C308.2,66.8 319.2,66.8 327.2,72.8C330.6,75.8 332.3,80.6 332.3,87L332.3,112.9C332.3,119.4 330.6,124.1 327.2,127.1C319.2,133.2 308.2,133.2 300.2,127.1C296.9,124.1 295.2,119.4 295.2,112.9ZM302.5,112.9C302.5,121 306.2,125.1 313.8,125.1C316.9,125.3 319.9,124.2 322.2,122.1C324.4,119.6 325.4,116.3 325.2,112.9L325.2,86.9C325.5,83.6 324.4,80.3 322.2,77.7C319.9,75.6 316.9,74.5 313.8,74.7C306.3,74.7 302.6,78.7 302.6,86.9L302.5,112.9Z" style="fill:rgb(255,108,55);fill-rule:nonzero;"/>
            <path d="M357.9,122.3C357.9,121.3 358.3,120.4 358.9,119.6C359.4,118.9 360.1,118.4 361,118.3C361.8,118.4 362.5,118.8 363,119.4C363.8,120.1 364.6,120.9 365.5,121.8C366.7,122.9 368.1,123.7 369.6,124.2C371.6,125 373.8,125.3 375.9,125.3C379.1,125.5 382.2,124.5 384.7,122.6C386.9,120.6 388.1,117.6 387.9,114.6C388,111.7 387,109 385,106.9C383,104.9 380.6,103.4 377.9,102.4C375.1,101.4 372.4,100.3 369.5,99.1C366.7,97.9 364.3,96.1 362.4,93.7C360.4,91 359.3,87.7 359.5,84.3C359.4,81.6 360,78.9 361.2,76.4C362.2,74.3 363.8,72.6 365.8,71.4C367.7,70.3 369.7,69.5 371.8,68.9C374,68.4 376.2,68.1 378.4,68.1C381.9,68.1 385.3,68.6 388.6,69.6C391.8,70.7 393.5,72.1 393.5,73.8C393.5,74.7 393.2,75.6 392.6,76.4C392.2,77.2 391.3,77.8 390.4,77.8C389.1,77.4 387.8,76.9 386.5,76.3C384,75.2 381.3,74.6 378.5,74.7C375.6,74.6 372.6,75.3 370.1,76.8C367.9,78.3 366.7,80.9 366.9,83.6C366.8,86.1 367.8,88.5 369.7,90.1C371.8,91.8 374.2,93.2 376.8,94C379.6,95 382.4,96.1 385.2,97.4C388,98.8 390.4,100.9 392.2,103.5C394.2,106.7 395.2,110.4 395.1,114.2C395.1,120.1 393.4,124.6 389.9,127.6C386.1,130.8 381.2,132.4 376.2,132.1C371.7,132.2 367.2,131.1 363.3,128.9C359.7,126.5 357.9,124.4 357.9,122.3Z" style="fill:rgb(255,108,55);fill-rule:nonzero;"/>
            <path d="M416.6,71.4C416.6,70.6 416.8,69.8 417.3,69.2C417.7,68.5 418.4,68.2 419.2,68.2L454.2,68.2C455,68.2 455.7,68.5 456.1,69.2C456.6,69.8 456.8,70.6 456.8,71.4C456.8,72.2 456.6,73.1 456.1,73.8C455.7,74.5 455,74.8 454.2,74.8L440.5,74.8L440.5,128.6C440.5,129.4 440.1,130.1 439.4,130.5C437.8,131.4 435.9,131.4 434.3,130.5C433.6,130.1 433.2,129.4 433.2,128.6L433.2,74.8L419.3,74.8C418.5,74.8 417.8,74.5 417.4,73.8C416.9,73.1 416.6,72.3 416.6,71.4Z" style="fill:rgb(255,108,55);fill-rule:nonzero;"/>
            <path d="M481.4,128.6L481.4,71.9C481.1,70.2 482.3,68.6 484,68.3C484.4,68.2 484.8,68.2 485.1,68.3C487.4,68.3 489.3,69.8 490.9,72.9L504.4,98.8L518,72.9C519.7,69.9 521.6,68.3 523.8,68.3C525.5,68 527.1,69.2 527.4,70.9C527.5,71.2 527.5,71.5 527.4,71.8L527.4,128.5C527.4,129.3 527,130 526.3,130.4C524.7,131.3 522.8,131.3 521.2,130.4C520.5,130 520.1,129.3 520.1,128.5L520.1,83.4L507.1,107.8C506.7,109 505.6,109.9 504.3,109.9C503.1,109.8 502,109 501.6,107.8L488.6,82.9L488.6,128.5C488.6,129.3 488.2,130 487.5,130.4C486.8,130.9 485.9,131.2 485.1,131.2C484.2,131.2 483.3,131 482.6,130.5C481.8,130.2 481.3,129.4 481.4,128.6Z" style="fill:rgb(255,108,55);fill-rule:nonzero;"/>
            <path d="M552.1,128.2C552.1,128 552.2,127.7 552.3,127.5L569.9,70.8C570.4,69.1 571.9,68.3 574.3,68.3C576.7,68.3 578.2,69.1 578.7,70.8L596.4,127.8L596.4,128.3C596.4,129.2 595.8,130 595,130.4C594.1,131 593,131.3 591.8,131.2C590.7,131.3 589.6,130.7 589.2,129.6L585.4,117L562.8,117L559,129.6C558.7,130.7 557.5,131.4 556.4,131.3C555.4,131.3 554.4,131 553.5,130.4C552.6,130 552.1,129.2 552.1,128.2ZM564.6,111L583.9,111L574.3,78.8L564.6,111Z" style="fill:rgb(255,108,55);fill-rule:nonzero;"/>
            <path d="M621.3,128.6L621.3,70.7C621.3,69 622.5,68.2 624.9,68.2C626,68.2 627.1,68.6 628,69.3C629,70.3 629.9,71.5 630.4,72.8L651.9,114.8L651.9,70.7C651.9,69.9 652.3,69.2 653,68.9C654.6,68 656.5,68 658.1,68.9C658.8,69.3 659.2,70 659.2,70.7L659.2,128.6C659.2,129.4 658.8,130.1 658.1,130.5C657.3,131 656.5,131.2 655.6,131.2C653.6,131.1 651.8,129.8 651.1,127.9L628.5,84.6L628.5,128.6C628.5,129.4 628.1,130.1 627.5,130.5C625.9,131.4 624,131.4 622.4,130.5C621.7,130.1 621.3,129.4 621.3,128.6Z" style="fill:rgb(255,108,55);fill-rule:nonzero;"/>
        </g>
        <path d="M199.2,112.7C206.2,57.9 167.5,7.8 112.8,0.8C58.1,-6.2 7.8,32.5 0.8,87.2C-6.2,141.9 32.5,192.1 87.2,199.2C142,206.2 192.1,167.5 199.2,112.7Z" style="fill:rgb(255,108,55);fill-rule:nonzero;"/>
        <path d="M136.1,64.2L93.9,106.4L82,94.5C123.5,53 127.6,56.6 136.1,64.2Z" style="fill:white;fill-rule:nonzero;"/>
        <path d="M93.9,107.4C93.6,107.4 93.4,107.3 93.2,107.1L81.2,95.2C80.8,94.8 80.8,94.2 81.2,93.8C123.4,51.6 127.8,55.6 136.7,63.6C136.9,63.8 137,64 137,64.3C137,64.6 136.9,64.8 136.7,65L94.5,107.1C94.4,107.3 94.1,107.4 93.9,107.4ZM83.4,94.5L93.9,105L134.6,64.3C127.2,57.7 122.2,55.7 83.4,94.5Z" style="fill:rgb(255,108,55);fill-rule:nonzero;"/>
        <path d="M106,118.5L94.5,107L136.7,64.8C148,76.2 131.1,94.7 106,118.5Z" style="fill:white;fill-rule:nonzero;"/>
        <path d="M106,119.5C105.7,119.5 105.5,119.4 105.3,119.2L93.8,107.7C93.6,107.5 93.6,107.3 93.6,107C93.6,106.7 93.7,106.5 93.9,106.3L136.1,64.1C136.5,63.7 137.1,63.7 137.5,64.1C140.1,66.5 141.5,69.9 141.4,73.4C141.2,84.5 128.6,98.6 106.8,119.2C106.5,119.4 106.2,119.5 106,119.5ZM95.9,107C102.3,113.5 105,116.1 106,117.1C122.8,101.1 139.1,84.7 139.2,73.4C139.3,70.8 138.3,68.2 136.6,66.2L95.9,107Z" style="fill:rgb(255,108,55);fill-rule:nonzero;"/>
        <path d="M82.2,94.8L90.7,103.3C90.9,103.5 90.9,103.7 90.7,103.9C90.6,104 90.6,104 90.5,104L72.9,107.8C72,107.9 71.2,107.3 71,106.4C70.9,105.9 71.1,105.4 71.4,105.1L81.6,94.9C81.8,94.7 82.1,94.6 82.2,94.8Z" style="fill:white;fill-rule:nonzero;"/>
        <path d="M72.6,108.8C71.1,108.8 70,107.6 70,106.1C70,105.4 70.3,104.7 70.8,104.2L81,94C81.6,93.5 82.4,93.5 83,94L91.5,102.5C92.1,103 92.1,103.9 91.5,104.5C91.3,104.7 91.1,104.8 90.8,104.9L73.2,108.7C73,108.7 72.8,108.8 72.6,108.8ZM81.9,95.9L72.1,105.7C71.9,105.9 71.8,106.2 72,106.5C72.1,106.8 72.4,106.9 72.7,106.8L89.2,103.2L81.9,95.9Z" style="fill:rgb(255,108,55);fill-rule:nonzero;"/>
        <path d="M158.4,40.8C152,34.6 141.7,34.8 135.5,41.3C129.3,47.8 129.5,58 136,64.2C141.3,69.3 149.3,70.2 155.6,66.4L144.2,55L158.4,40.8Z" style="fill:white;fill-rule:nonzero;"/>
        <path d="M147.2,69.7C137.7,69.7 130,62 130,52.5C130,43 137.7,35.3 147.2,35.3C151.6,35.3 155.9,37 159.1,40.1C159.3,40.3 159.4,40.5 159.4,40.8C159.4,41.1 159.3,41.3 159.1,41.5L145.6,55L156.2,65.6C156.6,66 156.6,66.6 156.2,67C156.1,67.1 156.1,67.1 156,67.2C153.4,68.8 150.3,69.7 147.2,69.7ZM147.2,37.4C138.8,37.4 132,44.2 132.1,52.6C132.1,61 138.9,67.8 147.3,67.7C149.6,67.7 151.9,67.2 154,66.1L143.5,55.7C143.3,55.5 143.2,55.3 143.2,55C143.2,54.7 143.3,54.5 143.5,54.3L156.9,40.9C154.2,38.6 150.8,37.4 147.2,37.4Z" style="fill:rgb(255,108,55);fill-rule:nonzero;"/>
        <path d="M158.7,41.1L158.5,40.9L144.2,55L155.5,66.3C156.6,65.6 157.7,64.8 158.6,63.9C165,57.6 165,47.4 158.7,41.1Z" style="fill:white;fill-rule:nonzero;"/>
        <path d="M155.6,67.4C155.3,67.4 155.1,67.3 154.9,67.1L143.5,55.7C143.3,55.5 143.2,55.3 143.2,55C143.2,54.7 143.3,54.5 143.5,54.3L157.7,40.1C158.1,39.7 158.7,39.7 159.1,40.1L159.4,40.3C166.1,47 166.1,57.8 159.5,64.6C158.5,65.6 157.4,66.5 156.2,67.2C155.9,67.3 155.7,67.4 155.6,67.4ZM145.6,55L155.7,65.1C156.5,64.6 157.3,63.9 157.9,63.3C163.6,57.6 163.9,48.3 158.4,42.3L145.6,55Z" style="fill:rgb(255,108,55);fill-rule:nonzero;"/>
        <path d="M137.8,66C135.4,63.6 131.5,63.6 129.1,66L91.4,103.7L97.7,110L137.6,75C140.2,72.8 140.4,68.9 138.2,66.3C138,66.2 137.9,66.1 137.8,66Z" style="fill:white;fill-rule:nonzero;"/>
        <path d="M97.6,111C97.3,111 97.1,110.9 96.9,110.7L90.6,104.4C90.2,104 90.2,103.4 90.6,103L128.3,65.3C131.1,62.5 135.6,62.5 138.4,65.3C141.2,68.1 141.2,72.6 138.4,75.4C138.3,75.5 138.2,75.6 138.1,75.7L98.2,110.7C98.1,110.9 97.9,111 97.6,111ZM92.8,103.7L97.7,108.6L136.9,74.2C139.1,72.4 139.3,69.1 137.5,66.9C135.7,64.7 132.4,64.5 130.2,66.3C130.1,66.4 130,66.5 129.8,66.6L92.8,103.7Z" style="fill:rgb(255,108,55);fill-rule:nonzero;"/>
        <path d="M62.5,146.6C62.1,146.8 61.9,147.2 62,147.6L63.7,154.8C64.1,155.8 63.5,157 62.4,157.3C61.6,157.6 60.7,157.3 60.2,156.7L49.2,145.8L85.1,109.9L97.5,110.1L105.9,118.5C103.9,120.2 91.8,131.9 62.5,146.6Z" style="fill:white;fill-rule:nonzero;"/>
        <path d="M61.7,158.3C60.9,158.3 60.1,158 59.6,157.4L48.7,146.5C48.5,146.3 48.4,146.1 48.4,145.8C48.4,145.5 48.5,145.3 48.7,145.1L84.6,109.2C84.8,109 85.1,108.9 85.3,108.9L97.7,109.1C98,109.1 98.2,109.2 98.4,109.4L106.8,117.8C107,118 107.1,118.3 107.1,118.6C107.1,118.9 107,119.1 106.7,119.3L106,119.9C95.4,129.2 81,138.5 63.1,147.4L64.8,154.5C65.1,155.8 64.5,157.2 63.3,157.9C62.7,158.2 62.2,158.3 61.7,158.3ZM50.7,145.8L61,156C61.3,156.5 61.9,156.7 62.4,156.4C62.9,156.1 63.1,155.5 62.8,155L61.1,147.8C60.9,146.9 61.3,146.1 62.1,145.7C79.8,136.8 94.1,127.6 104.6,118.5L97.2,111.1L85.7,110.9L50.7,145.8Z" style="fill:rgb(255,108,55);fill-rule:nonzero;"/>
        <path d="M40.7,154.4L49.3,145.8L62.1,158.6L41.7,157.2C40.8,157.1 40.2,156.3 40.3,155.4C40.3,155 40.4,154.6 40.7,154.4Z" style="fill:white;fill-rule:nonzero;"/>
        <path d="M62.1,159.5L41.6,158.1C40.1,158 39.1,156.7 39.2,155.2C39.3,154.6 39.5,154 40,153.6L48.6,145C49,144.6 49.6,144.6 50,145L62.8,157.8C63.1,158.1 63.2,158.5 63,158.9C62.8,159.3 62.5,159.5 62.1,159.5ZM49.3,147.2L41.4,155.1C41.1,155.3 41.1,155.8 41.4,156C41.5,156.1 41.6,156.2 41.8,156.2L59.5,157.4L49.3,147.2Z" style="fill:rgb(255,108,55);fill-rule:nonzero;"/>
        <path d="M81.6,114.5C81,114.5 80.6,114 80.6,113.5C80.6,113.2 80.7,113 80.9,112.8L90.6,103.1C91,102.7 91.6,102.7 92,103.1L98.3,109.4C98.6,109.7 98.7,110 98.6,110.4C98.5,110.7 98.2,111 97.8,111.1L81.8,114.5L81.6,114.5ZM91.3,105.2L84.7,111.8L95.5,109.5L91.3,105.2Z" style="fill:rgb(255,108,55);fill-rule:nonzero;"/>
        <path d="M97.5,110.1L86.5,112.5C85.7,112.7 84.9,112.2 84.7,111.4C84.6,110.9 84.7,110.4 85.1,110L91.2,103.9L97.5,110.1Z" style="fill:white;fill-rule:nonzero;"/>
        <path d="M86.3,113.5C84.9,113.5 83.8,112.4 83.8,111C83.8,110.3 84.1,109.7 84.5,109.2L90.6,103.1C91,102.7 91.6,102.7 92,103.1L98.3,109.4C98.6,109.7 98.7,110 98.6,110.4C98.5,110.7 98.2,111 97.8,111.1L86.8,113.5L86.3,113.5ZM91.3,105.2L85.9,110.6C85.7,110.8 85.7,111 85.8,111.2C85.9,111.4 86.1,111.5 86.4,111.5L95.6,109.5L91.3,105.2Z" style="fill:rgb(255,108,55);fill-rule:nonzero;"/>
        <path d="M158.8,50.7C158.6,50.1 157.9,49.8 157.3,50C156.7,50.2 156.4,50.9 156.6,51.5C156.6,51.6 156.7,51.7 156.7,51.8C157.3,53 157.1,54.5 156.3,55.6C155.9,56.1 156,56.8 156.4,57.2C156.9,57.6 157.6,57.5 158,57C159.5,55.1 159.8,52.7 158.8,50.7Z" style="fill:rgb(255,108,55);fill-rule:nonzero;"/>
    </g>
</svg>
