<?xml version="1.0" encoding="UTF-8" standalone="no"?>
<!DOCTYPE svg PUBLIC "-//W3C//DTD SVG 1.1//EN" "http://www.w3.org/Graphics/SVG/1.1/DTD/svg11.dtd">
<svg width="156px" height="161px" version="1.1" xmlns="http://www.w3.org/2000/svg" xmlns:xlink="http://www.w3.org/1999/xlink" xml:space="preserve" xmlns:serif="http://www.serif.com/" style="fill-rule:evenodd;clip-rule:evenodd;stroke-linecap:round;stroke-linejoin:round;">
    <g id="g10" transform="matrix(1.33333,0,0,-1.33333,-8.51653,163.185)">
        <g id="g12" transform="matrix(1,0,0,1,27.3984,5.4443)">
            <path id="path14" d="M0,0L-21.011,-0.728L-10.241,10.221L0,0Z" style="fill:rgb(241,90,36);fill-rule:nonzero;"/>
        </g>
        <g id="g16">
            <g id="g18">
                <g id="g24" transform="matrix(1,0,0,1,122.701,59.7559)">
                    <path id="path26" d="M0,0C-3.905,-30.435 -31.743,-51.937 -62.173,-48.027C-92.605,-44.124 -114.108,-16.287 -110.206,14.146C-106.298,44.578 -78.466,66.084 -48.029,62.174C-17.599,58.272 3.91,30.433 0,0" style="fill:rgb(241,90,36);fill-rule:nonzero;"/>
                </g>
                <g id="g28" transform="matrix(1,0,0,1,81.7646,82.623)">
                    <path id="path30" d="M0,0C3.65,-3.881 0.048,-13.058 0.048,-13.058C0.048,-13.058 -3.515,-26.03 -23.902,-42.85L-27.707,-39.114L-1.826,-12.661L-1.326,-11.987C-0.638,-10.864 -0.067,0.076 0,0" style="fill:rgb(153,153,153);fill-rule:nonzero;"/>
                </g>
                <g id="g32" transform="matrix(1,0,0,1,81.7646,82.623)">
                    <path id="path34" d="M0,0C3.65,-3.881 0.048,-13.058 0.048,-13.058C0.048,-13.058 -3.515,-26.03 -23.902,-42.85L-27.707,-39.114L-1.826,-12.661L-1.326,-11.987C-0.638,-10.864 -0.067,0.076 0,0Z" style="fill:none;fill-rule:nonzero;stroke:white;stroke-width:1.61px;"/>
                </g>
                <g id="g36" transform="matrix(1,0,0,1,48.4648,49.0068)">
                    <path id="path38" d="M0,0L33.245,33.711C34.934,31.707 35.291,29.548 34.802,26.473C34.472,24.344 30.793,20.084 30.793,20.084L5.593,-5.498" style="fill:rgb(102,102,102);fill-rule:nonzero;stroke:white;stroke-width:1.01px;"/>
                </g>
                <g id="g40" transform="matrix(1,0,0,1,81.7646,82.5986)">
                    <path id="path42" d="M0,0L-33.3,-33.592L-33.233,-33.527L-33.245,-33.531L-41.507,-25.391C-24.276,-3.962 -13.137,0.033 -13.137,0.033C-13.137,0.033 -5.886,2.864 -0.714,0.668C-0.316,0.454 -0.145,0.332 0,0" style="fill:rgb(255,147,30);fill-rule:nonzero;"/>
                </g>
                <g id="g44" transform="matrix(1,0,0,1,81.7646,82.5986)">
                    <path id="path46" d="M0,0L-33.3,-33.592L-33.233,-33.527L-33.245,-33.531L-41.507,-25.391C-24.276,-3.962 -13.137,0.033 -13.137,0.033C-13.137,0.033 -5.886,2.864 -0.714,0.668C-0.316,0.454 -0.145,0.332 0,0Z" style="fill:none;fill-rule:nonzero;stroke:white;stroke-width:1.61px;"/>
                </g>
                <g id="g48" transform="matrix(1,0,0,1,57.8623,39.7734)">
                    <path id="path50" d="M0,0C-7.945,-6.544 -18.111,-16.821 -31.931,-23.99L-28.857,-37.13L-41.886,-24.298L-9.397,9.233" style="fill:rgb(153,153,153);fill-rule:nonzero;stroke:white;stroke-width:1.61px;"/>
                </g>
                <g id="g52" transform="matrix(1,0,0,1,40.4805,57.0977)">
                    <path id="path54" d="M0,0L8.071,-8.039L-10.573,-12.079L-0.179,0.146L0,0Z" style="fill:rgb(241,90,36);fill-rule:nonzero;"/>
                </g>
                <g id="g56" transform="matrix(1,0,0,1,40.4805,57.0977)">
                    <path id="path58" d="M0,0L8.071,-8.039L-10.573,-12.079L-0.179,0.146L0,0Z" style="fill:none;fill-rule:nonzero;stroke:white;stroke-width:1.61px;"/>
                </g>
                <g id="g60" transform="matrix(1,0,0,1,78.585,92.3457)">
                    <path id="path62" d="M0,0C-0.791,-7.144 4.354,-13.577 11.501,-14.374C18.64,-15.167 25.078,-10.019 25.875,-2.875C26.669,4.269 21.517,10.708 14.373,11.502C7.227,12.291 0.793,7.148 0,0" style="fill:rgb(153,153,153);fill-rule:nonzero;"/>
                </g>
                <g id="g64" transform="matrix(1,0,0,1,78.585,92.3457)">
                    <path id="path66" d="M0,0C-0.791,-7.144 4.354,-13.577 11.501,-14.374C18.64,-15.167 25.078,-10.019 25.875,-2.875C26.669,4.269 21.517,10.708 14.373,11.502C7.227,12.291 0.793,7.148 0,0Z" style="fill:none;fill-rule:nonzero;stroke:white;stroke-width:1.61px;"/>
                </g>
                <g id="g68" transform="matrix(1,0,0,1,102.591,83.7158)">
                    <path id="path70" d="M0,0C2.4,3.507 2.276,8.759 1.793,10.313C1.204,12.216 -0.119,15.313 -2.428,16.922L-14.632,5.681C-14.632,5.681 -5.253,-4.397 -5.009,-4.432C-4.907,-4.443 -2.19,-3.198 0,0" style="fill:rgb(102,102,102);fill-rule:nonzero;"/>
                </g>
                <g id="g72" transform="matrix(1,0,0,1,102.591,83.7158)">
                    <path id="path74" d="M0,0C2.4,3.507 2.276,8.759 1.793,10.313C1.204,12.216 -0.119,15.313 -2.428,16.922L-14.632,5.681C-14.632,5.681 -5.253,-4.397 -5.009,-4.432C-4.907,-4.443 -2.19,-3.198 0,0Z" style="fill:none;fill-rule:nonzero;stroke:white;stroke-width:1.61px;"/>
                </g>
                <g id="g76" transform="matrix(1,0,0,1,100.128,92.5225)">
                    <path id="path78" d="M0,0C0,0 1.175,-2.88 -0.314,-5.123" style="fill:none;fill-rule:nonzero;stroke:white;stroke-width:1.61px;"/>
                </g>
                <g id="g80" transform="matrix(1,0,0,1,54.3428,43.502)">
                    <path id="path82" d="M0,0L-13.47,-2.396L-5.34,6.051" style="fill:rgb(102,102,102);fill-rule:nonzero;stroke:white;stroke-width:1.61px;"/>
                </g>
                <g id="g84" transform="matrix(1,0,0,1,40.793,57.0371)">
                    <path id="path86" d="M0,0L17.126,-16.116" style="fill:none;fill-rule:nonzero;stroke:white;stroke-width:1.61px;"/>
                </g>
            </g>
        </g>
    </g>
</svg>
